<svg xmlns="http://www.w3.org/2000/svg" xmlns:xlink="http://www.w3.org/1999/xlink" xmlns:lucid="lucid" width="1282" height="1722"><g transform="translate(421 -119)" lucid:page-tab-id="o60UY1mXwL34"><path d="M-500 0h1500v2000H-500z" fill="#fff"/><path d="M-420 126a6 6 0 0 1 6-6h208a6 6 0 0 1 6 6v8a14.48 14.48 0 0 1-4.24 10.24l-1.52 1.52A14.48 14.48 0 0 1-216 150h-198a6 6 0 0 1-6-6z" fill="#fff"/><path d="M-200 120v20l-10 10h-210" stroke="#000" stroke-width="2" fill="none"/><path d="M-420 126a6 6 0 0 1 6-6H854a6 6 0 0 1 6 6v1708a6 6 0 0 1-6 6H-414a6 6 0 0 1-6-6z" stroke="#000" stroke-width="2" fill="none"/><use xlink:href="#a" transform="matrix(1,0,0,1,-412,120) translate(0 25.833333333333336)"/><use xlink:href="#b" transform="matrix(1,0,0,1,-412,120) translate(39.59635416666667 25.833333333333336)"/><path d="M-20 166a6 6 0 0 1 6-6h788a6 6 0 0 1 6 6v1588a6 6 0 0 1-6 6H-14a6 6 0 0 1-6-6z" stroke="#000" stroke-width="2" fill-opacity="0"/><use xlink:href="#c" transform="matrix(1,0,0,1,-12,168) translate(311.4596354166667 25.833333333333336)"/><path d="M-199.75 999.95v-.2A19.75 19.75 0 0 1-180 980a19.75 19.75 0 0 1 19.75 19.75A19.75 19.75 0 0 1-180 1019.5a19.75 19.75 0 0 1-19.75-19.75v-.2" stroke="#000" stroke-width="2" fill="#fff"/><path d="M-220 986a6 6 0 0 1 6-6h68a6 6 0 0 1 6 6v146a6 6 0 0 1-6 6h-68a6 6 0 0 1-6-6z" fill="none"/><path d="M-180 1019.5v55.3l40 63.2m-40-63.2l-40 63.2m0-98.75h80" stroke="#000" stroke-width="2" fill="none"/><use xlink:href="#d" transform="matrix(1,0,0,1,-300,1138) translate(69.71354166666667 25.833333333333336)"/><path d="M-199.75 1339.95v-.2A19.75 19.75 0 0 1-180 1320a19.75 19.75 0 0 1 19.75 19.75A19.75 19.75 0 0 1-180 1359.5a19.75 19.75 0 0 1-19.75-19.75v-.2" stroke="#000" stroke-width="2" fill="#fff"/><path d="M-220 1326a6 6 0 0 1 6-6h68a6 6 0 0 1 6 6v146a6 6 0 0 1-6 6h-68a6 6 0 0 1-6-6z" fill="none"/><path d="M-180 1359.5v55.3l40 63.2m-40-63.2l-40 63.2m0-98.75h80" stroke="#000" stroke-width="2" fill="none"/><use xlink:href="#e" transform="matrix(1,0,0,1,-300,1478) translate(83.58723958333334 25.833333333333336)"/><path d="M220.38 992.5c0 33.14-35.8 60-80 60-44.18 0-80-26.86-80-60s35.82-60 80-60c44.2 0 80 26.86 80 60z" stroke="#000" stroke-width="2" fill="#fff"/><use xlink:href="#f" transform="matrix(1,0,0,1,60.384762832448814,932.4990668871108) translate(26.38877441406249 56.060625)"/><use xlink:href="#g" transform="matrix(1,0,0,1,60.384762832448814,932.4990668871108) translate(83.7445263671875 56.060625)"/><use xlink:href="#h" transform="matrix(1,0,0,1,60.384762832448814,932.4990668871108) translate(97.85255371093751 56.060625)"/><use xlink:href="#i" transform="matrix(1,0,0,1,60.384762832448814,932.4990668871108) translate(37.615527343749996 76.31537109375)"/><path d="M-178.02 1058.37l240.3-47.02M-178 1058.36l-3.94.78" stroke="#3a414a" stroke-width="2" fill="none"/><path d="M62.87 1010.27l.8 1.8-1.23.24-.37-1.9.8-.16z" stroke="#3a414a" stroke-width=".05" fill="#3a414a"/><path d="M220.38 1192.5c0 33.14-35.8 60-80 60-44.18 0-80-26.86-80-60s35.82-60 80-60c44.2 0 80 26.86 80 60z" stroke="#000" stroke-width="2" fill="#fff"/><use xlink:href="#j" transform="matrix(1,0,0,1,60.384762832448814,1132.4990668871108) translate(18.893374023437495 65.904375)"/><use xlink:href="#k" transform="matrix(1,0,0,1,60.384762832448814,1132.4990668871108) translate(62.3617919921875 65.904375)"/><use xlink:href="#l" transform="matrix(1,0,0,1,60.384762832448814,1132.4990668871108) translate(86.72797363281249 65.904375)"/><path d="M-178.08 1059.58l245.32 104.9M-178.06 1059.6l-3.7-1.6" stroke="#3a414a" stroke-width="2" fill="none"/><path d="M68.72 1164.06l-1.1 1.65-.78-.32.76-1.8zM141.36 1121.1h-1.95v-4.15h1.96zm0-12.48h-1.95v-8.32h1.96zm0-33.3h-1.95V1067h1.96zm0-16.66h-1.95v-4.16h1.96z" stroke="#3a414a" stroke-width=".05" fill="#3a414a"/><path d="M140.37 1053.5h.94l.06 1.03h-1.95v-1.06z" fill="#3a414a"/><path stroke="#3a414a" stroke-width=".05" fill="#3a414a"/><path d="M151.23 1112.67l-10.84 18.78-10.86-18.78 1.7-.98 8.17 14.16V1121h1.96v4.86l8.18-14.17z" stroke="#3a414a" stroke-width=".05" fill="#3a414a"/><use xlink:href="#m" transform="matrix(1,0,0,1,84.2389294991155,1075.984483579976) translate(0.005000000000002558 17.22222222222222)"/><path d="M260 1620.5c0 33.14-35.82 60-80 60s-80-26.86-80-60 35.82-60 80-60 80 26.86 80 60z" stroke="#000" stroke-width="2" fill="#fff"/><use xlink:href="#n" transform="matrix(1,0,0,1,100,1560.5011859272672) translate(17.487475585937496 56.060625)"/><use xlink:href="#o" transform="matrix(1,0,0,1,100,1560.5011859272672) translate(79.62491699218751 56.060625)"/><use xlink:href="#p" transform="matrix(1,0,0,1,100,1560.5011859272672) translate(55.050302734374995 76.31537109375)"/><path d="M-178.15 1399.9l293.33 182.66M-178.13 1399.92l-3.42-2.12" stroke="#3a414a" stroke-width="2" fill="none"/><path d="M116.74 1582.4l-.18.16-1.24 1.24-.68-.42 1.03-1.66z" stroke="#3a414a" stroke-width=".05" fill="#3a414a"/><path d="M-199.75 519.95v-.2A19.75 19.75 0 0 1-180 500a19.75 19.75 0 0 1 19.75 19.75A19.75 19.75 0 0 1-180 539.5a19.75 19.75 0 0 1-19.75-19.75v-.2" stroke="#000" stroke-width="2" fill="#fff"/><path d="M-220 506a6 6 0 0 1 6-6h68a6 6 0 0 1 6 6v146a6 6 0 0 1-6 6h-68a6 6 0 0 1-6-6z" fill="none"/><path d="M-180 539.5v55.3l40 63.2m-40-63.2l-40 63.2m0-98.75h80" stroke="#000" stroke-width="2" fill="none"/><use xlink:href="#q" transform="matrix(1,0,0,1,-300,658) translate(25.631510416666657 25.833333333333336)"/><use xlink:href="#r" transform="matrix(1,0,0,1,-300,658) translate(91.16536458333333 25.833333333333336)"/><path d="M-180 1299v-43a6 6 0 0 0-6-6h-118a6 6 0 0 1-6-6V872a6 6 0 0 1 6-6h123M-180 1298.97v1.03M-181.03 866h1.03M-180 939V724.65M-180 938.97V940" stroke="#3a414a" stroke-width="2" fill="none"/><path d="M-180 702l12.5 21.65h-25z" stroke="#3a414a" stroke-width="2" fill="#fff"/><path d="M236.97 324.83c0 24.76-40.3 44.84-90 44.84s-90-20.08-90-44.84c0-24.76 40.3-44.83 90-44.83s90 20.07 90 44.83z" stroke="#000" stroke-width="2" fill="#fff"/><use xlink:href="#j" transform="matrix(1,0,0,1,56.965952897586874,280) translate(23.061347656249986 51.0215625)"/><use xlink:href="#s" transform="matrix(1,0,0,1,56.965952897586874,280) translate(66.52976562499998 51.0215625)"/><use xlink:href="#t" transform="matrix(1,0,0,1,56.965952897586874,280) translate(129.116767578125 51.0215625)"/><path d="M-152.8 557.64L98.18 364.37M-152.77 557.62l-3.2 2.46" stroke="#3a414a" stroke-width="2" fill="none"/><path d="M100.1 364.12l-1.35 1.04-1.2-1.55.28-.2z" stroke="#3a414a" stroke-width=".05" fill="#3a414a"/><path d="M240 485c0 33.14-35.82 60-80 60s-80-26.86-80-60 35.82-60 80-60 80 26.86 80 60z" stroke="#000" stroke-width="2" fill="#fff"/><use xlink:href="#j" transform="matrix(1,0,0,1,80,425) translate(26.821987304687497 56.060625)"/><use xlink:href="#o" transform="matrix(1,0,0,1,80,425) translate(70.2904052734375 56.060625)"/><use xlink:href="#u" transform="matrix(1,0,0,1,80,425) translate(14.038120117187484 76.31537109375)"/><use xlink:href="#v" transform="matrix(1,0,0,1,80,425) translate(79.86195800781249 76.31537109375)"/><path d="M-178.03 578.23l262.1-69.82M-178 578.23l-3.9 1.03" stroke="#3a414a" stroke-width="2" fill="none"/><path d="M85.28 508.6l.25.43-1.23.32-.5-1.88.78-.2z" stroke="#3a414a" stroke-width=".05" fill="#3a414a"/><path d="M220.38 1332.5c0 33.14-35.8 60-80 60-44.18 0-80-26.86-80-60s35.82-60 80-60c44.2 0 80 26.86 80 60z" stroke="#000" stroke-width="2" fill="#fff"/><use xlink:href="#j" transform="matrix(1,0,0,1,60.384762832448814,1272.4990668871108) translate(22.22012207031249 56.060625)"/><use xlink:href="#w" transform="matrix(1,0,0,1,60.384762832448814,1272.4990668871108) translate(65.6885400390625 56.060625)"/><use xlink:href="#x" transform="matrix(1,0,0,1,60.384762832448814,1272.4990668871108) translate(48.31506835937499 76.31537109375)"/><path d="M85.47 1286.2l-1.27 1.5-263.08-226.7 1.27-1.46z" stroke="#3a414a" stroke-width=".05" fill="#3a414a"/><path d="M86.42 1287.04l-1.66 1.14-.58-.5 1.27-1.48z" fill="#3a414a"/><path stroke="#3a414a" stroke-width=".05" fill="#3a414a"/><path d="M-177.6 1059.55l-1.26 1.48-3.05-2.63 1.26-1.48z" stroke="#3a414a" stroke-width=".05" fill="#3a414a"/><path d="M260 1480c0 33.14-35.82 60-80 60s-80-26.86-80-60 35.82-60 80-60 80 26.86 80 60z" stroke="#000" stroke-width="2" fill="#fff"/><use xlink:href="#f" transform="matrix(1,0,0,1,100,1420) translate(16.363574218749996 56.060625)"/><use xlink:href="#y" transform="matrix(1,0,0,1,100,1420) translate(73.71932617187501 56.060625)"/><use xlink:href="#z" transform="matrix(1,0,0,1,100,1420) translate(53.697534179687494 76.31537109375)"/><path d="M100.6 1464.52l-278.63-65.3" stroke="#3a414a" stroke-width="2" fill="none"/><path d="M101.9 1463.83l-.6 1.68-.05.18-.9-.22.44-1.9z" stroke="#3a414a" stroke-width=".05" fill="#3a414a"/><path d="M-178 1399.23l-3.92-.92" stroke="#3a414a" stroke-width="2" fill="none"/><path d="M620 1510.5c0 33.14-35.82 60-80 60s-80-26.86-80-60 35.82-60 80-60 80 26.86 80 60z" stroke="#000" stroke-width="2" fill="#fff"/><use xlink:href="#A" transform="matrix(1,0,0,1,460,1450.5011859272672) translate(15.243759765624995 56.060625)"/><use xlink:href="#B" transform="matrix(1,0,0,1,460,1450.5011859272672) translate(79.84969726562501 56.060625)"/><use xlink:href="#C" transform="matrix(1,0,0,1,460,1450.5011859272672) translate(50.69773925781249 76.31537109375)"/><path d="M449.25 1501.83l-.16 1.95-3.92-.33.16-1.95zm-11.73-1l-.16 1.95-7.82-.66.16-1.94zm-15.64-1.3l-.16 1.93-5.57-.47v-1.97zm-125.13-10.62l-.16 1.96-7.83-.67.16-1.95zm-15.64-1.3l-.16 1.93-7.8-.66.15-1.94zm-15.63-1.34l-.17 1.95-3.9-.33.16-1.94z" stroke="#3a414a" stroke-width=".05" fill="#3a414a"/><path d="M459.47 1503.68l-19.63 9.22-.83-1.77 14.82-6.95-4.84-.4.16-1.95 4.84.4-13.42-9.34 1.1-1.6z" stroke="#3a414a" stroke-width=".05" fill="#3a414a"/><path d="M261.58 1485.93l-.16 1.95-1.1-.1.3-1.93z" fill="#3a414a"/><path stroke="#3a414a" stroke-width=".05" fill="#3a414a"/><use xlink:href="#m" transform="matrix(1,0,0,1,303.85416666666663,1484.4953846303004) translate(0.005000000000002558 17.22222222222222)"/><path d="M256.97 617.83c0 23.47-44.78 42.5-100 42.5-55.23 0-100-19.03-100-42.5s44.77-42.5 100-42.5c55.22 0 100 19.03 100 42.5z" stroke="#000" stroke-width="2" fill="#fff"/><use xlink:href="#j" transform="matrix(1,0,0,1,56.965952897586874,575.3333333333334) translate(31.463364257812493 48.42390625)"/><use xlink:href="#D" transform="matrix(1,0,0,1,56.965952897586874,575.3333333333334) translate(74.93178222656249 48.42390625)"/><path d="M-178 579l234.74 30.5M-177.98 579l-4-.5" stroke="#3a414a" stroke-width="2" fill="none"/><path d="M58.16 608.7l-.05.1-.48 1.08-.27.7-.76-.1.24-1.94zM211.4 1142.63l-3.1 2.48-1.22-1.52 3.1-2.47zm12.83-9.2l-3.6 2.4-2.88 2.1-1.15-1.56 2.9-2.12h.02v-.02l3.63-2.42zm13.4-8.45l-6.8 4.13-1-1.65 6.78-4.13zm13.9-7.47l-4.4 2.2-2.6 1.44-.95-1.7 2.64-1.46h.02v-.02l4.42-2.2zm14.36-6.68l-7.26 3.24-.8-1.78 7.25-3.24zm14.7-5.73l-3.53 1.23-3.86 1.54-.7-1.8 3.87-1.56h.02l3.56-1.25zm15.05-4.95l-7.2 2.2-.35.1-.65-1.83.37-.12h.02v-.02h.02l7.22-2.2zm15.27-4.2l-7.7 2-.48-1.9 7.7-1.98zm15.44-3.5l-7.76 1.67-.4-1.9 7.75-1.67zm15.58-2.66l-7.86 1.13-.28-1.93 7.86-1.14zm15.7-2.3l-7.84 1.15-.28-1.93 7.85-1.14zm15.73-2.28l-7.86 1.14-.27-1.92 7.86-1.15zm15.7-2.28l-7.85 1.14-.28-1.93 7.86-1.14zm15.72-2.28l-7.86 1.14-.28-1.93 7.85-1.14zm15.72-2.38l-3.77.64h-.02l-4.08.6-.28-1.93 4.06-.6 3.76-.64zm15.7-2.68l-.5.1h-.04l-7.34 1.25-.32-1.92 7.3-1.24.48-.1zm15.52-3.5l-3.84 1h-.04l-3.9.84-.4-1.9 3.87-.84 3.82-.98zm15.3-4.5l-2.04.72h-.02v.02h-.02l-5.52 1.68-.57-1.87 5.5-1.67 2.03-.7zm14.83-5.9l-4.37 1.96h-.02v.02h-.02l-2.93 1.17-.72-1.8 2.92-1.18 4.35-1.94zm14.04-7.63l-3.93 2.4h-.02v.02l-2.92 1.6-.95-1.7 2.9-1.6 3.92-2.4zm12.86-9.58l-1.7 1.47h-.02v.02H507l-3.43 2.73h-.02l-.02.02-1.05.76-1.14-1.56 1.03-.75 3.4-2.72 1.68-1.46zm9.83-12.75l-1.8 2.9-.02.02-2.58 3.74-1.6-1.1 2.55-3.7 1.8-2.88zm7.93-13.8l-3.85 6.94-1.7-.96 3.84-6.94zm6.97-14.38l-.9 2.1v.02h-.02l-2.5 5.1-1.75-.87 2.5-5.06.87-2.07zm4.24-9.86v.04h-.02v.02l-1.1 2.52-1.78-.77 1.08-2.5.9-2.45h2.1zm11-35.38l-.55 2.63h-.02v.04l-1.34 5.08-1.88-.5 1.32-5.06.54-2.6zm2.8-15.7l-.02.22v.02l-1.2 7.64-1.93-.3 1.18-7.62.03-.2zm.78-12.3v.04l-.1 4.25-1.94-.03.1-4.23-.08-3.67 1.96-.03zm-.9-14.58v.04l.3 2.86-1.95.2-.3-2.84-.72-5 1.93-.27zm-3.44-17.94v.04l1.18 5-1.9.45-1.16-5-.74-2.67 1.88-.52zm-4.38-14.56v.04l1.36 4.18-1.85.6-1.34-4.17-1.22-3.3 1.83-.7zm-6.85-17.33v.02h.02v.02l2.73 6.53-1.8.75-2.72-6.5-.36-.77 1.77-.83zm-4.62-9.87v.02h.02l.87 1.88-1.76.83-.87-1.85-2.7-5.2 1.72-.9zm-6.46-12.26l-1.7.97-3.95-6.88 1.7-.97zm-8.1-13.7l-1.64 1.03-4.23-6.7 1.64-1.05zm-8.7-13.33l-1.6 1.1-4.52-6.52 1.6-1.1zm-11.8-15.23v.02h.02v.02l2.17 2.42-1.45 1.3-2.16-2.4-3.27-3.33 1.38-1.36zm-10.6-10.25h.02v.02l1.5 1.4-1.33 1.42-1.48-1.4-4.46-3.82 1.27-1.48zm-10.55-9.02l-1.2 1.53-6.24-4.9 1.2-1.54zM460.8 770.3h.02v.02h.02l2.62 2.08-1.2 1.53-2.6-2.04-3.77-2.6 1.1-1.6zm-10.35-7.1l-1.1 1.6-6.55-4.5 1.1-1.6zm-13.1-9l-1.1 1.6-6.54-4.48 1.12-1.6zm-13.08-8.98l-1.1 1.6-6.55-4.5 1.1-1.6zm-13.1-9l-1.1 1.62-6.54-4.5 1.1-1.6zm-13.08-8.98l-1.1 1.6-6.56-4.5 1.1-1.6zm-13.1-9l-1.1 1.62-6.55-4.5 1.1-1.6zm-13.1-8.97l-1.1 1.6-6.54-4.5 1.1-1.6zm-13.08-9l-1.1 1.62-6.55-4.5 1.1-1.62zm-13.1-8.98l-1.1 1.6-6.54-4.5 1.1-1.6zm-13.08-9l-1.1 1.6-6.55-4.48 1.1-1.6zm-13.03-9.03l-1.13 1.58-6.44-4.64 1.14-1.57zm-12.87-9.3l-1.14 1.6-6.45-4.65 1.14-1.58zm-12.83-9.27l-1.2 1.53-6.24-4.9 1.2-1.55zm-12.42-9.83l-1.27 1.48-6-5.18 1.26-1.47zm-16.18-15.25l2.1 2.33 2.33 2.37-1.4 1.37-2.33-2.4h-.02v-.02l-2.14-2.37h-.02v-.02l-.9-1.1 1.5-1.23zM259.04 619l.07.34.1.4.12.4.15.48.2.52.24.58.23.46-1.77.83-.22-.46v-.04h-.02l-.26-.63v-.02l-.22-.57v-.02l-.02-.02-.16-.5v-.04l-.14-.47v-.02l-.1-.43h-.02v-.04l-.08-.4v-.02l-.05-.33 1.93-.28z" stroke="#3a414a" stroke-width=".05" fill="#3a414a"/><path d="M258.96 618.84l-1.02.02.03-1.02v-.42l-.05-.96-.1-.97-.1-.66 1.16-.03z" fill="#3a414a"/><path stroke="#3a414a" stroke-width=".05" fill="#3a414a"/><path d="M209.18 1131.3l-5.78 15.3 3.76-3.08 1.23 1.5-3.77 3.1 16.15-2.66.3 1.92-21.4 3.5 7.67-20.28z" stroke="#3a414a" stroke-width=".05" fill="#3a414a"/><use xlink:href="#E" transform="matrix(1,0,0,1,487.629624434187,969.0393882139944) translate(0.005000000000002558 17.22222222222222)"/><path d="M280 840.33h196l24 24v96H280z" stroke="#000" stroke-width="2" fill="#fff"/><path d="M476 841.3v23.03h23.05" stroke="#000" stroke-width="2" fill="#fff"/><g><use xlink:href="#F" transform="matrix(1,0,0,1,285,845.3333333333334) translate(0 22.80815972222222)"/><use xlink:href="#G" transform="matrix(1,0,0,1,285,845.3333333333334) translate(87.10069444444446 22.80815972222222)"/><use xlink:href="#H" transform="matrix(1,0,0,1,285,845.3333333333334) translate(0 48.620659722222214)"/><use xlink:href="#I" transform="matrix(1,0,0,1,285,845.3333333333334) translate(40.546875 48.620659722222214)"/><use xlink:href="#J" transform="matrix(1,0,0,1,285,845.3333333333334) translate(110.65104166666666 48.620659722222214)"/><use xlink:href="#K" transform="matrix(1,0,0,1,285,845.3333333333334) translate(145.52951388888889 48.620659722222214)"/><use xlink:href="#L" transform="matrix(1,0,0,1,285,845.3333333333334) translate(0 74.43315972222221)"/><use xlink:href="#M" transform="matrix(1,0,0,1,285,845.3333333333334) translate(21.302083333333336 74.43315972222221)"/><use xlink:href="#N" transform="matrix(1,0,0,1,285,845.3333333333334) translate(88.03819444444446 74.43315972222221)"/><use xlink:href="#O" transform="matrix(1,0,0,1,285,845.3333333333334) translate(139.56597222222223 74.43315972222221)"/><use xlink:href="#P" transform="matrix(1,0,0,1,285,845.3333333333334) translate(0 100.2456597222222)"/><use xlink:href="#Q" transform="matrix(1,0,0,1,285,845.3333333333334) translate(85.38194444444446 100.2456597222222)"/></g><path d="M245.9 1438.28l-.15.8-.15 1-.1 1-.07 1.04-1.94-.12.05-1.05v-.04l.1-1.03v-.02h.02v-.02l.15-1.05v-.04l.17-.83zm6.82-13.85l-.92 1.22-1.07 1.53-.9 1.44-.8 1.36-.54 1.04-1.74-.9.55-1.06h.02v-.04l.82-1.4v-.02h.02l.94-1.48v-.02h.02v-.02l1.1-1.56v-.04l.95-1.23zm11.1-11.15l-.16.14-2.95 2.54-2.44 2.3-.3.3-1.38-1.37.3-.33h.02v-.02h.02l2.47-2.32v-.02h.02l2.98-2.57h.02v-.02l.2-.14zm12.94-9.3l-5.02 3.34-1.57 1.14-1.15-1.58 1.6-1.15v-.02h.02l5.04-3.34zm13.76-8.02l-5.9 3.24-1.06.64-1-1.67 1.07-.65h.02v-.02h.02l5.9-3.24zm14.24-7.24l-7.18 3.55-.87-1.74 7.2-3.56zm14.55-6.6l-7.3 3.26-.8-1.8 7.32-3.23zm14.74-6.16l-7.32 2.88-.1.05-.78-1.8.1-.05h.04l7.35-2.9zm14.9-5.86l-7.45 2.93-.72-1.8 7.45-2.94zm14.94-5.68l-5.1 1.8-2.38.95-.72-1.82 2.4-.94h.02l5.13-1.8zm15.1-5.34l-7.55 2.67-.65-1.84 7.55-2.66zm15.1-5.35l-7.55 2.67-.65-1.83 7.55-2.68zm15.1-5.34l-7.55 2.66-.65-1.84 7.55-2.67zm15.1-5.36l-7.55 2.67-.65-1.83 7.55-2.67zm15.1-5.35l-7.56 2.67-.65-1.84 7.55-2.67zm15.1-5.35l-7.56 2.67-.65-1.84 7.55-2.67zm15.1-5.35l-7.56 2.68-.65-1.84 7.55-2.67zm15.1-5.34l-7.56 2.67-.65-1.84 7.55-2.68zm15.1-5.35l-7.56 2.68-.65-1.83 7.55-2.68zm14.96-5.85l-6.2 2.75h-.02v.02h-.04l-1.16.42-.65-1.84 1.12-.4 6.15-2.73zm14.47-7.04l-2.53 1.4v.02h-.04l-4.58 2.27-.86-1.76 4.55-2.25 2.52-1.4zm13.4-9.04l-2.07 1.76h-.02v.02l-1.05.82h-.02v.02l-1.96 1.42h-.02v.02h-.02l-1.27.85-1.08-1.63 1.26-.83 1.92-1.38 1.03-.8 2.06-1.75zm11.8-10.96l-4.3 4.27h-.02v.02l-1.45 1.3-1.32-1.42 1.44-1.3 4.28-4.26zm11-11.68l-5.43 5.88-1.43-1.33 5.43-5.88zm10.4-12.2l-5.17 6.07-1.5-1.27 5.17-6.07zm9.9-12.7l-4.93 6.33-1.54-1.2 4.93-6.32zm9.42-12.98l-4.66 6.5-1.6-1.13 4.68-6.5zm9.04-13.27l-4.4 6.7-1.62-1.07 4.4-6.7zm8.7-13.5l-1.47 2.44v.02h-.02v.02l-2.84 4.33-1.63-1.07 2.83-4.3 1.44-2.43zm8.2-13.76l-4.1 6.9-1.7-1 4.12-6.9zm7.78-14.03l-3.8 7.04-1.73-.9 3.82-7.06zm7.45-14.22l-2.2 4.5-.02.02-1.43 2.65-1.72-.92 1.43-2.64 2.18-4.47zm7-14.4l-3.5 7.2-1.75-.85 3.5-7.2zm6.5-14.68l-3.2 7.34-1.78-.77 3.2-7.34zm6.13-14.84l-2.9 7.47-1.8-.7 2.9-7.47zm5.72-15l-.76 2.25h-.02v.04l-2.05 5.25-1.82-.7 2.05-5.24.75-2.23zm5.17-15.16l-2.6 7.58-1.83-.63 2.57-7.58zm4.63-15.37l-2.26 7.68-1.88-.55 2.26-7.68zm4.16-15.5l-1.93 7.76-1.9-.47 1.95-7.78zm3.65-15.64l-1.2 5.88v.04l-.5 1.94-1.9-.47.5-1.92 1.2-5.87zm3.1-15.76l-.53 3.25v.04l-.95 4.6-1.9-.38.93-4.6.52-3.23zm2.52-15.86l-.14 1.2v.04l-1.1 6.72-1.92-.3 1.1-6.7.13-1.2zm1.9-15.9l-.95 7.95-1.94-.24.95-7.95zm1.25-16l-.62 7.98-1.94-.15.62-8zm.62-16.05l-.28 8-1.95-.08.3-8zm.03-8.06h-1.95l-.06-8h1.95zm-.36-16.05l-1.93.1-.4-8 1.95-.1zm-1.02-16.03l-1.94.18-.72-7.98 1.94-.18zm-2.3-20.9l.63 4.94-1.93.25-.63-4.95-.35-3 1.93-.23zm-1.3-10.95l-1.92.22-.94-7.95 1.94-.24zm-2.14-18.36l.28 2.45-1.93.24-.3-2.46-.58-5.52 1.94-.2zm-1.42-13.46l-1.94.2-.83-7.96 1.94-.2zm-1.67-15.93l-1.94.2-.83-7.96 1.94-.2zm-1.67-15.93l-1.94.2-.84-7.96 1.94-.2zm-1.68-15.93l-1.94.2-.83-7.95 1.94-.2zm-1.67-15.92l-1.94.2-.84-7.96 1.94-.2zm-2.36-22.46v.06l.7 6.47-1.95.2-.68-6.44-.23-1.44 1.93-.32zm-1.53-9.38l-1.92.3-1.3-7.9 1.93-.3zm-3-18.37v.02l.42 2.53-1.92.3-.4-2.5-1.1-5.3 1.9-.4zM663.83 734l-1.9.38-1.63-7.84 1.9-.4zm-3.55-15.67l-1.9.47-1.94-7.76 1.9-.48zm-4.08-15.53l-1.88.56-2.2-7.44h2.03zm-10.12-30.46l-1.82.7-2.9-7.46 1.8-.7zm-8.18-19.53v.04l2.06 4.65-1.8.78-2.02-4.63-1.28-2.62 1.75-.85zm-5.17-10.54v.02l.02.02.33.7-1.75.84-.33-.67-3.44-6.34 1.7-.93zm-10.7-18.77v.02h.02l3.23 5.4-1.68 1-3.2-5.38-.95-1.42 1.63-1.08zm-5.55-8.45v.02h.02v.02l.18.25-1.63 1.07-.16-.25-4.5-6.22 1.6-1.14zm-11.53-15.37v.02h.02v.02l2.13 2.7-1.54 1.2-2.1-2.68-2.96-3.46 1.48-1.27zm-12.24-13.72h.02v.02h.02l3.9 4.2-1.42 1.33-3.9-4.17-1.6-1.6 1.37-1.37zm-13.06-12.4l.02.02 5.67 5.16-1.3 1.44-5.66-5.14-.25-.2 1.25-1.5zm-6.92-5.78h.02v.02l.48.4-1.25 1.5-.45-.38-5.85-4.5 1.2-1.55zm-12.4-9.18l-1.14 1.6-6.54-4.62 1.12-1.6zm-13.1-9.22l-1.13 1.6-6.56-4.62 1.12-1.6zm-13.58-9.55h.02v.02l.45.3-1.1 1.6-.43-.3-6.27-4.02 1.06-1.64zm-13.02-8.37l-1.06 1.64-6.73-4.33 1.05-1.64zm-13.48-8.66l-1.05 1.64-6.75-4.33 1.06-1.63zm-13.47-8.66l-1.06 1.64-6.72-4.33 1.05-1.64zm-13.7-8.38l-.97 1.68-6.93-4.02.98-1.7zm-13.84-8.05l-.98 1.7-6.93-4.02.98-1.7zm-13.86-8.03l-.97 1.7-6.93-4.04.98-1.68zm-13.84-8.04l-.98 1.68-6.93-4 .98-1.7zm-13.86-8.05l-.97 1.7-6.93-4.03.98-1.7zm-13.85-8.04l-.98 1.7-6.92-4.04.98-1.68zm-13.85-8.05l-.98 1.68-6.93-4.02.98-1.7zM383 449.47l-.96 1.7-6.96-3.98.97-1.7zm-13.9-7.94l-.97 1.7-6.96-3.97.97-1.7zm-13.92-7.93l-.97 1.7-6.94-3.97.96-1.7zm-13.9-7.94l-.98 1.7-6.96-3.97.97-1.7zm-13.93-7.93l-.96 1.7-6.97-3.97.97-1.7zm-13.9-7.93l-.98 1.7-6.95-3.98.96-1.7zm-13.92-7.94l-.97 1.7-6.96-3.97.97-1.7zm-13.92-7.93l-.95 1.7-6.96-3.98.96-1.7zM271.7 386l-.97 1.7-6.95-3.98.96-1.7zm-13.8-8.04l-1.05 1.64-6.74-4.32 1.07-1.64zm-13.47-8.65l-1.06 1.65-6.74-4.32 1.06-1.65zm-13.37-8.74l-1.12 1.6-3.27-2.3 1.12-1.6z" stroke="#3a414a" stroke-width=".05" fill="#3a414a"/><path d="M245.43 1442.06l-.04 1.95-1.92-1.88v-.1z" fill="#3a414a"/><path stroke="#3a414a" stroke-width=".05" fill="#3a414a"/><path d="M240.37 355.03l-.17 1.94-16.3-1.44 3.98 2.8-1.12 1.6-3.98-2.8 6.9 14.83-1.77.82-9.13-19.66z" stroke="#3a414a" stroke-width=".05" fill="#3a414a"/><g><use xlink:href="#m" transform="matrix(1,0,0,1,593.5138974046577,674.4084475579305) translate(0.005000000000002558 17.22222222222222)"/></g><path d="M216.97 780.33c0 33.14-35.82 60-80 60-44.2 0-80-26.86-80-60 0-33.13 35.8-60 80-60 44.18 0 80 26.87 80 60z" stroke="#000" stroke-width="2" fill="#fff"/><g><use xlink:href="#j" transform="matrix(1,0,0,1,56.965952897586874,720.3333333333334) translate(26.821987304687497 56.060625)"/><use xlink:href="#o" transform="matrix(1,0,0,1,56.965952897586874,720.3333333333334) translate(70.2904052734375 56.060625)"/><use xlink:href="#R" transform="matrix(1,0,0,1,56.965952897586874,720.3333333333334) translate(12.043706054687485 76.31537109375)"/><use xlink:href="#S" transform="matrix(1,0,0,1,56.965952897586874,720.3333333333334) translate(86.67893066406249 76.31537109375)"/></g><path d="M72.8 741.76l-250.96-161.82" stroke="#3a414a" stroke-width="2" fill="none"/><path d="M74.38 741.63l-.86.76-.6.6-.68-.44 1.05-1.64z" stroke="#3a414a" stroke-width=".05" fill="#3a414a"/><path d="M-178.14 579.96l-3.38-2.18" stroke="#3a414a" stroke-width="2" fill="none"/><path d="M600 284.83c0 24.76-40.3 44.84-90 44.84s-90-20.08-90-44.84c0-24.76 40.3-44.83 90-44.83s90 20.07 90 44.83z" stroke="#000" stroke-width="2" fill="#fff"/><g><use xlink:href="#j" transform="matrix(1,0,0,1,420,240) translate(36.8219873046875 40.82625)"/><use xlink:href="#o" transform="matrix(1,0,0,1,420,240) translate(80.2904052734375 40.82625)"/><use xlink:href="#T" transform="matrix(1,0,0,1,420,240) translate(56.287958984374995 61.08099609375)"/></g><path d="M248.35 324.62l1.4-.03 2.6-.17m7.96-.52l7.96-.82m7.9-1.15l.22-.04 7.22-1.38.4-.1m7.76-1.88l5.43-1.5 2.23-.74m7.55-2.6l5.3-1.97 2.16-.9m7.37-3.05l7.4-3.07m7.37-3.05l7.37-3.07m7.38-3.06l1.46-.6 6.1-2m7.67-2.17l6.8-1.6 1-.2m7.84-1.4l6.24-.94 1.67-.16m7.95-.8l7.97-.5m8-.2l3.98-.1" stroke="#3a414a" stroke-width="2" stroke-linejoin="round" fill="none"/><path d="M257.5 334.44l-17.53-9.65 17.1-10.36m-17.1 10.35l8.5-.18" stroke="#3a414a" stroke-width="2" fill="none"/><path d="M419 284.82v.4l.03.6h-1.06v-1.96h1.06z" stroke="#3a414a" stroke-width=".05" fill="#3a414a"/><g><use xlink:href="#E" transform="matrix(1,0,0,1,280.2131328153238,266.91224346449985) translate(-6.614920893237887 17.22222222222222)"/></g><path d="M295.6 580c-4.3 0-7.8 3.5-7.8 7.8v14.4c0 4.3-3.5 7.8-7.8 7.8 4.3 0 7.8 3.5 7.8 7.8v14.4c0 4.3 3.5 7.8 7.8 7.8m168.8 0c4.3 0 7.8-3.5 7.8-7.8v-14.4c0-4.3 3.5-7.8 7.8-7.8-4.3 0-7.8-3.5-7.8-7.8v-14.4c0-4.3-3.5-7.8-7.8-7.8" stroke="#000" stroke-width="2" fill="none"/><g><use xlink:href="#U" transform="matrix(1,0,0,1,291.7,580) translate(4.098958333333329 23.560763888888893)"/><use xlink:href="#V" transform="matrix(1,0,0,1,291.7,580) translate(57.64930555555555 23.560763888888893)"/><use xlink:href="#W" transform="matrix(1,0,0,1,291.7,580) translate(93.46527777777777 23.560763888888893)"/><use xlink:href="#X" transform="matrix(1,0,0,1,291.7,580) translate(134.01215277777777 23.560763888888893)"/><use xlink:href="#Y" transform="matrix(1,0,0,1,291.7,580) translate(29.854166666666664 49.37326388888889)"/><use xlink:href="#Z" transform="matrix(1,0,0,1,291.7,580) translate(59.05555555555556 49.37326388888889)"/></g><defs><path d="M537 14c-226 0-379-139-379-422v-710h180v695c0 172 97 275 253 275 160 0 281-109 281-300v-670h181V0H879v-209C806-46 684 14 537 14" id="aa"/><path d="M577 24c-279 0-473-224-473-580 0-354 195-576 474-576 218 0 287 134 324 193h14v-551h180V0H922v-173h-20C865-111 790 24 577 24zm27-161c203 0 314-172 314-421 0-247-108-413-314-413-212 0-317 181-317 413 0 235 108 421 317 421" id="ab"/><g id="a"><use transform="matrix(0.013020833333333334,0,0,0.013020833333333334,0,0)" xlink:href="#aa"/><use transform="matrix(0.013020833333333334,0,0,0.013020833333333334,15.768229166666668,0)" xlink:href="#ab"/></g><path d="M657 26c-323 0-524-166-541-416h195c15 169 171 246 346 246 202 0 356-106 356-265 5-203-294-238-475-293-239-73-380-191-380-389 0-252 224-419 512-419 294 0 499 171 508 396H992c-17-145-151-228-328-228-193 0-321 102-321 242 0 156 175 211 284 241l149 41c160 44 422 134 422 412 0 244-197 432-541 432" id="ac"/><path d="M613 24c-304 0-509-231-509-576 0-350 205-580 509-580 216 0 392 114 453 309l-173 49c-33-115-133-197-280-197-223 0-326 196-326 419 0 220 103 415 326 415 150 0 252-85 285-206l172 49C1010-95 832 24 613 24" id="ad"/><path d="M613 24c-304 0-509-231-509-576 0-350 205-580 509-580 305 0 511 230 511 580 0 345-206 576-511 576zm0-161c226 0 329-195 329-415 0-222-103-419-329-419-223 0-326 196-326 419 0 220 103 415 326 415" id="ae"/><path d="M598-1118v154H368v674c0 100 37 144 132 144 23 0 62-6 92-12L629-6c-37 13-88 20-134 20-193 0-307-107-307-290v-688H20v-154h168v-266h180v266h230" id="af"/><path d="M180 0v-1490h901v168H370v510h643v168H370V0H180" id="ag"/><path d="M158 0v-1118h174v172h12c41-113 157-188 290-188 26 0 70 2 91 3v181c-11-2-60-10-108-10-161 0-279 109-279 260V0H158" id="ah"/><path d="M628 24c-324 0-524-230-524-574 0-343 198-582 503-582 237 0 487 146 487 559v75H286c9 234 145 362 343 362 132 0 231-58 273-172l174 48C1024-91 857 24 628 24zM287-650h624c-17-190-120-322-304-322-192 0-309 151-320 322" id="ai"/><g id="b"><use transform="matrix(0.013020833333333334,0,0,0.013020833333333334,0,0)" xlink:href="#ac"/><use transform="matrix(0.013020833333333334,0,0,0.013020833333333334,17.109375,0)" xlink:href="#ad"/><use transform="matrix(0.013020833333333334,0,0,0.013020833333333334,32.34375,0)" xlink:href="#ae"/><use transform="matrix(0.013020833333333334,0,0,0.013020833333333334,48.333333333333336,0)" xlink:href="#aa"/><use transform="matrix(0.013020833333333334,0,0,0.013020833333333334,64.1015625,0)" xlink:href="#af"/><use transform="matrix(0.013020833333333334,0,0,0.013020833333333334,72.82552083333333,0)" xlink:href="#ag"/><use transform="matrix(0.013020833333333334,0,0,0.013020833333333334,87.51302083333333,0)" xlink:href="#ae"/><use transform="matrix(0.013020833333333334,0,0,0.013020833333333334,103.50260416666666,0)" xlink:href="#ah"/><use transform="matrix(0.013020833333333334,0,0,0.013020833333333334,113.09895833333334,0)" xlink:href="#ad"/><use transform="matrix(0.013020833333333334,0,0,0.013020833333333334,128.33333333333331,0)" xlink:href="#ai"/></g><path d="M174-520v-126l944-476v196L406-588v12l712 338v194" id="aj"/><path d="M538 24C308 24 148-78 108-271l171-41c32 123 123 178 257 178 156 0 256-77 256-169 0-77-54-128-164-154l-186-44c-203-48-300-148-300-305 0-192 176-326 414-326 230 0 351 112 402 269l-163 42c-31-80-94-158-238-158-133 0-233 69-233 162 0 83 57 129 188 160l169 40c203 48 298 149 298 302 0 196-179 339-441 339" id="ak"/><path d="M140 405l46-156c120 36 205 19 263-150l32-93L54-1118h197c107 313 237 620 324 950 87-331 219-637 326-950h196L606 167c-68 178-176 259-334 259-64 0-113-12-132-21" id="al"/><path d="M158 0v-1118h175l1 205c55-151 181-225 313-225 147 0 245 90 285 228 53-141 190-228 352-228 194 0 352 125 352 384V0h-181v-749c0-161-105-225-225-225-151 0-243 103-243 244V0H807v-767c0-124-93-207-219-207-131 0-250 92-250 270V0H158" id="am"/><path d="M1181-520L237-44v-194l712-338v-12L237-926v-196l944 476v126" id="an"/><g id="c"><use transform="matrix(0.013020833333333334,0,0,0.013020833333333334,0,0)" xlink:href="#aj"/><use transform="matrix(0.013020833333333334,0,0,0.013020833333333334,17.643229166666668,0)" xlink:href="#aj"/><use transform="matrix(0.013020833333333334,0,0,0.013020833333333334,35.286458333333336,0)" xlink:href="#ak"/><use transform="matrix(0.013020833333333334,0,0,0.013020833333333334,49.36197916666667,0)" xlink:href="#al"/><use transform="matrix(0.013020833333333334,0,0,0.013020833333333334,64.34895833333334,0)" xlink:href="#ak"/><use transform="matrix(0.013020833333333334,0,0,0.013020833333333334,78.42447916666667,0)" xlink:href="#af"/><use transform="matrix(0.013020833333333334,0,0,0.013020833333333334,86.88802083333333,0)" xlink:href="#ai"/><use transform="matrix(0.013020833333333334,0,0,0.013020833333333334,102.43489583333333,0)" xlink:href="#am"/><use transform="matrix(0.013020833333333334,0,0,0.013020833333333334,125.79427083333334,0)" xlink:href="#an"/><use transform="matrix(0.013020833333333334,0,0,0.013020833333333334,143.4375,0)" xlink:href="#an"/></g><path d="M645 0H180v-1490h484c435 0 692 280 692 742 0 466-257 748-711 748zM370-168h263c363 0 539-218 539-580 0-358-176-574-521-574H370v1154" id="ao"/><path d="M158 0v-1118h180V0H158zm91-1301c-68 0-125-53-125-119s57-119 125-119c69 0 126 53 126 119s-57 119-126 119" id="ap"/><g id="d"><use transform="matrix(0.013020833333333334,0,0,0.013020833333333334,0,0)" xlink:href="#ao"/><use transform="matrix(0.013020833333333334,0,0,0.013020833333333334,19.244791666666668,0)" xlink:href="#ap"/><use transform="matrix(0.013020833333333334,0,0,0.013020833333333334,25.703125,0)" xlink:href="#ah"/><use transform="matrix(0.013020833333333334,0,0,0.013020833333333334,35.29947916666667,0)" xlink:href="#ai"/><use transform="matrix(0.013020833333333334,0,0,0.013020833333333334,50.84635416666667,0)" xlink:href="#ad"/><use transform="matrix(0.013020833333333334,0,0,0.013020833333333334,66.08072916666667,0)" xlink:href="#af"/><use transform="matrix(0.013020833333333334,0,0,0.013020833333333334,74.54427083333333,0)" xlink:href="#ae"/><use transform="matrix(0.013020833333333334,0,0,0.013020833333333334,90.53385416666666,0)" xlink:href="#ah"/></g><g id="e"><use transform="matrix(0.013020833333333334,0,0,0.013020833333333334,0,0)" xlink:href="#ac"/><use transform="matrix(0.013020833333333334,0,0,0.013020833333333334,17.109375,0)" xlink:href="#ad"/><use transform="matrix(0.013020833333333334,0,0,0.013020833333333334,32.34375,0)" xlink:href="#ae"/><use transform="matrix(0.013020833333333334,0,0,0.013020833333333334,48.333333333333336,0)" xlink:href="#aa"/><use transform="matrix(0.013020833333333334,0,0,0.013020833333333334,64.1015625,0)" xlink:href="#af"/></g><path d="M783 20c-382 0-661-292-661-764 0-473 279-766 661-766 302 0 548 182 601 489h-190c-42-204-217-313-411-313-268 0-476 208-476 590 0 381 209 588 476 588 195 0 369-110 411-313h190c-52 303-296 489-601 489" id="aq"/><path d="M471 26C259 26 90-98 90-318c0-256 228-303 435-329 202-27 287-16 287-108 0-139-79-219-234-219-161 0-248 86-283 164l-173-57c86-203 278-265 451-265 150 0 419 46 419 395V0H815v-152h-12C765-73 660 26 471 26zm31-159c199 0 310-134 310-271v-155c-30 35-226 55-295 64-131 17-246 59-246 186 0 116 97 176 231 176" id="ar"/><g id="f"><use transform="matrix(0.008173828125000001,0,0,0.008173828125000001,0,0)" xlink:href="#aq"/><use transform="matrix(0.008173828125000001,0,0,0.008173828125000001,12.228046875000002,0)" xlink:href="#ah"/><use transform="matrix(0.008173828125000001,0,0,0.008173828125000001,18.252158203125003,0)" xlink:href="#ai"/><use transform="matrix(0.008173828125000001,0,0,0.008173828125000001,28.175185546875007,0)" xlink:href="#ar"/><use transform="matrix(0.008173828125000001,0,0,0.008173828125000001,37.57508789062501,0)" xlink:href="#af"/><use transform="matrix(0.008173828125000001,0,0,0.008173828125000001,42.88807617187501,0)" xlink:href="#ai"/></g><use transform="matrix(0.008173828125000001,0,0,0.008173828125000001,0,0)" xlink:href="#ar" id="g"/><path d="M180 0v-1490h224l606 953c40 63 108 177 176 312-27-437-7-821-13-1265h190V0h-226C860-448 622-778 356-1262c27 476 11 792 15 1262H180" id="as"/><path d="M409 0L70-1118h191c89 329 165 560 243 925 75-353 154-601 240-925h192c85 325 161 564 235 922 77-354 157-598 244-922h191L1267 0h-179c-86-307-176-590-250-913C763-588 675-308 588 0H409" id="at"/><g id="h"><use transform="matrix(0.008173828125000001,0,0,0.008173828125000001,0,0)" xlink:href="#as"/><use transform="matrix(0.008173828125000001,0,0,0.008173828125000001,12.612216796875002,0)" xlink:href="#ai"/><use transform="matrix(0.008173828125000001,0,0,0.008173828125000001,22.0693359375,0)" xlink:href="#at"/></g><path d="M338-1490V0H158v-1490h180" id="au"/><path d="M611 442c-248 0-391-105-460-228l146-94c47 65 117 165 314 165 178 0 307-82 307-266v-224h-17C863-141 792-18 576-18c-268 0-472-195-472-546 0-346 197-568 476-568 216 0 288 133 326 193h17v-179h175V29c0 289-215 413-487 413zm-5-620c203 0 314-146 314-390 0-237-108-403-314-403-213 0-319 180-319 403 0 230 109 390 319 390" id="av"/><path d="M338-670V0H158v-1118h173l1 207c72-158 192-221 342-221 226 0 378 139 378 422V0H872v-695c0-172-96-275-252-275-161 0-282 109-282 300" id="aw"/><g id="i"><use transform="matrix(0.008173828125000001,0,0,0.008173828125000001,0,0)" xlink:href="#ao"/><use transform="matrix(0.008173828125000001,0,0,0.008173828125000001,12.08091796875,0)" xlink:href="#ai"/><use transform="matrix(0.008173828125000001,0,0,0.008173828125000001,21.84046875,0)" xlink:href="#au"/><use transform="matrix(0.008173828125000001,0,0,0.008173828125000001,25.8946875,0)" xlink:href="#ai"/><use transform="matrix(0.008173828125000001,0,0,0.008173828125000001,35.65423828125,0)" xlink:href="#av"/><use transform="matrix(0.008173828125000001,0,0,0.008173828125000001,45.92056640625,0)" xlink:href="#ar"/><use transform="matrix(0.008173828125000001,0,0,0.008173828125000001,55.32046875,0)" xlink:href="#af"/><use transform="matrix(0.008173828125000001,0,0,0.008173828125000001,60.796933593750005,0)" xlink:href="#ap"/><use transform="matrix(0.008173828125000001,0,0,0.008173828125000001,64.85115234375,0)" xlink:href="#ae"/><use transform="matrix(0.008173828125000001,0,0,0.008173828125000001,74.88861328125,0)" xlink:href="#aw"/></g><path d="M600 0L52-1490h200c166 485 304 806 458 1336 156-533 285-846 449-1336h202L819 0H600" id="ax"/><g id="j"><use transform="matrix(0.008173828125000001,0,0,0.008173828125000001,0,0)" xlink:href="#ax"/><use transform="matrix(0.008173828125000001,0,0,0.008173828125000001,11.549619140625001,0)" xlink:href="#ap"/><use transform="matrix(0.008173828125000001,0,0,0.008173828125000001,15.603837890625002,0)" xlink:href="#ai"/><use transform="matrix(0.008173828125000001,0,0,0.008173828125000001,25.060957031250002,0)" xlink:href="#at"/></g><path d="M52 0l541-1490h220L1361 0h-200l-149-416H398L254 0H52zm404-582h497c-103-290-145-390-251-756-108 377-145 460-246 756" id="ay"/><g id="k"><use transform="matrix(0.008173828125000001,0,0,0.008173828125000001,0,0)" xlink:href="#ay"/><use transform="matrix(0.008173828125000001,0,0,0.008173828125000001,11.549619140625001,0)" xlink:href="#au"/><use transform="matrix(0.008173828125000001,0,0,0.008173828125000001,15.603837890625002,0)" xlink:href="#au"/></g><g id="l"><use transform="matrix(0.008173828125000001,0,0,0.008173828125000001,0,0)" xlink:href="#ac"/><use transform="matrix(0.008173828125000001,0,0,0.008173828125000001,10.740410156250002,0)" xlink:href="#ad"/><use transform="matrix(0.008173828125000001,0,0,0.008173828125000001,20.3037890625,0)" xlink:href="#ae"/><use transform="matrix(0.008173828125000001,0,0,0.008173828125000001,30.341250000000002,0)" xlink:href="#aa"/><use transform="matrix(0.008173828125000001,0,0,0.008173828125000001,40.239755859375,0)" xlink:href="#af"/><use transform="matrix(0.008173828125000001,0,0,0.008173828125000001,45.552744140625,0)" xlink:href="#ak"/></g><path fill="#333" d="M166-471v-247l1019-454v289L492-601v13l693 282v287" id="az"/><path fill="#333" d="M128 0v-1118h300V0H128zm150-1264c-91 0-165-68-165-154 0-85 74-154 165-154 90 0 165 69 165 154 0 86-75 154-165 154" id="aA"/><path fill="#333" d="M428-647V0H128v-1118h283l4 231c63-156 176-245 348-245 232 0 384 159 384 421V0H847v-659c0-139-76-222-202-222-128 0-217 86-217 234" id="aB"/><path fill="#333" d="M628 22C291 22 81-210 81-554c0-346 210-578 547-578 265 0 455 142 497 372l-279 52c-25-116-99-188-215-188-160 0-244 139-244 341 0 200 84 341 244 341 116 0 193-74 217-195l279 51C1085-123 896 22 628 22" id="aC"/><path fill="#333" d="M428-1490V0H128v-1490h300" id="aD"/><path fill="#333" d="M513 14c-232 0-385-159-385-421v-711h300v659c0 139 76 222 202 222 127 0 217-86 217-234v-647h301V0H864l-4-232C797-74 683 14 513 14" id="aE"/><path fill="#333" d="M537 19C279 19 81-185 81-557c0-382 206-575 454-575 190 0 278 113 318 202h10v-560h300V0H868v-179h-15C812-89 719 19 537 19zm92-241c153 0 240-134 240-336 0-203-86-334-240-334-158 0-240 138-240 334 0 197 84 336 240 336" id="aF"/><path fill="#333" d="M633 22C291 22 81-200 81-553c0-345 210-579 537-579 292 0 525 185 525 567v84H378c7 183 109 277 260 277 105 0 184-46 216-132l272 51C1071-99 893 22 633 22zM380-669h474c-15-146-94-237-233-237-143 0-229 99-241 237" id="aG"/><path fill="#333" d="M1224-471L205-19v-287l694-281v-14L205-883v-289l1019 454v247" id="aH"/><g id="m"><use transform="matrix(0.008680555555555556,0,0,0.008680555555555556,0,0)" xlink:href="#az"/><use transform="matrix(0.008680555555555556,0,0,0.008680555555555556,12.065972222222223,0)" xlink:href="#az"/><use transform="matrix(0.008680555555555556,0,0,0.008680555555555556,24.131944444444446,0)" xlink:href="#aA"/><use transform="matrix(0.008680555555555556,0,0,0.008680555555555556,28.94965277777778,0)" xlink:href="#aB"/><use transform="matrix(0.008680555555555556,0,0,0.008680555555555556,40.017361111111114,0)" xlink:href="#aC"/><use transform="matrix(0.008680555555555556,0,0,0.008680555555555556,50.47743055555556,0)" xlink:href="#aD"/><use transform="matrix(0.008680555555555556,0,0,0.008680555555555556,55.29513888888889,0)" xlink:href="#aE"/><use transform="matrix(0.008680555555555556,0,0,0.008680555555555556,66.36284722222223,0)" xlink:href="#aF"/><use transform="matrix(0.008680555555555556,0,0,0.008680555555555556,77.56944444444446,0)" xlink:href="#aG"/><use transform="matrix(0.008680555555555556,0,0,0.008680555555555556,88.15972222222223,0)" xlink:href="#aH"/><use transform="matrix(0.008680555555555556,0,0,0.008680555555555556,100.22569444444447,0)" xlink:href="#aH"/></g><path d="M763 24c-353 0-583-224-583-531v-983h190v968c0 214 149 370 393 370 243 0 391-156 391-370v-968h190v983c0 307-230 531-581 531" id="aI"/><path d="M158 418v-1536h174v179h20c37-59 106-193 324-193 279 0 474 222 474 576 0 356-194 580-473 580-213 0-288-135-325-197h-14v591H158zm492-555c209 0 317-186 317-421 0-232-105-413-317-413-206 0-314 166-314 413 0 249 111 421 314 421" id="aJ"/><g id="n"><use transform="matrix(0.008173828125000001,0,0,0.008173828125000001,0,0)" xlink:href="#aI"/><use transform="matrix(0.008173828125000001,0,0,0.008173828125000001,12.456914062500001,0)" xlink:href="#aJ"/><use transform="matrix(0.008173828125000001,0,0,0.008173828125000001,22.70689453125,0)" xlink:href="#ab"/><use transform="matrix(0.008173828125000001,0,0,0.008173828125000001,32.956875000000004,0)" xlink:href="#ar"/><use transform="matrix(0.008173828125000001,0,0,0.008173828125000001,42.356777343750004,0)" xlink:href="#af"/><use transform="matrix(0.008173828125000001,0,0,0.008173828125000001,47.669765625000004,0)" xlink:href="#ai"/></g><path d="M180 0v-1490h510c348 0 508 209 508 474 0 266-160 477-507 477H370V0H180zm190-706h312c236 0 327-133 327-310 0-176-91-307-329-307H370v617" id="aK"/><path d="M232-923l-22-567h194l-22 567H232" id="aL"/><g id="o"><use transform="matrix(0.008173828125000001,0,0,0.008173828125000001,0,0)" xlink:href="#aK"/><use transform="matrix(0.008173828125000001,0,0,0.008173828125000001,10.691367187500001,0)" xlink:href="#au"/><use transform="matrix(0.008173828125000001,0,0,0.008173828125000001,14.745585937500001,0)" xlink:href="#ar"/><use transform="matrix(0.008173828125000001,0,0,0.008173828125000001,23.900273437500005,0)" xlink:href="#al"/><use transform="matrix(0.008173828125000001,0,0,0.008173828125000001,32.981396484375004,0)" xlink:href="#ai"/><use transform="matrix(0.008173828125000001,0,0,0.008173828125000001,42.740947265625,0)" xlink:href="#ah"/><use transform="matrix(0.008173828125000001,0,0,0.008173828125000001,49.04296875,0)" xlink:href="#aL"/><use transform="matrix(0.008173828125000001,0,0,0.008173828125000001,54.06169921875,0)" xlink:href="#ak"/></g><g id="p"><use transform="matrix(0.008173828125000001,0,0,0.008173828125000001,0,0)" xlink:href="#ac"/><use transform="matrix(0.008173828125000001,0,0,0.008173828125000001,10.740410156250002,0)" xlink:href="#af"/><use transform="matrix(0.008173828125000001,0,0,0.008173828125000001,16.298613281250002,0)" xlink:href="#ar"/><use transform="matrix(0.008173828125000001,0,0,0.008173828125000001,25.698515625000006,0)" xlink:href="#af"/><use transform="matrix(0.008173828125000001,0,0,0.008173828125000001,31.174980468750007,0)" xlink:href="#aa"/><use transform="matrix(0.008173828125000001,0,0,0.008173828125000001,41.07348632812501,0)" xlink:href="#ak"/></g><path d="M677 24c-213 0-288-135-325-197h-20V0H158v-1490h180v551h14c37-59 106-193 324-193 279 0 474 222 474 576 0 356-194 580-473 580zm-27-161c209 0 317-186 317-421 0-232-105-413-317-413-206 0-314 166-314 413 0 249 111 421 314 421" id="aM"/><g id="q"><use transform="matrix(0.013020833333333334,0,0,0.013020833333333334,0,0)" xlink:href="#aq"/><use transform="matrix(0.013020833333333334,0,0,0.013020833333333334,19.479166666666668,0)" xlink:href="#au"/><use transform="matrix(0.013020833333333334,0,0,0.013020833333333334,25.9375,0)" xlink:href="#aa"/><use transform="matrix(0.013020833333333334,0,0,0.013020833333333334,41.70572916666667,0)" xlink:href="#aM"/></g><path d="M180 0v-1490h908v168H370v486h669v168H370v500h727V0H180" id="aN"/><g id="r"><use transform="matrix(0.013020833333333334,0,0,0.013020833333333334,0,0)" xlink:href="#aN"/><use transform="matrix(0.013020833333333334,0,0,0.013020833333333334,16.028645833333336,0)" xlink:href="#am"/><use transform="matrix(0.013020833333333334,0,0,0.013020833333333334,39.388020833333336,0)" xlink:href="#aJ"/><use transform="matrix(0.013020833333333334,0,0,0.013020833333333334,55.716145833333336,0)" xlink:href="#au"/><use transform="matrix(0.013020833333333334,0,0,0.013020833333333334,62.17447916666667,0)" xlink:href="#ae"/><use transform="matrix(0.013020833333333334,0,0,0.013020833333333334,77.64322916666667,0)" xlink:href="#al"/><use transform="matrix(0.013020833333333334,0,0,0.013020833333333334,92.10937500000001,0)" xlink:href="#ai"/><use transform="matrix(0.013020833333333334,0,0,0.013020833333333334,107.65625,0)" xlink:href="#ai"/></g><g id="s"><use transform="matrix(0.008173828125000001,0,0,0.008173828125000001,0,0)" xlink:href="#aK"/><use transform="matrix(0.008173828125000001,0,0,0.008173828125000001,10.691367187500001,0)" xlink:href="#au"/><use transform="matrix(0.008173828125000001,0,0,0.008173828125000001,14.745585937500001,0)" xlink:href="#ar"/><use transform="matrix(0.008173828125000001,0,0,0.008173828125000001,23.900273437500005,0)" xlink:href="#al"/><use transform="matrix(0.008173828125000001,0,0,0.008173828125000001,32.981396484375004,0)" xlink:href="#ai"/><use transform="matrix(0.008173828125000001,0,0,0.008173828125000001,42.740947265625,0)" xlink:href="#ah"/><use transform="matrix(0.008173828125000001,0,0,0.008173828125000001,49.04296875,0)" xlink:href="#ak"/></g><path d="M180 0v-1490h190v1322h690V0H180" id="aO"/><g id="t"><use transform="matrix(0.008173828125000001,0,0,0.008173828125000001,0,0)" xlink:href="#aO"/><use transform="matrix(0.008173828125000001,0,0,0.008173828125000001,9.465292968750001,0)" xlink:href="#ap"/><use transform="matrix(0.008173828125000001,0,0,0.008173828125000001,13.519511718750001,0)" xlink:href="#ak"/><use transform="matrix(0.008173828125000001,0,0,0.008173828125000001,22.355419921875004,0)" xlink:href="#af"/></g><g id="u"><use transform="matrix(0.008173828125000001,0,0,0.008173828125000001,0,0)" xlink:href="#ac"/><use transform="matrix(0.008173828125000001,0,0,0.008173828125000001,10.740410156250002,0)" xlink:href="#ad"/><use transform="matrix(0.008173828125000001,0,0,0.008173828125000001,20.3037890625,0)" xlink:href="#ae"/><use transform="matrix(0.008173828125000001,0,0,0.008173828125000001,30.341250000000002,0)" xlink:href="#ah"/><use transform="matrix(0.008173828125000001,0,0,0.008173828125000001,36.904833984375,0)" xlink:href="#ap"/><use transform="matrix(0.008173828125000001,0,0,0.008173828125000001,40.95905273437501,0)" xlink:href="#aw"/><use transform="matrix(0.008173828125000001,0,0,0.008173828125000001,50.849384765625004,0)" xlink:href="#av"/></g><g id="v"><use transform="matrix(0.008173828125000001,0,0,0.008173828125000001,0,0)" xlink:href="#ay"/><use transform="matrix(0.008173828125000001,0,0,0.008173828125000001,11.549619140625001,0)" xlink:href="#aw"/><use transform="matrix(0.008173828125000001,0,0,0.008173828125000001,21.439951171875002,0)" xlink:href="#ar"/><use transform="matrix(0.008173828125000001,0,0,0.008173828125000001,30.839853515625002,0)" xlink:href="#au"/><use transform="matrix(0.008173828125000001,0,0,0.008173828125000001,34.975810546875,0)" xlink:href="#al"/><use transform="matrix(0.008173828125000001,0,0,0.008173828125000001,44.383886718750006,0)" xlink:href="#ak"/><use transform="matrix(0.008173828125000001,0,0,0.008173828125000001,53.21979492187501,0)" xlink:href="#ap"/><use transform="matrix(0.008173828125000001,0,0,0.008173828125000001,57.27401367187501,0)" xlink:href="#ak"/></g><path d="M180 0v-1490h528c311 0 458 177 458 395 0 191-114 278-244 313v14c139 9 302 137 302 371 0 225-148 397-499 397H180zm190-168h350c232 0 321-102 321-231 0-149-120-277-311-277H370v508zm0-668h328c160 0 286-101 286-255 0-129-87-231-280-231H370v486" id="aP"/><g id="w"><use transform="matrix(0.008173828125000001,0,0,0.008173828125000001,0,0)" xlink:href="#aP"/><use transform="matrix(0.008173828125000001,0,0,0.008173828125000001,10.952929687500001,0)" xlink:href="#ap"/><use transform="matrix(0.008173828125000001,0,0,0.008173828125000001,15.007148437500001,0)" xlink:href="#av"/><use transform="matrix(0.008173828125000001,0,0,0.008173828125000001,25.2734765625,0)" xlink:href="#aP"/><use transform="matrix(0.008173828125000001,0,0,0.008173828125000001,36.226406250000004,0)" xlink:href="#ae"/><use transform="matrix(0.008173828125000001,0,0,0.008173828125000001,46.427343750000006,0)" xlink:href="#ar"/><use transform="matrix(0.008173828125000001,0,0,0.008173828125000001,55.827246093750006,0)" xlink:href="#ah"/><use transform="matrix(0.008173828125000001,0,0,0.008173828125000001,61.85135742187501,0)" xlink:href="#ab"/></g><path d="M180 0v-1490h510c348 0 508 194 508 460 0 198-88 351-276 417L1256 0h-220L726-579c-117 2-238 0-356 1V0H180zm190-747h312c235 0 327-108 327-283 0-177-92-293-329-293H370v576" id="aQ"/><path d="M158 0v-1490h180v865h22l478-493h223L593-638 1096 0H865L456-523 338-412V0H158" id="aR"/><g id="x"><use transform="matrix(0.008173828125000001,0,0,0.008173828125000001,0,0)" xlink:href="#aQ"/><use transform="matrix(0.008173828125000001,0,0,0.008173828125000001,10.691367187500001,0)" xlink:href="#ar"/><use transform="matrix(0.008173828125000001,0,0,0.008173828125000001,20.091269531250003,0)" xlink:href="#aw"/><use transform="matrix(0.008173828125000001,0,0,0.008173828125000001,29.981601562500003,0)" xlink:href="#aR"/><use transform="matrix(0.008173828125000001,0,0,0.008173828125000001,39.16898437500001,0)" xlink:href="#ap"/><use transform="matrix(0.008173828125000001,0,0,0.008173828125000001,43.22320312500001,0)" xlink:href="#aw"/><use transform="matrix(0.008173828125000001,0,0,0.008173828125000001,53.11353515625001,0)" xlink:href="#av"/></g><g id="y"><use transform="matrix(0.008173828125000001,0,0,0.008173828125000001,0,0)" xlink:href="#ac"/><use transform="matrix(0.008173828125000001,0,0,0.008173828125000001,10.740410156250002,0)" xlink:href="#ad"/><use transform="matrix(0.008173828125000001,0,0,0.008173828125000001,20.3037890625,0)" xlink:href="#ae"/><use transform="matrix(0.008173828125000001,0,0,0.008173828125000001,30.341250000000002,0)" xlink:href="#aa"/><use transform="matrix(0.008173828125000001,0,0,0.008173828125000001,40.239755859375,0)" xlink:href="#af"/><use transform="matrix(0.008173828125000001,0,0,0.008173828125000001,45.716220703125,0)" xlink:href="#ap"/><use transform="matrix(0.008173828125000001,0,0,0.008173828125000001,49.77043945312501,0)" xlink:href="#aw"/><use transform="matrix(0.008173828125000001,0,0,0.008173828125000001,59.660771484375005,0)" xlink:href="#av"/></g><g id="z"><use transform="matrix(0.008173828125000001,0,0,0.008173828125000001,0,0)" xlink:href="#aQ"/><use transform="matrix(0.008173828125000001,0,0,0.008173828125000001,10.527890625000001,0)" xlink:href="#ai"/><use transform="matrix(0.008173828125000001,0,0,0.008173828125000001,20.287441406250004,0)" xlink:href="#aJ"/><use transform="matrix(0.008173828125000001,0,0,0.008173828125000001,30.537421875000007,0)" xlink:href="#ae"/><use transform="matrix(0.008173828125000001,0,0,0.008173828125000001,40.57488281250001,0)" xlink:href="#ah"/><use transform="matrix(0.008173828125000001,0,0,0.008173828125000001,47.13846679687501,0)" xlink:href="#af"/></g><path d="M481 0L54-1118h197c107 314 236 620 325 951 87-331 217-637 324-951h197L670 0H481" id="aS"/><g id="A"><use transform="matrix(0.008173828125000001,0,0,0.008173828125000001,0,0)" xlink:href="#aK"/><use transform="matrix(0.008173828125000001,0,0,0.008173828125000001,10.691367187500001,0)" xlink:href="#ah"/><use transform="matrix(0.008173828125000001,0,0,0.008173828125000001,16.715478515625,0)" xlink:href="#ae"/><use transform="matrix(0.008173828125000001,0,0,0.008173828125000001,26.425986328125003,0)" xlink:href="#aS"/><use transform="matrix(0.008173828125000001,0,0,0.008173828125000001,35.8340625,0)" xlink:href="#ap"/><use transform="matrix(0.008173828125000001,0,0,0.008173828125000001,39.888281250000006,0)" xlink:href="#ab"/><use transform="matrix(0.008173828125000001,0,0,0.008173828125000001,50.13826171875001,0)" xlink:href="#ai"/></g><g id="B"><use transform="matrix(0.008173828125000001,0,0,0.008173828125000001,0,0)" xlink:href="#ao"/><use transform="matrix(0.008173828125000001,0,0,0.008173828125000001,12.08091796875,0)" xlink:href="#ai"/><use transform="matrix(0.008173828125000001,0,0,0.008173828125000001,21.84046875,0)" xlink:href="#af"/><use transform="matrix(0.008173828125000001,0,0,0.008173828125000001,27.398671875,0)" xlink:href="#ar"/><use transform="matrix(0.008173828125000001,0,0,0.008173828125000001,36.798574218750005,0)" xlink:href="#ap"/><use transform="matrix(0.008173828125000001,0,0,0.008173828125000001,40.85279296875001,0)" xlink:href="#au"/><use transform="matrix(0.008173828125000001,0,0,0.008173828125000001,44.90701171875001,0)" xlink:href="#ai"/><use transform="matrix(0.008173828125000001,0,0,0.008173828125000001,54.66656250000001,0)" xlink:href="#ab"/></g><g id="C"><use transform="matrix(0.008173828125000001,0,0,0.008173828125000001,0,0)" xlink:href="#aQ"/><use transform="matrix(0.008173828125000001,0,0,0.008173828125000001,10.691367187500001,0)" xlink:href="#ar"/><use transform="matrix(0.008173828125000001,0,0,0.008173828125000001,20.091269531250003,0)" xlink:href="#af"/><use transform="matrix(0.008173828125000001,0,0,0.008173828125000001,25.567734375000004,0)" xlink:href="#ap"/><use transform="matrix(0.008173828125000001,0,0,0.008173828125000001,29.621953125000005,0)" xlink:href="#aw"/><use transform="matrix(0.008173828125000001,0,0,0.008173828125000001,39.51228515625,0)" xlink:href="#av"/><use transform="matrix(0.008173828125000001,0,0,0.008173828125000001,49.77861328125,0)" xlink:href="#ak"/></g><g id="D"><use transform="matrix(0.008173828125000001,0,0,0.008173828125000001,0,0)" xlink:href="#ao"/><use transform="matrix(0.008173828125000001,0,0,0.008173828125000001,12.08091796875,0)" xlink:href="#ai"/><use transform="matrix(0.008173828125000001,0,0,0.008173828125000001,21.84046875,0)" xlink:href="#au"/><use transform="matrix(0.008173828125000001,0,0,0.008173828125000001,25.8946875,0)" xlink:href="#ai"/><use transform="matrix(0.008173828125000001,0,0,0.008173828125000001,35.65423828125,0)" xlink:href="#av"/><use transform="matrix(0.008173828125000001,0,0,0.008173828125000001,45.92056640625,0)" xlink:href="#ar"/><use transform="matrix(0.008173828125000001,0,0,0.008173828125000001,55.32046875,0)" xlink:href="#af"/><use transform="matrix(0.008173828125000001,0,0,0.008173828125000001,60.796933593750005,0)" xlink:href="#ap"/><use transform="matrix(0.008173828125000001,0,0,0.008173828125000001,64.85115234375,0)" xlink:href="#ae"/><use transform="matrix(0.008173828125000001,0,0,0.008173828125000001,74.88861328125,0)" xlink:href="#aw"/><use transform="matrix(0.008173828125000001,0,0,0.008173828125000001,84.7789453125,0)" xlink:href="#ak"/></g><path fill="#333" d="M42 0l360-574-338-544h324c72 124 151 261 209 394 58-134 140-271 215-394h318L785-570 1146 0H824c-79-136-169-280-234-425C528-278 439-134 360 0H42" id="aT"/><path fill="#333" d="M683-1118v229H474v562c0 71 29 104 102 104 23 0 73-7 95-13l43 225C647 9 580 16 520 16 296 16 174-96 174-301v-588H20v-229h154v-266h300v266h209" id="aU"/><g id="E"><use transform="matrix(0.008680555555555556,0,0,0.008680555555555556,0,0)" xlink:href="#az"/><use transform="matrix(0.008680555555555556,0,0,0.008680555555555556,12.065972222222223,0)" xlink:href="#az"/><use transform="matrix(0.008680555555555556,0,0,0.008680555555555556,24.131944444444446,0)" xlink:href="#aG"/><use transform="matrix(0.008680555555555556,0,0,0.008680555555555556,34.36631944444444,0)" xlink:href="#aT"/><use transform="matrix(0.008680555555555556,0,0,0.008680555555555556,44.93055555555556,0)" xlink:href="#aU"/><use transform="matrix(0.008680555555555556,0,0,0.008680555555555556,51.26736111111111,0)" xlink:href="#aG"/><use transform="matrix(0.008680555555555556,0,0,0.008680555555555556,61.857638888888886,0)" xlink:href="#aB"/><use transform="matrix(0.008680555555555556,0,0,0.008680555555555556,72.92534722222221,0)" xlink:href="#aF"/><use transform="matrix(0.008680555555555556,0,0,0.008680555555555556,84.13194444444444,0)" xlink:href="#aH"/><use transform="matrix(0.008680555555555556,0,0,0.008680555555555556,96.19791666666667,0)" xlink:href="#aH"/></g><path d="M65 0l393-574-370-544h210c88 136 192 297 267 435 67-142 176-302 264-435h206L661-564 1053 0H844c-94-144-206-310-287-458C484-308 366-142 273 0H65" id="aV"/><g id="F"><use transform="matrix(0.008680555555555556,0,0,0.008680555555555556,0,0)" xlink:href="#aN"/><use transform="matrix(0.008680555555555556,0,0,0.008680555555555556,10.68576388888889,0)" xlink:href="#aV"/><use transform="matrix(0.008680555555555556,0,0,0.008680555555555556,20.73784722222222,0)" xlink:href="#af"/><use transform="matrix(0.008680555555555556,0,0,0.008680555555555556,26.380208333333332,0)" xlink:href="#ai"/><use transform="matrix(0.008680555555555556,0,0,0.008680555555555556,36.74479166666666,0)" xlink:href="#aw"/><use transform="matrix(0.008680555555555556,0,0,0.008680555555555556,47.248263888888886,0)" xlink:href="#ak"/><use transform="matrix(0.008680555555555556,0,0,0.008680555555555556,56.631944444444436,0)" xlink:href="#ap"/><use transform="matrix(0.008680555555555556,0,0,0.008680555555555556,60.9375,0)" xlink:href="#ae"/><use transform="matrix(0.008680555555555556,0,0,0.008680555555555556,71.59722222222223,0)" xlink:href="#aw"/></g><path d="M295 13c-75 0-135-60-135-135s60-135 135-135 135 60 135 135S370 13 295 13zm0-809c-75 0-135-60-135-135s60-135 135-135 135 60 135 135-60 135-135 135" id="aW"/><g id="G"><use transform="matrix(0.008680555555555556,0,0,0.008680555555555556,0,0)" xlink:href="#aJ"/><use transform="matrix(0.008680555555555556,0,0,0.008680555555555556,10.885416666666668,0)" xlink:href="#ae"/><use transform="matrix(0.008680555555555556,0,0,0.008680555555555556,21.545138888888893,0)" xlink:href="#ap"/><use transform="matrix(0.008680555555555556,0,0,0.008680555555555556,25.85069444444445,0)" xlink:href="#aw"/><use transform="matrix(0.008680555555555556,0,0,0.008680555555555556,36.35416666666667,0)" xlink:href="#af"/><use transform="matrix(0.008680555555555556,0,0,0.008680555555555556,42.17013888888889,0)" xlink:href="#aW"/></g><g id="H"><use transform="matrix(0.008680555555555556,0,0,0.008680555555555556,0,0)" xlink:href="#ae"/><use transform="matrix(0.008680555555555556,0,0,0.008680555555555556,10.659722222222223,0)" xlink:href="#aw"/><use transform="matrix(0.008680555555555556,0,0,0.008680555555555556,21.163194444444446,0)" xlink:href="#au"/><use transform="matrix(0.008680555555555556,0,0,0.008680555555555556,25.555555555555557,0)" xlink:href="#al"/></g><g id="I"><use transform="matrix(0.008680555555555556,0,0,0.008680555555555556,0,0)" xlink:href="#ab"/><use transform="matrix(0.008680555555555556,0,0,0.008680555555555556,10.885416666666668,0)" xlink:href="#ap"/><use transform="matrix(0.008680555555555556,0,0,0.008680555555555556,15.190972222222223,0)" xlink:href="#ah"/><use transform="matrix(0.008680555555555556,0,0,0.008680555555555556,21.588541666666668,0)" xlink:href="#ai"/><use transform="matrix(0.008680555555555556,0,0,0.008680555555555556,31.953125,0)" xlink:href="#ad"/><use transform="matrix(0.008680555555555556,0,0,0.008680555555555556,42.109375,0)" xlink:href="#af"/><use transform="matrix(0.008680555555555556,0,0,0.008680555555555556,47.75173611111111,0)" xlink:href="#ae"/><use transform="matrix(0.008680555555555556,0,0,0.008680555555555556,58.41145833333333,0)" xlink:href="#ah"/></g><path d="M338-670V0H158v-1490h180v566c73-149 190-208 336-208 226 0 379 139 379 422V0H872v-695c0-172-96-275-252-275-161 0-282 109-282 300" id="aX"/><g id="J"><use transform="matrix(0.008680555555555556,0,0,0.008680555555555556,0,0)" xlink:href="#aX"/><use transform="matrix(0.008680555555555556,0,0,0.008680555555555556,10.512152777777779,0)" xlink:href="#ar"/><use transform="matrix(0.008680555555555556,0,0,0.008680555555555556,20.494791666666668,0)" xlink:href="#ak"/></g><g id="K"><use transform="matrix(0.008680555555555556,0,0,0.008680555555555556,0,0)" xlink:href="#ae"/><use transform="matrix(0.008680555555555556,0,0,0.008680555555555556,10.659722222222223,0)" xlink:href="#aJ"/><use transform="matrix(0.008680555555555556,0,0,0.008680555555555556,21.545138888888893,0)" xlink:href="#af"/><use transform="matrix(0.008680555555555556,0,0,0.008680555555555556,27.36111111111111,0)" xlink:href="#ap"/><use transform="matrix(0.008680555555555556,0,0,0.008680555555555556,31.66666666666667,0)" xlink:href="#ae"/><use transform="matrix(0.008680555555555556,0,0,0.008680555555555556,42.32638888888889,0)" xlink:href="#aw"/></g><g id="L"><use transform="matrix(0.008680555555555556,0,0,0.008680555555555556,0,0)" xlink:href="#af"/><use transform="matrix(0.008680555555555556,0,0,0.008680555555555556,5.642361111111112,0)" xlink:href="#ae"/></g><g id="M"><use transform="matrix(0.008680555555555556,0,0,0.008680555555555556,0,0)" xlink:href="#ad"/><use transform="matrix(0.008680555555555556,0,0,0.008680555555555556,10.15625,0)" xlink:href="#aX"/><use transform="matrix(0.008680555555555556,0,0,0.008680555555555556,20.66840277777778,0)" xlink:href="#ae"/><use transform="matrix(0.008680555555555556,0,0,0.008680555555555556,31.328125,0)" xlink:href="#ae"/><use transform="matrix(0.008680555555555556,0,0,0.008680555555555556,41.98784722222222,0)" xlink:href="#ak"/><use transform="matrix(0.008680555555555556,0,0,0.008680555555555556,51.37152777777778,0)" xlink:href="#ai"/></g><g id="N"><use transform="matrix(0.008680555555555556,0,0,0.008680555555555556,0,0)" xlink:href="#ak"/><use transform="matrix(0.008680555555555556,0,0,0.008680555555555556,9.383680555555555,0)" xlink:href="#ad"/><use transform="matrix(0.008680555555555556,0,0,0.008680555555555556,19.539930555555557,0)" xlink:href="#ae"/><use transform="matrix(0.008680555555555556,0,0,0.008680555555555556,30.19965277777778,0)" xlink:href="#aa"/><use transform="matrix(0.008680555555555556,0,0,0.008680555555555556,40.71180555555556,0)" xlink:href="#af"/></g><path d="M678-1118v154H420V0H240v-964H20v-154h220v-149c0-194 155-293 318-293 85 0 141 18 168 30l-50 154c-19-6-47-17-97-17-111 0-159 58-159 166v109h258" id="aY"/><g id="O"><use transform="matrix(0.008680555555555556,0,0,0.008680555555555556,0,0)" xlink:href="#aY"/><use transform="matrix(0.008680555555555556,0,0,0.008680555555555556,6.579861111111112,0)" xlink:href="#ah"/><use transform="matrix(0.008680555555555556,0,0,0.008680555555555556,12.977430555555559,0)" xlink:href="#ae"/><use transform="matrix(0.008680555555555556,0,0,0.008680555555555556,23.63715277777778,0)" xlink:href="#am"/></g><g id="P"><use transform="matrix(0.008680555555555556,0,0,0.008680555555555556,0,0)" xlink:href="#ab"/><use transform="matrix(0.008680555555555556,0,0,0.008680555555555556,10.885416666666668,0)" xlink:href="#ap"/><use transform="matrix(0.008680555555555556,0,0,0.008680555555555556,15.190972222222223,0)" xlink:href="#ak"/><use transform="matrix(0.008680555555555556,0,0,0.008680555555555556,24.57465277777778,0)" xlink:href="#aJ"/><use transform="matrix(0.008680555555555556,0,0,0.008680555555555556,35.46006944444444,0)" xlink:href="#au"/><use transform="matrix(0.008680555555555556,0,0,0.008680555555555556,39.765625,0)" xlink:href="#ar"/><use transform="matrix(0.008680555555555556,0,0,0.008680555555555556,49.487847222222236,0)" xlink:href="#al"/><use transform="matrix(0.008680555555555556,0,0,0.008680555555555556,59.13194444444445,0)" xlink:href="#ai"/><use transform="matrix(0.008680555555555556,0,0,0.008680555555555556,69.49652777777779,0)" xlink:href="#ab"/></g><g id="Q"><use transform="matrix(0.008680555555555556,0,0,0.008680555555555556,0,0)" xlink:href="#au"/><use transform="matrix(0.008680555555555556,0,0,0.008680555555555556,4.305555555555555,0)" xlink:href="#ap"/><use transform="matrix(0.008680555555555556,0,0,0.008680555555555556,8.61111111111111,0)" xlink:href="#ak"/><use transform="matrix(0.008680555555555556,0,0,0.008680555555555556,17.994791666666664,0)" xlink:href="#af"/></g><g id="R"><use transform="matrix(0.008173828125000001,0,0,0.008173828125000001,0,0)" xlink:href="#ac"/><use transform="matrix(0.008173828125000001,0,0,0.008173828125000001,10.740410156250002,0)" xlink:href="#ad"/><use transform="matrix(0.008173828125000001,0,0,0.008173828125000001,20.3037890625,0)" xlink:href="#ae"/><use transform="matrix(0.008173828125000001,0,0,0.008173828125000001,30.341250000000002,0)" xlink:href="#aa"/><use transform="matrix(0.008173828125000001,0,0,0.008173828125000001,40.239755859375,0)" xlink:href="#af"/><use transform="matrix(0.008173828125000001,0,0,0.008173828125000001,45.716220703125,0)" xlink:href="#ap"/><use transform="matrix(0.008173828125000001,0,0,0.008173828125000001,49.77043945312501,0)" xlink:href="#aw"/><use transform="matrix(0.008173828125000001,0,0,0.008173828125000001,59.660771484375005,0)" xlink:href="#av"/></g><g id="S"><use transform="matrix(0.008173828125000001,0,0,0.008173828125000001,0,0)" xlink:href="#aQ"/><use transform="matrix(0.008173828125000001,0,0,0.008173828125000001,10.527890625000001,0)" xlink:href="#ai"/><use transform="matrix(0.008173828125000001,0,0,0.008173828125000001,20.287441406250004,0)" xlink:href="#aJ"/><use transform="matrix(0.008173828125000001,0,0,0.008173828125000001,30.537421875000007,0)" xlink:href="#ae"/><use transform="matrix(0.008173828125000001,0,0,0.008173828125000001,40.57488281250001,0)" xlink:href="#ah"/><use transform="matrix(0.008173828125000001,0,0,0.008173828125000001,47.13846679687501,0)" xlink:href="#af"/><use transform="matrix(0.008173828125000001,0,0,0.008173828125000001,52.45145507812501,0)" xlink:href="#ak"/></g><g id="T"><use transform="matrix(0.008173828125000001,0,0,0.008173828125000001,0,0)" xlink:href="#am"/><use transform="matrix(0.008173828125000001,0,0,0.008173828125000001,14.663847656250002,0)" xlink:href="#ar"/><use transform="matrix(0.008173828125000001,0,0,0.008173828125000001,24.063750000000006,0)" xlink:href="#af"/><use transform="matrix(0.008173828125000001,0,0,0.008173828125000001,29.376738281250006,0)" xlink:href="#ad"/><use transform="matrix(0.008173828125000001,0,0,0.008173828125000001,38.94011718750001,0)" xlink:href="#aX"/><use transform="matrix(0.008173828125000001,0,0,0.008173828125000001,48.83862304687501,0)" xlink:href="#ai"/><use transform="matrix(0.008173828125000001,0,0,0.008173828125000001,58.598173828125006,0)" xlink:href="#ak"/></g><g id="U"><use transform="matrix(0.008680555555555556,0,0,0.008680555555555556,0,0)" xlink:href="#ac"/><use transform="matrix(0.008680555555555556,0,0,0.008680555555555556,11.40625,0)" xlink:href="#ad"/><use transform="matrix(0.008680555555555556,0,0,0.008680555555555556,21.5625,0)" xlink:href="#ae"/><use transform="matrix(0.008680555555555556,0,0,0.008680555555555556,32.22222222222222,0)" xlink:href="#aa"/><use transform="matrix(0.008680555555555556,0,0,0.008680555555555556,42.734375,0)" xlink:href="#af"/></g><g id="V"><use transform="matrix(0.008680555555555556,0,0,0.008680555555555556,0,0)" xlink:href="#ad"/><use transform="matrix(0.008680555555555556,0,0,0.008680555555555556,10.32986111111111,0)" xlink:href="#ar"/><use transform="matrix(0.008680555555555556,0,0,0.008680555555555556,20.3125,0)" xlink:href="#aw"/></g><g id="W"><use transform="matrix(0.008680555555555556,0,0,0.008680555555555556,0,0)" xlink:href="#ae"/><use transform="matrix(0.008680555555555556,0,0,0.008680555555555556,10.659722222222223,0)" xlink:href="#aw"/><use transform="matrix(0.008680555555555556,0,0,0.008680555555555556,21.163194444444446,0)" xlink:href="#au"/><use transform="matrix(0.008680555555555556,0,0,0.008680555555555556,25.555555555555557,0)" xlink:href="#al"/></g><g id="X"><use transform="matrix(0.008680555555555556,0,0,0.008680555555555556,0,0)" xlink:href="#aS"/><use transform="matrix(0.008680555555555556,0,0,0.008680555555555556,9.991319444444445,0)" xlink:href="#ap"/><use transform="matrix(0.008680555555555556,0,0,0.008680555555555556,14.296875,0)" xlink:href="#ai"/><use transform="matrix(0.008680555555555556,0,0,0.008680555555555556,24.34027777777778,0)" xlink:href="#at"/></g><g id="Y"><use transform="matrix(0.008680555555555556,0,0,0.008680555555555556,0,0)" xlink:href="#aX"/><use transform="matrix(0.008680555555555556,0,0,0.008680555555555556,10.512152777777779,0)" xlink:href="#ap"/><use transform="matrix(0.008680555555555556,0,0,0.008680555555555556,14.817708333333334,0)" xlink:href="#ak"/></g><g id="Z"><use transform="matrix(0.008680555555555556,0,0,0.008680555555555556,0,0)" xlink:href="#ab"/><use transform="matrix(0.008680555555555556,0,0,0.008680555555555556,10.885416666666668,0)" xlink:href="#ai"/><use transform="matrix(0.008680555555555556,0,0,0.008680555555555556,21.25,0)" xlink:href="#au"/><use transform="matrix(0.008680555555555556,0,0,0.008680555555555556,25.555555555555557,0)" xlink:href="#ai"/><use transform="matrix(0.008680555555555556,0,0,0.008680555555555556,35.92013888888889,0)" xlink:href="#av"/><use transform="matrix(0.008680555555555556,0,0,0.008680555555555556,46.82291666666667,0)" xlink:href="#ar"/><use transform="matrix(0.008680555555555556,0,0,0.008680555555555556,56.80555555555556,0)" xlink:href="#af"/><use transform="matrix(0.008680555555555556,0,0,0.008680555555555556,62.62152777777778,0)" xlink:href="#ap"/><use transform="matrix(0.008680555555555556,0,0,0.008680555555555556,66.92708333333333,0)" xlink:href="#ae"/><use transform="matrix(0.008680555555555556,0,0,0.008680555555555556,77.58680555555556,0)" xlink:href="#aw"/></g></defs></g></svg>