<svg xmlns="http://www.w3.org/2000/svg" xmlns:xlink="http://www.w3.org/1999/xlink" xmlns:lucid="lucid" width="1908" height="1595"><g transform="translate(3561 -1339)" lucid:page-tab-id="v60UW-nTQo4b"><path d="M-4000 500h6000v4000h-6000z" fill="#fff"/><path d="M-3520 1386a6 6 0 0 1 6-6h291.33a6 6 0 0 1 6 6v8a14.48 14.48 0 0 1-4.24 10.24l-1.52 1.52a14.48 14.48 0 0 1-10.25 4.24H-3514a6 6 0 0 1-6-6z" fill="#fff"/><path d="M-3216.67 1380v20l-10 10H-3520" stroke="#000" stroke-width="2" fill="none"/><path d="M-3520 1386a6 6 0 0 1 6-6h1828a6 6 0 0 1 6 6v1488a6 6 0 0 1-6 6h-1828a6 6 0 0 1-6-6z" stroke="#000" stroke-width="2" fill="none"/><use xlink:href="#a" transform="matrix(1,0,0,1,-3512,1380) translate(0 23.08376736111111)"/><use xlink:href="#b" transform="matrix(1,0,0,1,-3512,1380) translate(32.33506944444444 23.08376736111111)"/><use xlink:href="#c" transform="matrix(1,0,0,1,-3512,1380) translate(81.13064236111111 23.08376736111111)"/><use xlink:href="#d" transform="matrix(1,0,0,1,-3512,1380) translate(173.55685763888889 23.08376736111111)"/><path d="M-2659 1381v1498" stroke="#000" stroke-width="2" stroke-linecap="round" fill="none"/><path d="M-2898 1610h606.6" stroke="#3a414a" stroke-width="2" fill="none"/><path d="M-2897.97 1610.97h-1.14l.1-.92-.03-1.02h1.06z" stroke="#3a414a" stroke-width=".05" fill="#3a414a"/><path d="M-2300.32 1600l17.32 10-17.32 10m17.32-10h-8.5" stroke="#3a414a" stroke-width="2" fill="none"/><path d="M-3156 1840c-24.3 0-44 19.7-44 44v132c0 24.3 19.7 44 44 44h152c24.3 0 44-19.7 44-44v-132c0-24.3-19.7-44-44-44z" stroke="#000" stroke-width="2" fill="#fff"/><use xlink:href="#e" transform="matrix(1,0,0,1,-3192,1848) translate(68.20442708333333 34.263020833333336)"/><use xlink:href="#f" transform="matrix(1,0,0,1,-3192,1848) translate(77.81380208333333 72.98177083333334)"/><use xlink:href="#g" transform="matrix(1,0,0,1,-3192,1848) translate(30.450520833333314 111.70052083333334)"/><use xlink:href="#h" transform="matrix(1,0,0,1,-3192,1848) translate(122.52083333333333 111.70052083333334)"/><use xlink:href="#i" transform="matrix(1,0,0,1,-3192,1848) translate(46.8828125 150.41927083333334)"/><use xlink:href="#j" transform="matrix(1,0,0,1,-3192,1848) translate(6.778645833333314 189.13802083333334)"/><use xlink:href="#k" transform="matrix(1,0,0,1,-3192,1848) translate(110.73697916666666 189.13802083333334)"/><path d="M-2044.93 2173.42a8.64 8.64 0 0 1 9.86 0l170.14 118.16a4.17 4.17 0 0 1 0 6.84l-170.14 118.16a8.64 8.64 0 0 1-9.86 0l-170.14-118.16a4.17 4.17 0 0 1 0-6.84z" stroke="#000" stroke-width="2" fill="#fff"/><use xlink:href="#l" transform="matrix(1,0,0,1,-2215,2175) translate(84.73156250000001 87.70833333333334)"/><use xlink:href="#m" transform="matrix(1,0,0,1,-2215,2175) translate(164.53625000000002 87.70833333333334)"/><use xlink:href="#n" transform="matrix(1,0,0,1,-2215,2175) translate(194.24979166666668 87.70833333333334)"/><use xlink:href="#o" transform="matrix(1,0,0,1,-2215,2175) translate(146.1378125 126.42708333333334)"/><use xlink:href="#p" transform="matrix(1,0,0,1,-2215,2175) translate(69.10005208333332 165.14583333333334)"/><use xlink:href="#q" transform="matrix(1,0,0,1,-2215,2175) translate(160.79276041666668 165.14583333333334)"/><path d="M-2958 1956h37.74a1.26 1.26 0 0 1 1.26 1.26 1.26 1.26 0 0 0 1.26 1.26H-2226a6 6 0 0 1 6 6v86.57" stroke="#3a414a" stroke-width="2" fill="none"/><path d="M-2957.97 1956.97h-1.03v-1.94h1.03z" stroke="#3a414a" stroke-width=".05" fill="#3a414a"/><path d="M-2210 2042.16l-10 17.32-10-17.32m10 17.32v-8.5" stroke="#3a414a" stroke-width="2" fill="none"/><path d="M-2520.16 2400c-22 0-39.84 17.84-39.84 39.84v119.5c0 22.02 17.84 39.85 39.84 39.85h300.32c22 0 39.84-17.84 39.84-39.85v-119.5c0-22-17.84-39.85-39.84-39.85z" stroke="#000" stroke-width="2" fill="#fff"/><use xlink:href="#r" transform="matrix(1,0,0,1,-2552,2408) translate(104.67578125 43.622395833333336)"/><use xlink:href="#s" transform="matrix(1,0,0,1,-2552,2408) translate(218.38671875 43.622395833333336)"/><use xlink:href="#t" transform="matrix(1,0,0,1,-2552,2408) translate(0.02734375 82.34114583333334)"/><use xlink:href="#u" transform="matrix(1,0,0,1,-2552,2408) translate(86.82421875000001 82.34114583333334)"/><use xlink:href="#v" transform="matrix(1,0,0,1,-2552,2408) translate(156.25130208333337 82.34114583333334)"/><use xlink:href="#m" transform="matrix(1,0,0,1,-2552,2408) translate(195.62630208333337 82.34114583333334)"/><use xlink:href="#w" transform="matrix(1,0,0,1,-2552,2408) translate(225.33984375000003 82.34114583333334)"/><use xlink:href="#x" transform="matrix(1,0,0,1,-2552,2408) translate(283.62109375 82.34114583333334)"/><use xlink:href="#y" transform="matrix(1,0,0,1,-2552,2408) translate(21.6484375 121.05989583333334)"/><use xlink:href="#u" transform="matrix(1,0,0,1,-2552,2408) translate(116.921875 121.05989583333334)"/><use xlink:href="#v" transform="matrix(1,0,0,1,-2552,2408) translate(186.34895833333334 121.05989583333334)"/><use xlink:href="#m" transform="matrix(1,0,0,1,-2552,2408) translate(225.72395833333334 121.05989583333334)"/><use xlink:href="#z" transform="matrix(1,0,0,1,-2552,2408) translate(255.4375 121.05989583333334)"/><use xlink:href="#A" transform="matrix(1,0,0,1,-2552,2408) translate(141.82421875 159.77864583333334)"/><path d="M-2369.03 2388.6h-1.94v-77.44h1.94zm150.16-92.63h-124.53v-1.94h124.53z" stroke="#3a414a" stroke-width=".05" fill="#3a414a"/><path d="M-2217.87 2295l.1.97h-1.12v-1.94h1.13z" fill="#3a414a"/><path stroke="#3a414a" stroke-width=".05" fill="#3a414a"/><path d="M-2359.16 2380.17l-10.84 18.78-10.84-18.78 1.68-.98 8.18 14.16v-4.86h1.95v4.86l8.2-14.17z" stroke="#3a414a" stroke-width=".05" fill="#3a414a"/><use xlink:href="#B" transform="matrix(1,0,0,1,-2396.6015625,2278.896747852723) translate(0.004999999999999005 25.833333333333336)"/><path d="M-2039.03 2675.65l-.08 1.06-.26 1.07-.42 1-.58.95-.7.83-.84.7-.93.58-1 .42-1.08.26-1.06.1h-618.47l-.9-.08-.9-.22-.87-.36-.8-.5-.72-.6-.6-.7-.5-.8-.36-.88-.2-.9-.08-.87-.06-.7-.14-.63-.25-.58-.34-.55-.4-.48-.5-.4-.52-.34-.6-.24-.6-.16-.67-.05H-2699v-1.96h24.65l.9.07.9.23.87.36.8.48.72.6.6.72.5.8.36.87.2.9.08.87.06.7.14.62.25.58.33.54.4.48.5.4.52.34.6.24.6.15.67.04h618.3l.84-.06.75-.2.73-.3.67-.4.6-.5.5-.6.42-.68.3-.73.2-.77.06-.82v-138.15h1.94zm0-170.5h-1.94v-85.03h1.94z" stroke="#3a414a" stroke-width=".05" fill="#3a414a"/><path d="M-2040 2419.12l.97-.06v1.1h-1.94v-1.1z" fill="#3a414a"/><path stroke="#3a414a" stroke-width=".05" fill="#3a414a"/><path d="M-2689.58 2662.46l-14.17 8.18h4.86v1.95h-4.85l14.17 8.17-.98 1.7-18.78-10.85 18.78-10.85z" stroke="#3a414a" stroke-width=".05" fill="#3a414a"/><use xlink:href="#C" transform="matrix(1,0,0,1,-2073.2486979166665,2505.161094920037) translate(0.005000000000002558 25.833333333333336)"/><path d="M-2562 2499.6h-266.6" stroke="#3a414a" stroke-width="2" fill="none"/><path d="M-2561 2500.57h-1.03v-1.95h1.03z" stroke="#3a414a" stroke-width=".05" fill="#3a414a"/><path d="M-2819.68 2509.6l-17.32-10 17.32-10m-17.32 10h8.5" stroke="#3a414a" stroke-width="2" fill="none"/><path d="M-2900 1610c0 11.05-8.95 20-20 20s-20-8.95-20-20 8.95-20 20-20 20 8.95 20 20z" stroke="#000" stroke-width="2"/><path d="M-2228 1480c-28.72 0-52 23.28-52 52v156c0 28.72 23.28 52 52 52h376c28.72 0 52-23.28 52-52v-156c0-28.72-23.28-52-52-52z" stroke="#000" stroke-width="2" fill="#fff"/><use xlink:href="#D" transform="matrix(1,0,0,1,-2272,1488) translate(13.015625 54.263020833333336)"/><use xlink:href="#E" transform="matrix(1,0,0,1,-2272,1488) translate(114.05729166666669 54.263020833333336)"/><use xlink:href="#F" transform="matrix(1,0,0,1,-2272,1488) translate(224.85156250000003 54.263020833333336)"/><use xlink:href="#G" transform="matrix(1,0,0,1,-2272,1488) translate(324.1354166666667 54.263020833333336)"/><use xlink:href="#H" transform="matrix(1,0,0,1,-2272,1488) translate(384.4088541666667 54.263020833333336)"/><use xlink:href="#f" transform="matrix(1,0,0,1,-2272,1488) translate(197.81380208333331 92.98177083333334)"/><use xlink:href="#g" transform="matrix(1,0,0,1,-2272,1488) translate(150.45052083333331 131.70052083333334)"/><use xlink:href="#h" transform="matrix(1,0,0,1,-2272,1488) translate(242.52083333333331 131.70052083333334)"/><use xlink:href="#i" transform="matrix(1,0,0,1,-2272,1488) translate(166.8828125 170.41927083333334)"/><use xlink:href="#j" transform="matrix(1,0,0,1,-2272,1488) translate(126.77864583333331 209.13802083333334)"/><use xlink:href="#k" transform="matrix(1,0,0,1,-2272,1488) translate(230.73697916666666 209.13802083333334)"/><path d="M-2040 1742v33a6 6 0 0 1-6 6h-1009.48a6 6 0 0 1-6-6v-119a6 6 0 0 0-6-6h-23.6" stroke="#3a414a" stroke-width="2" fill="none"/><path d="M-2039.03 1742.03h-1.94V1741h1.94z" stroke="#3a414a" stroke-width=".05" fill="#3a414a"/><path d="M-3082.16 1660l-17.32-10 17.32-10m-17.32 10h8.5" stroke="#3a414a" stroke-width="2" fill="none"/><path d="M-2818.37 2583.92a6.95 6.95 0 0 1 9.1 0l97.08 83.78a5.18 5.18 0 0 1 0 7.84l-97.08 83.77a6.95 6.95 0 0 1-9.1 0l-97.08-83.77a5.18 5.18 0 0 1 0-7.83z" stroke="#000" stroke-width="2" fill="#fff"/><g><use xlink:href="#I" transform="matrix(1,0,0,1,-2915,2585) translate(46.43338541666666 74.77083333333334)"/><use xlink:href="#J" transform="matrix(1,0,0,1,-2915,2585) translate(132.12348958333334 74.77083333333334)"/><use xlink:href="#K" transform="matrix(1,0,0,1,-2915,2585) translate(34.87739583333333 113.48958333333334)"/><use xlink:href="#L" transform="matrix(1,0,0,1,-2915,2585) translate(90.00760416666667 113.48958333333334)"/></g><path d="M-3099.53 2679.04l.27.07.26.12.28.16.34.34.16.28.1.26.08.27v.1h89.87v1.96h-90.06l-.24-.03-.27-.06-.26-.1-.28-.17-.34-.34-.16-.28-.1-.26-.08-.27v-.13h-28.65v-1.94h28.83zm180.27-6.45h-22.4v-1.96h22.4z" stroke="#3a414a" stroke-width=".05" fill="#3a414a"/><path d="M-2918.26 2671.62l.1.97h-1.12v-1.96h1.1z" fill="#3a414a"/><path stroke="#3a414a" stroke-width=".05" fill="#3a414a"/><path d="M-3119.2 2670.84l-14.16 8.18h4.86v1.95h-4.86l14.17 8.2-.97 1.67-18.78-10.84 18.78-10.84z" stroke="#3a414a" stroke-width=".05" fill="#3a414a"/><g><use xlink:href="#C" transform="matrix(1,0,0,1,-3008.166526204397,2665.48269486105) translate(0.005000000000002558 25.833333333333336)"/></g><path d="M-3042 2454.6c-9.94 0-18 8.06-18 18v54c0 9.94 8.06 18 18 18h184c9.94 0 18-8.06 18-18v-54c0-9.94-8.06-18-18-18z" stroke="#000" stroke-width="2" fill="#fff"/><g><use xlink:href="#M" transform="matrix(1,0,0,1,-3052,2462.5961231597375) translate(10.02734375 46.700520833333336)"/><use xlink:href="#N" transform="matrix(1,0,0,1,-3052,2462.5961231597375) translate(126.36848958333331 46.700520833333336)"/></g><path d="M-2812.85 2793.96l.07.83.18.75.3.73.4.67.53.6.6.5.67.42.72.3.77.2.82.06h64.77v1.94h-64.86l-1.05-.08-1.08-.26-1-.42-.95-.57-.83-.72-.7-.83-.58-.93-.42-1-.26-1.08-.08-1.06V2763h1.95zm221.46 5.07v1.94h-98.4v-1.94z" stroke="#3a414a" stroke-width=".05" fill="#3a414a"/><path d="M-2813.82 2762l.97-.07v1.1h-1.95v-1.1z" fill="#3a414a"/><path stroke="#3a414a" stroke-width=".05" fill="#3a414a"/><path d="M-2581.05 2800l-18.78 10.84-.98-1.68 14.16-8.18h-4.86v-1.95h4.86l-14.17-8.2.97-1.67z" stroke="#3a414a" stroke-width=".05" fill="#3a414a"/><g><use xlink:href="#B" transform="matrix(1,0,0,1,-2743.011985198568,2783.8671875) translate(0.004999999999999005 25.833333333333336)"/></g><path d="M-2540 2800c0 11.05-8.95 20-20 20s-20-8.95-20-20 8.95-20 20-20 20 8.95 20 20z" stroke="#000" stroke-width="2" fill="#fff"/><path d="M-2548 2800c0 6.63-5.37 12-12 12s-12-5.37-12-12 5.37-12 12-12 12 5.37 12 12z" stroke="#000" stroke-width="2"/><path d="M-2860 1466a6 6 0 0 1 6-6h107.25a6 6 0 0 1 6 6v46.4a6 6 0 0 1-6 6H-2854a6 6 0 0 1-6-6z" fill="none"/><g><use xlink:href="#O" transform="matrix(1,0,0,1,-2855,1465) translate(0 39.05078125)"/></g><path d="M-2580 1466a6 6 0 0 1 6-6h138.32a6 6 0 0 1 6 6v46.4a6 6 0 0 1-6 6H-2574a6 6 0 0 1-6-6z" fill="none"/><g><use xlink:href="#P" transform="matrix(1,0,0,1,-2575,1465) translate(0 39.05078125)"/></g><path d="M-2219.03 2204.04l-.08 1.05-.26 1.06-.42 1-.57.94-.72.83-.83.72-.93.57-1 .42-1.08.25-1.06.07h-718l-.83.07-.75.18-.73.3-.67.42-.6.5-.5.6-.42.68-.3.73-.2.76-.06.84v236.56h-1.94v-236.64l.08-1.05.26-1.06.42-1 .57-.94.72-.83.83-.72.93-.57 1-.42 1.08-.25 1.06-.07h718l.83-.07.75-.18.73-.3.67-.42.6-.5.5-.6.42-.68.3-.73.2-.76.06-.84v-95.05h1.94z" stroke="#3a414a" stroke-width=".05" fill="#3a414a"/><path d="M-2949.03 2453.6h-1.94v-1.03h1.94z" fill="#3a414a"/><path stroke="#3a414a" stroke-width=".05" fill="#3a414a"/><path d="M-2209.16 2117.35l-1.68.98-8.18-14.17v4.86h-1.95v-4.86l-8.2 14.17-1.67-.98 10.84-18.78z" stroke="#3a414a" stroke-width=".05" fill="#3a414a"/><path d="M-2224.24 2064.24a6 6 0 0 1 8.48 0l11.52 11.52a6 6 0 0 1 0 8.48l-11.52 11.52a6 6 0 0 1-8.48 0l-11.52-11.52a6 6 0 0 1 0-8.48z" stroke="#000" stroke-width="2" fill="#fff"/><path d="M-2200.48 2080H-2046a6 6 0 0 1 6 6v74.5" stroke="#3a414a" stroke-width="2" fill="none"/><path d="M-2200.46 2080.97h-1.1l.08-.97-.08-.97h1.1z" stroke="#3a414a" stroke-width=".05" fill="#3a414a"/><path d="M-2030 2151.56l-10 17.32-10-17.32m10 17.32v-8.5" stroke="#3a414a" stroke-width="2" fill="none"/><path d="M-3355.68 2619.2c-13.43 0-24.32 10.88-24.32 24.32v72.97c0 13.42 10.9 24.3 24.32 24.3h191.36c13.43 0 24.32-10.88 24.32-24.32v-72.97c0-13.42-10.9-24.3-24.32-24.3z" stroke="#000" stroke-width="2" fill="#fff"/><g><use xlink:href="#Q" transform="matrix(1,0,0,1,-3372,2627.192246319475) translate(39.39583333333334 43.34114583333333)"/><use xlink:href="#R" transform="matrix(1,0,0,1,-3372,2627.192246319475) translate(123.23697916666667 43.34114583333333)"/><use xlink:href="#S" transform="matrix(1,0,0,1,-3372,2627.192246319475) translate(69.63671875 82.05989583333333)"/></g><path d="M-3260 2617.2V1656a6 6 0 0 1 6-6h105.1" stroke="#3a414a" stroke-width="2" fill="none"/><path d="M-3259.03 2618.2h-1.94v-1.03h1.94z" stroke="#3a414a" stroke-width=".05" fill="#3a414a"/><path d="M-3157.84 1640l17.32 10-17.32 10m17.32-10h-8.5" stroke="#3a414a" stroke-width="2" fill="none"/><path d="M-3124.24 1634.24a6 6 0 0 1 8.48 0l11.52 11.52a6 6 0 0 1 0 8.48l-11.52 11.52a6 6 0 0 1-8.48 0l-11.52-11.52a6 6 0 0 1 0-8.48z" stroke="#000" stroke-width="2" fill="#fff"/><path d="M-3080 1828.6v-68.84a6 6 0 0 0-6-6h-28a6 6 0 0 1-6-6v-78.24" stroke="#3a414a" stroke-width="2" fill="none"/><path d="M-3070 1819.68l-10 17.32-10-17.32m10 17.32v-8.5" stroke="#3a414a" stroke-width="2" fill="none"/><path d="M-3120 1668.52l.97-.08v1.1h-1.94v-1.1z" stroke="#3a414a" stroke-width=".05" fill="#3a414a"/><defs><path d="M471 26C259 26 90-98 90-318c0-256 228-303 435-329 202-27 287-16 287-108 0-139-79-219-234-219-161 0-248 86-283 164l-173-57c86-203 278-265 451-265 150 0 419 46 419 395V0H815v-152h-12C765-73 660 26 471 26zm31-159c199 0 310-134 310-271v-155c-30 35-226 55-295 64-131 17-246 59-246 186 0 116 97 176 231 176" id="T"/><path d="M577 24c-279 0-473-224-473-580 0-354 195-576 474-576 218 0 287 134 324 193h14v-551h180V0H922v-173h-20C865-111 790 24 577 24zm27-161c203 0 314-172 314-421 0-247-108-413-314-413-212 0-317 181-317 413 0 235 108 421 317 421" id="U"/><g id="a"><use transform="matrix(0.010850694444444444,0,0,0.010850694444444444,0,0)" xlink:href="#T"/><use transform="matrix(0.010850694444444444,0,0,0.010850694444444444,12.47829861111111,0)" xlink:href="#U"/></g><path d="M52 0l541-1490h220L1361 0h-200l-149-416H398L254 0H52zm404-582h497c-103-290-145-390-251-756-108 377-145 460-246 756" id="V"/><g id="b"><use transform="matrix(0.010850694444444444,0,0,0.010850694444444444,0,0)" xlink:href="#V"/><use transform="matrix(0.010850694444444444,0,0,0.010850694444444444,15.33203125,0)" xlink:href="#U"/><use transform="matrix(0.010850694444444444,0,0,0.010850694444444444,28.938802083333332,0)" xlink:href="#U"/></g><path d="M645 0H180v-1490h484c435 0 692 280 692 742 0 466-257 748-711 748zM370-168h263c363 0 539-218 539-580 0-358-176-574-521-574H370v1154" id="W"/><path d="M628 24c-324 0-524-230-524-574 0-343 198-582 503-582 237 0 487 146 487 559v75H286c9 234 145 362 343 362 132 0 231-58 273-172l174 48C1024-91 857 24 628 24zM287-650h624c-17-190-120-322-304-322-192 0-309 151-320 322" id="X"/><path d="M598-1118v154H368v674c0 100 37 144 132 144 23 0 62-6 92-12L629-6c-37 13-88 20-134 20-193 0-307-107-307-290v-688H20v-154h168v-266h180v266h230" id="Y"/><path d="M158 0v-1118h180V0H158zm91-1301c-68 0-125-53-125-119s57-119 125-119c69 0 126 53 126 119s-57 119-126 119" id="Z"/><path d="M338-1490V0H158v-1490h180" id="aa"/><g id="c"><use transform="matrix(0.010850694444444444,0,0,0.010850694444444444,0,0)" xlink:href="#W"/><use transform="matrix(0.010850694444444444,0,0,0.010850694444444444,16.03732638888889,0)" xlink:href="#X"/><use transform="matrix(0.010850694444444444,0,0,0.010850694444444444,28.99305555555556,0)" xlink:href="#Y"/><use transform="matrix(0.010850694444444444,0,0,0.010850694444444444,36.37152777777778,0)" xlink:href="#T"/><use transform="matrix(0.010850694444444444,0,0,0.010850694444444444,48.849826388888886,0)" xlink:href="#Z"/><use transform="matrix(0.010850694444444444,0,0,0.010850694444444444,54.23177083333333,0)" xlink:href="#aa"/><use transform="matrix(0.010850694444444444,0,0,0.010850694444444444,59.61371527777778,0)" xlink:href="#X"/><use transform="matrix(0.010850694444444444,0,0,0.010850694444444444,72.56944444444444,0)" xlink:href="#U"/></g><path d="M180 0v-1490h510c348 0 508 194 508 460 0 198-88 351-276 417L1256 0h-220L726-579c-117 2-238 0-356 1V0H180zm190-747h312c235 0 327-108 327-283 0-177-92-293-329-293H370v576" id="ab"/><path d="M338-670V0H158v-1118h173l1 207c72-158 192-221 342-221 226 0 378 139 378 422V0H872v-695c0-172-96-275-252-275-161 0-282 109-282 300" id="ac"/><path d="M611 442c-248 0-391-105-460-228l146-94c47 65 117 165 314 165 178 0 307-82 307-266v-224h-17C863-141 792-18 576-18c-268 0-472-195-472-546 0-346 197-568 476-568 216 0 288 133 326 193h17v-179h175V29c0 289-215 413-487 413zm-5-620c203 0 314-146 314-390 0-237-108-403-314-403-213 0-319 180-319 403 0 230 109 390 319 390" id="ad"/><path d="M538 24C308 24 148-78 108-271l171-41c32 123 123 178 257 178 156 0 256-77 256-169 0-77-54-128-164-154l-186-44c-203-48-300-148-300-305 0-192 176-326 414-326 230 0 351 112 402 269l-163 42c-31-80-94-158-238-158-133 0-233 69-233 162 0 83 57 129 188 160l169 40c203 48 298 149 298 302 0 196-179 339-441 339" id="ae"/><g id="d"><use transform="matrix(0.010850694444444444,0,0,0.010850694444444444,0,0)" xlink:href="#ab"/><use transform="matrix(0.010850694444444444,0,0,0.010850694444444444,14.192708333333332,0)" xlink:href="#T"/><use transform="matrix(0.010850694444444444,0,0,0.010850694444444444,26.671006944444443,0)" xlink:href="#Y"/><use transform="matrix(0.010850694444444444,0,0,0.010850694444444444,33.94097222222222,0)" xlink:href="#Z"/><use transform="matrix(0.010850694444444444,0,0,0.010850694444444444,39.322916666666664,0)" xlink:href="#ac"/><use transform="matrix(0.010850694444444444,0,0,0.010850694444444444,52.45225694444444,0)" xlink:href="#ad"/><use transform="matrix(0.010850694444444444,0,0,0.010850694444444444,66.08072916666666,0)" xlink:href="#ae"/></g><path d="M180 0v-1490h908v168H370v486h669v168H370v500h727V0H180" id="af"/><path d="M158 0v-1118h174v172h12c41-113 157-188 290-188 26 0 70 2 91 3v181c-11-2-60-10-108-10-161 0-279 109-279 260V0H158" id="ag"/><path d="M295 13c-75 0-135-60-135-135s60-135 135-135 135 60 135 135S370 13 295 13zm0-809c-75 0-135-60-135-135s60-135 135-135 135 60 135 135-60 135-135 135" id="ah"/><g id="e"><use transform="matrix(0.013020833333333334,0,0,0.013020833333333334,0,0)" xlink:href="#af"/><use transform="matrix(0.013020833333333334,0,0,0.013020833333333334,16.028645833333336,0)" xlink:href="#ac"/><use transform="matrix(0.013020833333333334,0,0,0.013020833333333334,31.783854166666675,0)" xlink:href="#Y"/><use transform="matrix(0.013020833333333334,0,0,0.013020833333333334,40.247395833333336,0)" xlink:href="#X"/><use transform="matrix(0.013020833333333334,0,0,0.013020833333333334,55.794270833333336,0)" xlink:href="#ag"/><use transform="matrix(0.013020833333333334,0,0,0.013020833333333334,65.83333333333334,0)" xlink:href="#ae"/><use transform="matrix(0.013020833333333334,0,0,0.013020833333333334,79.90885416666667,0)" xlink:href="#ah"/></g><path d="M798-719v166H144v-166h654" id="ai"/><path d="M140 405l46-156c120 36 205 19 263-150l32-93L54-1118h197c107 313 237 620 324 950 87-331 219-637 326-950h196L606 167c-68 178-176 259-334 259-64 0-113-12-132-21" id="aj"/><path d="M158 418v-1536h174v179h20c37-59 106-193 324-193 279 0 474 222 474 576 0 356-194 580-473 580-213 0-288-135-325-197h-14v591H158zm492-555c209 0 317-186 317-421 0-232-105-413-317-413-206 0-314 166-314 413 0 249 111 421 314 421" id="ak"/><g id="f"><use transform="matrix(0.013020833333333334,0,0,0.013020833333333334,0,0)" xlink:href="#ai"/><use transform="matrix(0.013020833333333334,0,0,0.013020833333333334,12.265625,0)" xlink:href="#Y"/><use transform="matrix(0.013020833333333334,0,0,0.013020833333333334,21.510416666666668,0)" xlink:href="#aj"/><use transform="matrix(0.013020833333333334,0,0,0.013020833333333334,36.497395833333336,0)" xlink:href="#ak"/><use transform="matrix(0.013020833333333334,0,0,0.013020833333333334,52.825520833333336,0)" xlink:href="#X"/></g><g id="g"><use transform="matrix(0.013020833333333334,0,0,0.013020833333333334,0,0)" xlink:href="#ai"/><use transform="matrix(0.013020833333333334,0,0,0.013020833333333334,12.265625,0)" xlink:href="#ag"/><use transform="matrix(0.013020833333333334,0,0,0.013020833333333334,22.3046875,0)" xlink:href="#T"/><use transform="matrix(0.013020833333333334,0,0,0.013020833333333334,37.278645833333336,0)" xlink:href="#Y"/><use transform="matrix(0.013020833333333334,0,0,0.013020833333333334,46.00260416666667,0)" xlink:href="#Z"/><use transform="matrix(0.013020833333333334,0,0,0.013020833333333334,52.46093750000001,0)" xlink:href="#ac"/><use transform="matrix(0.013020833333333334,0,0,0.013020833333333334,68.21614583333334,0)" xlink:href="#ad"/></g><path d="M226 279v-1860h398v153H398V126h226v153H226" id="al"/><path d="M653-1490V0H466v-1314h-10L96-1047v-204l324-239h233" id="am"/><path d="M295 13c-75 0-135-60-135-135s60-135 135-135 135 60 135 135S370 13 295 13" id="an"/><path d="M646 20c-332 0-524-278-524-764 0-483 194-766 524-766s524 283 524 766c0 485-191 764-524 764zm0-166c218 0 341-220 341-598 0-380-123-601-341-601s-341 222-341 601c0 378 123 598 341 598" id="ao"/><path d="M123 279V126h226v-1554H123v-153h398V279H123" id="ap"/><g id="h"><use transform="matrix(0.013020833333333334,0,0,0.013020833333333334,0,0)" xlink:href="#al"/><use transform="matrix(0.013020833333333334,0,0,0.013020833333333334,9.7265625,0)" xlink:href="#am"/><use transform="matrix(0.013020833333333334,0,0,0.013020833333333334,20.572916666666668,0)" xlink:href="#an"/><use transform="matrix(0.013020833333333334,0,0,0.013020833333333334,28.255208333333336,0)" xlink:href="#an"/><use transform="matrix(0.013020833333333334,0,0,0.013020833333333334,33.6328125,0)" xlink:href="#am"/><use transform="matrix(0.013020833333333334,0,0,0.013020833333333334,44.47916666666667,0)" xlink:href="#ao"/><use transform="matrix(0.013020833333333334,0,0,0.013020833333333334,61.30208333333335,0)" xlink:href="#ap"/></g><path d="M613 24c-304 0-509-231-509-576 0-350 205-580 509-580 216 0 392 114 453 309l-173 49c-33-115-133-197-280-197-223 0-326 196-326 419 0 220 103 415 326 415 150 0 252-85 285-206l172 49C1010-95 832 24 613 24" id="aq"/><path d="M613 24c-304 0-509-231-509-576 0-350 205-580 509-580 305 0 511 230 511 580 0 345-206 576-511 576zm0-161c226 0 329-195 329-415 0-222-103-419-329-419-223 0-326 196-326 419 0 220 103 415 326 415" id="ar"/><path d="M158 0v-1118h175l1 205c55-151 181-225 313-225 147 0 245 90 285 228 53-141 190-228 352-228 194 0 352 125 352 384V0h-181v-749c0-161-105-225-225-225-151 0-243 103-243 244V0H807v-767c0-124-93-207-219-207-131 0-250 92-250 270V0H158" id="as"/><g id="i"><use transform="matrix(0.013020833333333334,0,0,0.013020833333333334,0,0)" xlink:href="#ai"/><use transform="matrix(0.013020833333333334,0,0,0.013020833333333334,12.265625,0)" xlink:href="#aq"/><use transform="matrix(0.013020833333333334,0,0,0.013020833333333334,27.5,0)" xlink:href="#ar"/><use transform="matrix(0.013020833333333334,0,0,0.013020833333333334,43.489583333333336,0)" xlink:href="#as"/><use transform="matrix(0.013020833333333334,0,0,0.013020833333333334,66.84895833333334,0)" xlink:href="#as"/><use transform="matrix(0.013020833333333334,0,0,0.013020833333333334,90.20833333333334,0)" xlink:href="#X"/><use transform="matrix(0.013020833333333334,0,0,0.013020833333333334,105.75520833333334,0)" xlink:href="#ac"/><use transform="matrix(0.013020833333333334,0,0,0.013020833333333334,121.51041666666667,0)" xlink:href="#Y"/></g><path d="M409 0L70-1118h191c89 329 165 560 243 925 75-353 154-601 240-925h192c85 325 161 564 235 922 77-354 157-598 244-922h191L1267 0h-179c-86-307-176-590-250-913C763-588 675-308 588 0H409" id="at"/><path d="M338-670V0H158v-1490h180v566c73-149 190-208 336-208 226 0 379 139 379 422V0H872v-695c0-172-96-275-252-275-161 0-282 109-282 300" id="au"/><g id="j"><use transform="matrix(0.013020833333333334,0,0,0.013020833333333334,0,0)" xlink:href="#ai"/><use transform="matrix(0.013020833333333334,0,0,0.013020833333333334,12.265625,0)" xlink:href="#at"/><use transform="matrix(0.013020833333333334,0,0,0.013020833333333334,33.606770833333336,0)" xlink:href="#X"/><use transform="matrix(0.013020833333333334,0,0,0.013020833333333334,49.153645833333336,0)" xlink:href="#Z"/><use transform="matrix(0.013020833333333334,0,0,0.013020833333333334,55.61197916666667,0)" xlink:href="#ad"/><use transform="matrix(0.013020833333333334,0,0,0.013020833333333334,71.96614583333334,0)" xlink:href="#au"/><use transform="matrix(0.013020833333333334,0,0,0.013020833333333334,87.73437500000001,0)" xlink:href="#Y"/></g><g id="k"><use transform="matrix(0.013020833333333334,0,0,0.013020833333333334,0,0)" xlink:href="#al"/><use transform="matrix(0.013020833333333334,0,0,0.013020833333333334,9.7265625,0)" xlink:href="#ao"/><use transform="matrix(0.013020833333333334,0,0,0.013020833333333334,25.872395833333336,0)" xlink:href="#an"/><use transform="matrix(0.013020833333333334,0,0,0.013020833333333334,32.87760416666667,0)" xlink:href="#ao"/><use transform="matrix(0.013020833333333334,0,0,0.013020833333333334,49.0234375,0)" xlink:href="#an"/><use transform="matrix(0.013020833333333334,0,0,0.013020833333333334,56.70572916666667,0)" xlink:href="#an"/><use transform="matrix(0.013020833333333334,0,0,0.013020833333333334,62.08333333333332,0)" xlink:href="#am"/><use transform="matrix(0.013020833333333334,0,0,0.013020833333333334,72.9296875,0)" xlink:href="#an"/><use transform="matrix(0.013020833333333334,0,0,0.013020833333333334,79.93489583333334,0)" xlink:href="#ao"/><use transform="matrix(0.013020833333333334,0,0,0.013020833333333334,96.75781250000001,0)" xlink:href="#ap"/></g><g id="l"><use transform="matrix(0.013020833333333334,0,0,0.013020833333333334,0,0)" xlink:href="#ag"/><use transform="matrix(0.013020833333333334,0,0,0.013020833333333334,10.0390625,0)" xlink:href="#T"/><use transform="matrix(0.013020833333333334,0,0,0.013020833333333334,25.013020833333336,0)" xlink:href="#Y"/><use transform="matrix(0.013020833333333334,0,0,0.013020833333333334,33.73697916666667,0)" xlink:href="#Z"/><use transform="matrix(0.013020833333333334,0,0,0.013020833333333334,40.19531250000001,0)" xlink:href="#ac"/><use transform="matrix(0.013020833333333334,0,0,0.013020833333333334,55.95052083333335,0)" xlink:href="#ad"/></g><g id="m"><use transform="matrix(0.013020833333333334,0,0,0.013020833333333334,0,0)" xlink:href="#Z"/><use transform="matrix(0.013020833333333334,0,0,0.013020833333333334,6.458333333333334,0)" xlink:href="#ac"/></g><g id="n"><use transform="matrix(0.013020833333333334,0,0,0.013020833333333334,0,0)" xlink:href="#al"/><use transform="matrix(0.013020833333333334,0,0,0.013020833333333334,9.7265625,0)" xlink:href="#am"/><use transform="matrix(0.013020833333333334,0,0,0.013020833333333334,20.572916666666668,0)" xlink:href="#an"/><use transform="matrix(0.013020833333333334,0,0,0.013020833333333334,28.255208333333336,0)" xlink:href="#an"/><use transform="matrix(0.013020833333333334,0,0,0.013020833333333334,33.6328125,0)" xlink:href="#am"/><use transform="matrix(0.013020833333333334,0,0,0.013020833333333334,44.47916666666667,0)" xlink:href="#ao"/><use transform="matrix(0.013020833333333334,0,0,0.013020833333333334,61.30208333333335,0)" xlink:href="#ap"/></g><path d="M180 0v-1490h224l606 953c40 63 108 177 176 312-27-437-7-821-13-1265h190V0h-226C860-448 622-778 356-1262c27 476 11 792 15 1262H180" id="av"/><g id="o"><use transform="matrix(0.013020833333333334,0,0,0.013020833333333334,0,0)" xlink:href="#V"/><use transform="matrix(0.013020833333333334,0,0,0.013020833333333334,18.3984375,0)" xlink:href="#av"/><use transform="matrix(0.013020833333333334,0,0,0.013020833333333334,38.489583333333336,0)" xlink:href="#W"/></g><g id="p"><use transform="matrix(0.013020833333333334,0,0,0.013020833333333334,0,0)" xlink:href="#at"/><use transform="matrix(0.013020833333333334,0,0,0.013020833333333334,21.341145833333336,0)" xlink:href="#X"/><use transform="matrix(0.013020833333333334,0,0,0.013020833333333334,36.888020833333336,0)" xlink:href="#Z"/><use transform="matrix(0.013020833333333334,0,0,0.013020833333333334,43.34635416666667,0)" xlink:href="#ad"/><use transform="matrix(0.013020833333333334,0,0,0.013020833333333334,59.70052083333335,0)" xlink:href="#au"/><use transform="matrix(0.013020833333333334,0,0,0.013020833333333334,75.46875000000001,0)" xlink:href="#Y"/></g><path d="M383-449c-3-277 82-343 222-425 88-53 156-134 156-250 0-139-108-227-243-227-118 0-235 70-246 236H82c10-251 200-395 436-395 259 0 427 165 427 393 0 161-74 273-203 352-132 80-180 132-178 316H383zm93 462c-75 0-135-60-135-134 0-75 60-135 135-135 74 0 134 60 134 135 0 74-60 134-134 134" id="aw"/><g id="q"><use transform="matrix(0.013020833333333334,0,0,0.013020833333333334,0,0)" xlink:href="#al"/><use transform="matrix(0.013020833333333334,0,0,0.013020833333333334,9.7265625,0)" xlink:href="#ao"/><use transform="matrix(0.013020833333333334,0,0,0.013020833333333334,25.872395833333336,0)" xlink:href="#an"/><use transform="matrix(0.013020833333333334,0,0,0.013020833333333334,32.87760416666667,0)" xlink:href="#ao"/><use transform="matrix(0.013020833333333334,0,0,0.013020833333333334,49.0234375,0)" xlink:href="#an"/><use transform="matrix(0.013020833333333334,0,0,0.013020833333333334,56.70572916666667,0)" xlink:href="#an"/><use transform="matrix(0.013020833333333334,0,0,0.013020833333333334,62.08333333333332,0)" xlink:href="#am"/><use transform="matrix(0.013020833333333334,0,0,0.013020833333333334,72.9296875,0)" xlink:href="#an"/><use transform="matrix(0.013020833333333334,0,0,0.013020833333333334,79.93489583333334,0)" xlink:href="#ao"/><use transform="matrix(0.013020833333333334,0,0,0.013020833333333334,96.75781250000001,0)" xlink:href="#ap"/><use transform="matrix(0.013020833333333334,0,0,0.013020833333333334,106.48437500000001,0)" xlink:href="#aw"/></g><g id="r"><use transform="matrix(0.013020833333333334,0,0,0.013020833333333334,0,0)" xlink:href="#W"/><use transform="matrix(0.013020833333333334,0,0,0.013020833333333334,19.244791666666668,0)" xlink:href="#Z"/><use transform="matrix(0.013020833333333334,0,0,0.013020833333333334,25.703125,0)" xlink:href="#ae"/><use transform="matrix(0.013020833333333334,0,0,0.013020833333333334,39.778645833333336,0)" xlink:href="#ak"/><use transform="matrix(0.013020833333333334,0,0,0.013020833333333334,56.106770833333336,0)" xlink:href="#aa"/><use transform="matrix(0.013020833333333334,0,0,0.013020833333333334,62.56510416666667,0)" xlink:href="#T"/><use transform="matrix(0.013020833333333334,0,0,0.013020833333333334,77.1484375,0)" xlink:href="#aj"/><use transform="matrix(0.013020833333333334,0,0,0.013020833333333334,92.13541666666667,0)" xlink:href="#ae"/></g><path d="M120-303v-155l652-1032h231v1020h202v167h-202V0H821v-303H120zm702-167v-782h-12L323-482v12h499" id="ax"/><g id="s"><use transform="matrix(0.013020833333333334,0,0,0.013020833333333334,0,0)" xlink:href="#af"/><use transform="matrix(0.013020833333333334,0,0,0.013020833333333334,16.028645833333336,0)" xlink:href="#ax"/><use transform="matrix(0.013020833333333334,0,0,0.013020833333333334,33.255208333333336,0)" xlink:href="#ah"/></g><g id="t"><use transform="matrix(0.013020833333333334,0,0,0.013020833333333334,0,0)" xlink:href="#ab"/><use transform="matrix(0.013020833333333334,0,0,0.013020833333333334,17.031250000000004,0)" xlink:href="#T"/><use transform="matrix(0.013020833333333334,0,0,0.013020833333333334,32.005208333333336,0)" xlink:href="#Y"/><use transform="matrix(0.013020833333333334,0,0,0.013020833333333334,40.72916666666667,0)" xlink:href="#Z"/><use transform="matrix(0.013020833333333334,0,0,0.013020833333333334,47.18750000000001,0)" xlink:href="#ac"/><use transform="matrix(0.013020833333333334,0,0,0.013020833333333334,62.94270833333335,0)" xlink:href="#ad"/></g><path d="M537 14c-226 0-379-139-379-422v-710h180v695c0 172 97 275 253 275 160 0 281-109 281-300v-670h181V0H879v-209C806-46 684 14 537 14" id="ay"/><g id="u"><use transform="matrix(0.013020833333333334,0,0,0.013020833333333334,0,0)" xlink:href="#as"/><use transform="matrix(0.013020833333333334,0,0,0.013020833333333334,23.359375,0)" xlink:href="#ay"/><use transform="matrix(0.013020833333333334,0,0,0.013020833333333334,39.12760416666667,0)" xlink:href="#ae"/><use transform="matrix(0.013020833333333334,0,0,0.013020833333333334,53.20312500000001,0)" xlink:href="#Y"/></g><path d="M677 24c-213 0-288-135-325-197h-20V0H158v-1490h180v551h14c37-59 106-193 324-193 279 0 474 222 474 576 0 356-194 580-473 580zm-27-161c209 0 317-186 317-421 0-232-105-413-317-413-206 0-314 166-314 413 0 249 111 421 314 421" id="az"/><g id="v"><use transform="matrix(0.013020833333333334,0,0,0.013020833333333334,0,0)" xlink:href="#az"/><use transform="matrix(0.013020833333333334,0,0,0.013020833333333334,16.328125,0)" xlink:href="#X"/></g><g id="w"><use transform="matrix(0.013020833333333334,0,0,0.013020833333333334,0,0)" xlink:href="#am"/><use transform="matrix(0.013020833333333334,0,0,0.013020833333333334,10.846354166666668,0)" xlink:href="#ai"/><use transform="matrix(0.013020833333333334,0,0,0.013020833333333334,23.111979166666668,0)" xlink:href="#am"/><use transform="matrix(0.013020833333333334,0,0,0.013020833333333334,33.958333333333336,0)" xlink:href="#ao"/></g><g id="x"><use transform="matrix(0.013020833333333334,0,0,0.013020833333333334,0,0)" xlink:href="#ag"/><use transform="matrix(0.013020833333333334,0,0,0.013020833333333334,10.0390625,0)" xlink:href="#T"/><use transform="matrix(0.013020833333333334,0,0,0.013020833333333334,25.013020833333336,0)" xlink:href="#ac"/><use transform="matrix(0.013020833333333334,0,0,0.013020833333333334,40.76822916666667,0)" xlink:href="#ad"/><use transform="matrix(0.013020833333333334,0,0,0.013020833333333334,57.12239583333335,0)" xlink:href="#X"/><use transform="matrix(0.013020833333333334,0,0,0.013020833333333334,72.66927083333334,0)" xlink:href="#an"/></g><path d="M458 0L52-1490h194c108 439 233 855 324 1313 92-459 221-873 331-1313h216c110 438 234 854 330 1307 92-455 216-869 323-1307h196L1558 0h-221l-256-944c-26-95-50-200-73-331-22 122-44 223-73 331L680 0H458" id="aA"/><g id="y"><use transform="matrix(0.013020833333333334,0,0,0.013020833333333334,0,0)" xlink:href="#aA"/><use transform="matrix(0.013020833333333334,0,0,0.013020833333333334,24.921875,0)" xlink:href="#X"/><use transform="matrix(0.013020833333333334,0,0,0.013020833333333334,40.46875,0)" xlink:href="#Z"/><use transform="matrix(0.013020833333333334,0,0,0.013020833333333334,46.927083333333336,0)" xlink:href="#ad"/><use transform="matrix(0.013020833333333334,0,0,0.013020833333333334,63.28125,0)" xlink:href="#au"/><use transform="matrix(0.013020833333333334,0,0,0.013020833333333334,79.04947916666667,0)" xlink:href="#Y"/></g><g id="z"><use transform="matrix(0.013020833333333334,0,0,0.013020833333333334,0,0)" xlink:href="#ao"/><use transform="matrix(0.013020833333333334,0,0,0.013020833333333334,16.145833333333336,0)" xlink:href="#an"/><use transform="matrix(0.013020833333333334,0,0,0.013020833333333334,23.151041666666668,0)" xlink:href="#ao"/><use transform="matrix(0.013020833333333334,0,0,0.013020833333333334,39.973958333333336,0)" xlink:href="#ai"/><use transform="matrix(0.013020833333333334,0,0,0.013020833333333334,52.239583333333336,0)" xlink:href="#am"/><use transform="matrix(0.013020833333333334,0,0,0.013020833333333334,63.0859375,0)" xlink:href="#an"/><use transform="matrix(0.013020833333333334,0,0,0.013020833333333334,70.09114583333333,0)" xlink:href="#ao"/></g><g id="A"><use transform="matrix(0.013020833333333334,0,0,0.013020833333333334,0,0)" xlink:href="#ag"/><use transform="matrix(0.013020833333333334,0,0,0.013020833333333334,10.0390625,0)" xlink:href="#T"/><use transform="matrix(0.013020833333333334,0,0,0.013020833333333334,25.013020833333336,0)" xlink:href="#ac"/><use transform="matrix(0.013020833333333334,0,0,0.013020833333333334,40.76822916666667,0)" xlink:href="#ad"/><use transform="matrix(0.013020833333333334,0,0,0.013020833333333334,57.12239583333335,0)" xlink:href="#X"/><use transform="matrix(0.013020833333333334,0,0,0.013020833333333334,72.66927083333334,0)" xlink:href="#an"/></g><path fill="#333" d="M182 279v-1860h488v228H471V51h199v228H182" id="aB"/><path fill="#333" d="M428-647V0H128v-1118h283l4 231c63-156 176-245 348-245 232 0 384 159 384 421V0H847v-659c0-139-76-222-202-222-128 0-217 86-217 234" id="aC"/><path fill="#333" d="M628 22C291 22 81-210 81-554c0-346 210-578 547-578 336 0 547 232 547 578 0 344-211 576-547 576zm0-236c160 0 242-146 242-341 0-197-82-341-242-341S387-753 387-555c0 195 81 341 241 341" id="aD"/><path fill="#333" d="M102 279V51h199v-1404H102v-228h489V279H102" id="aE"/><g id="B"><use transform="matrix(0.013020833333333334,0,0,0.013020833333333334,0,0)" xlink:href="#aB"/><use transform="matrix(0.013020833333333334,0,0,0.013020833333333334,10.533854166666668,0)" xlink:href="#aC"/><use transform="matrix(0.013020833333333334,0,0,0.013020833333333334,27.135416666666668,0)" xlink:href="#aD"/><use transform="matrix(0.013020833333333334,0,0,0.013020833333333334,43.15104166666667,0)" xlink:href="#aE"/></g><path fill="#333" d="M120 396l69-226c123 42 245 23 254-107l8-60L31-1118h319c87 288 199 559 259 872 72-308 185-583 277-872h315L726 132c-68 181-186 294-410 294-79 0-153-13-196-30" id="aF"/><path fill="#333" d="M633 22C291 22 81-200 81-553c0-345 210-579 537-579 292 0 525 185 525 567v84H378c7 183 109 277 260 277 105 0 184-46 216-132l272 51C1071-99 893 22 633 22zM380-669h474c-15-146-94-237-233-237-143 0-229 99-241 237" id="aG"/><path fill="#333" d="M572 22C302 22 117-98 78-306l279-48c29 105 101 156 224 156 114 0 185-48 185-115 0-118-228-130-337-155-215-49-322-150-322-317 0-215 187-347 470-347 265 0 424 116 466 298l-266 47c-24-76-87-130-196-130-98 0-174 46-174 113 0 56 38 95 144 117l201 40c216 44 320 143 320 302 0 220-207 367-500 367" id="aH"/><g id="C"><use transform="matrix(0.013020833333333334,0,0,0.013020833333333334,0,0)" xlink:href="#aB"/><use transform="matrix(0.013020833333333334,0,0,0.013020833333333334,10.052083333333334,0)" xlink:href="#aF"/><use transform="matrix(0.013020833333333334,0,0,0.013020833333333334,25.625,0)" xlink:href="#aG"/><use transform="matrix(0.013020833333333334,0,0,0.013020833333333334,41.51041666666667,0)" xlink:href="#aH"/><use transform="matrix(0.013020833333333334,0,0,0.013020833333333334,56.4453125,0)" xlink:href="#aE"/></g><path d="M657 26c-323 0-524-166-541-416h195c15 169 171 246 346 246 202 0 356-106 356-265 5-203-294-238-475-293-239-73-380-191-380-389 0-252 224-419 512-419 294 0 499 171 508 396H992c-17-145-151-228-328-228-193 0-321 102-321 242 0 156 175 211 284 241l149 41c160 44 422 134 422 412 0 244-197 432-541 432" id="aI"/><g id="D"><use transform="matrix(0.013020833333333334,0,0,0.013020833333333334,0,0)" xlink:href="#aI"/><use transform="matrix(0.013020833333333334,0,0,0.013020833333333334,17.109375,0)" xlink:href="#aj"/><use transform="matrix(0.013020833333333334,0,0,0.013020833333333334,32.09635416666667,0)" xlink:href="#ae"/><use transform="matrix(0.013020833333333334,0,0,0.013020833333333334,46.17187500000001,0)" xlink:href="#Y"/><use transform="matrix(0.013020833333333334,0,0,0.013020833333333334,54.63541666666668,0)" xlink:href="#X"/><use transform="matrix(0.013020833333333334,0,0,0.013020833333333334,70.18229166666669,0)" xlink:href="#as"/></g><g id="E"><use transform="matrix(0.013020833333333334,0,0,0.013020833333333334,0,0)" xlink:href="#U"/><use transform="matrix(0.013020833333333334,0,0,0.013020833333333334,16.328125,0)" xlink:href="#Z"/><use transform="matrix(0.013020833333333334,0,0,0.013020833333333334,22.786458333333336,0)" xlink:href="#ae"/><use transform="matrix(0.013020833333333334,0,0,0.013020833333333334,36.86197916666667,0)" xlink:href="#ak"/><use transform="matrix(0.013020833333333334,0,0,0.013020833333333334,53.19010416666667,0)" xlink:href="#aa"/><use transform="matrix(0.013020833333333334,0,0,0.013020833333333334,59.6484375,0)" xlink:href="#T"/><use transform="matrix(0.013020833333333334,0,0,0.013020833333333334,74.23177083333334,0)" xlink:href="#aj"/><use transform="matrix(0.013020833333333334,0,0,0.013020833333333334,89.21875000000001,0)" xlink:href="#ae"/></g><g id="F"><use transform="matrix(0.013020833333333334,0,0,0.013020833333333334,0,0)" xlink:href="#ae"/><use transform="matrix(0.013020833333333334,0,0,0.013020833333333334,14.075520833333334,0)" xlink:href="#X"/><use transform="matrix(0.013020833333333334,0,0,0.013020833333333334,29.622395833333336,0)" xlink:href="#aq"/><use transform="matrix(0.013020833333333334,0,0,0.013020833333333334,44.856770833333336,0)" xlink:href="#Y"/><use transform="matrix(0.013020833333333334,0,0,0.013020833333333334,53.58072916666667,0)" xlink:href="#Z"/><use transform="matrix(0.013020833333333334,0,0,0.013020833333333334,60.0390625,0)" xlink:href="#ar"/><use transform="matrix(0.013020833333333334,0,0,0.013020833333333334,76.02864583333334,0)" xlink:href="#ac"/></g><g id="G"><use transform="matrix(0.013020833333333334,0,0,0.013020833333333334,0,0)" xlink:href="#at"/><use transform="matrix(0.013020833333333334,0,0,0.013020833333333334,21.822916666666668,0)" xlink:href="#Z"/><use transform="matrix(0.013020833333333334,0,0,0.013020833333333334,28.28125,0)" xlink:href="#Y"/><use transform="matrix(0.013020833333333334,0,0,0.013020833333333334,37.005208333333336,0)" xlink:href="#au"/></g><path d="M678-1118v154H420V0H240v-964H20v-154h220v-149c0-194 155-293 318-293 85 0 141 18 168 30l-50 154c-19-6-47-17-97-17-111 0-159 58-159 166v109h258" id="aJ"/><g id="H"><use transform="matrix(0.013020833333333334,0,0,0.013020833333333334,0,0)" xlink:href="#aJ"/><use transform="matrix(0.013020833333333334,0,0,0.013020833333333334,9.088541666666668,0)" xlink:href="#ar"/><use transform="matrix(0.013020833333333334,0,0,0.013020833333333334,25.078125,0)" xlink:href="#ag"/><use transform="matrix(0.013020833333333334,0,0,0.013020833333333334,35.53385416666667,0)" xlink:href="#as"/><use transform="matrix(0.013020833333333334,0,0,0.013020833333333334,58.89322916666667,0)" xlink:href="#ah"/></g><g id="I"><use transform="matrix(0.013020833333333334,0,0,0.013020833333333334,0,0)" xlink:href="#aA"/><use transform="matrix(0.013020833333333334,0,0,0.013020833333333334,24.921875,0)" xlink:href="#T"/><use transform="matrix(0.013020833333333334,0,0,0.013020833333333334,39.895833333333336,0)" xlink:href="#ac"/><use transform="matrix(0.013020833333333334,0,0,0.013020833333333334,55.65104166666667,0)" xlink:href="#Y"/><use transform="matrix(0.013020833333333334,0,0,0.013020833333333334,64.11458333333334,0)" xlink:href="#ae"/></g><g id="J"><use transform="matrix(0.013020833333333334,0,0,0.013020833333333334,0,0)" xlink:href="#Y"/><use transform="matrix(0.013020833333333334,0,0,0.013020833333333334,8.463541666666668,0)" xlink:href="#ar"/></g><g id="K"><use transform="matrix(0.013020833333333334,0,0,0.013020833333333334,0,0)" xlink:href="#T"/><use transform="matrix(0.013020833333333334,0,0,0.013020833333333334,14.973958333333334,0)" xlink:href="#U"/><use transform="matrix(0.013020833333333334,0,0,0.013020833333333334,31.302083333333336,0)" xlink:href="#U"/></g><g id="L"><use transform="matrix(0.013020833333333334,0,0,0.013020833333333334,0,0)" xlink:href="#as"/><use transform="matrix(0.013020833333333334,0,0,0.013020833333333334,23.359375,0)" xlink:href="#ar"/><use transform="matrix(0.013020833333333334,0,0,0.013020833333333334,39.348958333333336,0)" xlink:href="#ag"/><use transform="matrix(0.013020833333333334,0,0,0.013020833333333334,48.9453125,0)" xlink:href="#X"/><use transform="matrix(0.013020833333333334,0,0,0.013020833333333334,64.4921875,0)" xlink:href="#aw"/></g><path d="M783 20c-382 0-661-292-661-764 0-473 279-766 661-766 302 0 548 182 601 489h-190c-42-204-217-313-411-313-268 0-476 208-476 590 0 381 209 588 476 588 195 0 369-110 411-313h190c-52 303-296 489-601 489" id="aK"/><g id="M"><use transform="matrix(0.013020833333333334,0,0,0.013020833333333334,0,0)" xlink:href="#aK"/><use transform="matrix(0.013020833333333334,0,0,0.013020833333333334,19.479166666666668,0)" xlink:href="#ar"/><use transform="matrix(0.013020833333333334,0,0,0.013020833333333334,35.46875,0)" xlink:href="#ag"/><use transform="matrix(0.013020833333333334,0,0,0.013020833333333334,45.924479166666664,0)" xlink:href="#ag"/><use transform="matrix(0.013020833333333334,0,0,0.013020833333333334,55.52083333333332,0)" xlink:href="#X"/><use transform="matrix(0.013020833333333334,0,0,0.013020833333333334,71.06770833333333,0)" xlink:href="#aq"/><use transform="matrix(0.013020833333333334,0,0,0.013020833333333334,86.30208333333333,0)" xlink:href="#Y"/><use transform="matrix(0.013020833333333334,0,0,0.013020833333333334,94.76562499999999,0)" xlink:href="#ae"/></g><path d="M481 0L54-1118h197c107 314 236 620 325 951 87-331 217-637 324-951h197L670 0H481" id="aL"/><g id="N"><use transform="matrix(0.013020833333333334,0,0,0.013020833333333334,0,0)" xlink:href="#aL"/><use transform="matrix(0.013020833333333334,0,0,0.013020833333333334,14.856770833333334,0)" xlink:href="#T"/><use transform="matrix(0.013020833333333334,0,0,0.013020833333333334,29.830729166666668,0)" xlink:href="#aa"/><use transform="matrix(0.013020833333333334,0,0,0.013020833333333334,36.2890625,0)" xlink:href="#ay"/><use transform="matrix(0.013020833333333334,0,0,0.013020833333333334,52.05729166666667,0)" xlink:href="#X"/></g><g id="O"><use transform="matrix(0.01953125,0,0,0.01953125,0,0)" xlink:href="#aI"/><use transform="matrix(0.01953125,0,0,0.01953125,25.6640625,0)" xlink:href="#aq"/><use transform="matrix(0.01953125,0,0,0.01953125,48.515625,0)" xlink:href="#ar"/><use transform="matrix(0.01953125,0,0,0.01953125,72.5,0)" xlink:href="#ay"/><use transform="matrix(0.01953125,0,0,0.01953125,96.15234375,0)" xlink:href="#Y"/></g><g id="P"><use transform="matrix(0.01953125,0,0,0.01953125,0,0)" xlink:href="#aI"/><use transform="matrix(0.01953125,0,0,0.01953125,25.6640625,0)" xlink:href="#aj"/><use transform="matrix(0.01953125,0,0,0.01953125,48.14453125,0)" xlink:href="#ae"/><use transform="matrix(0.01953125,0,0,0.01953125,69.2578125,0)" xlink:href="#Y"/><use transform="matrix(0.01953125,0,0,0.01953125,81.953125,0)" xlink:href="#X"/><use transform="matrix(0.01953125,0,0,0.01953125,105.2734375,0)" xlink:href="#as"/></g><path d="M158 0v-1490h180v865h22l478-493h223L593-638 1096 0H865L456-523 338-412V0H158" id="aM"/><g id="Q"><use transform="matrix(0.013020833333333334,0,0,0.013020833333333334,0,0)" xlink:href="#aK"/><use transform="matrix(0.013020833333333334,0,0,0.013020833333333334,19.479166666666668,0)" xlink:href="#aa"/><use transform="matrix(0.013020833333333334,0,0,0.013020833333333334,25.9375,0)" xlink:href="#Z"/><use transform="matrix(0.013020833333333334,0,0,0.013020833333333334,32.395833333333336,0)" xlink:href="#aq"/><use transform="matrix(0.013020833333333334,0,0,0.013020833333333334,47.630208333333336,0)" xlink:href="#aM"/><use transform="matrix(0.013020833333333334,0,0,0.013020833333333334,62.265625,0)" xlink:href="#ae"/></g><path d="M232-923l-22-567h194l-22 567H232zm340 0l-22-567h194l-22 567H572" id="aN"/><g id="R"><use transform="matrix(0.013020833333333334,0,0,0.013020833333333334,0,0)" xlink:href="#aN"/><use transform="matrix(0.013020833333333334,0,0,0.013020833333333334,10.3125,0)" xlink:href="#V"/><use transform="matrix(0.013020833333333334,0,0,0.013020833333333334,28.7109375,0)" xlink:href="#U"/><use transform="matrix(0.013020833333333334,0,0,0.013020833333333334,45.0390625,0)" xlink:href="#U"/></g><g id="S"><use transform="matrix(0.013020833333333334,0,0,0.013020833333333334,0,0)" xlink:href="#ag"/><use transform="matrix(0.013020833333333334,0,0,0.013020833333333334,10.0390625,0)" xlink:href="#T"/><use transform="matrix(0.013020833333333334,0,0,0.013020833333333334,25.013020833333336,0)" xlink:href="#Y"/><use transform="matrix(0.013020833333333334,0,0,0.013020833333333334,33.73697916666667,0)" xlink:href="#Z"/><use transform="matrix(0.013020833333333334,0,0,0.013020833333333334,40.19531250000001,0)" xlink:href="#ac"/><use transform="matrix(0.013020833333333334,0,0,0.013020833333333334,55.95052083333335,0)" xlink:href="#ad"/><use transform="matrix(0.013020833333333334,0,0,0.013020833333333334,72.30468750000001,0)" xlink:href="#aN"/></g></defs></g></svg>