<svg xmlns="http://www.w3.org/2000/svg" xmlns:xlink="http://www.w3.org/1999/xlink" xmlns:lucid="lucid" width="1282" height="1722"><g transform="translate(421 -119)" lucid:page-tab-id="o60UY1mXwL34"><path d="M-500 0h1500v2000H-500z" fill="#fff"/><path d="M-420 126a6 6 0 0 1 6-6h208a6 6 0 0 1 6 6v8a14.48 14.48 0 0 1-4.24 10.24l-1.52 1.52A14.48 14.48 0 0 1-216 150h-198a6 6 0 0 1-6-6z" fill="#fff"/><path d="M-200 120v20l-10 10h-210" stroke="#000" stroke-width="2" fill="none"/><path d="M-420 126a6 6 0 0 1 6-6H854a6 6 0 0 1 6 6v1708a6 6 0 0 1-6 6H-414a6 6 0 0 1-6-6z" stroke="#000" stroke-width="2" fill="none"/><use xlink:href="#a" transform="matrix(1,0,0,1,-412,120) translate(0 25.833333333333336)"/><use xlink:href="#b" transform="matrix(1,0,0,1,-412,120) translate(39.59635416666667 25.833333333333336)"/><path d="M-20 166a6 6 0 0 1 6-6h788a6 6 0 0 1 6 6v1588a6 6 0 0 1-6 6H-14a6 6 0 0 1-6-6z" stroke="#000" stroke-width="2" fill-opacity="0"/><use xlink:href="#c" transform="matrix(1,0,0,1,-12,168) translate(311.4596354166667 25.833333333333336)"/><path d="M-199.75 999.95v-.2A19.75 19.75 0 0 1-180 980a19.75 19.75 0 0 1 19.75 19.75A19.75 19.75 0 0 1-180 1019.5a19.75 19.75 0 0 1-19.75-19.75v-.2" stroke="#000" stroke-width="2" fill="#fff"/><path d="M-220 986a6 6 0 0 1 6-6h68a6 6 0 0 1 6 6v146a6 6 0 0 1-6 6h-68a6 6 0 0 1-6-6z" fill="none"/><path d="M-180 1019.5v55.3l40 63.2m-40-63.2l-40 63.2m0-98.75h80" stroke="#000" stroke-width="2" fill="none"/><use xlink:href="#d" transform="matrix(1,0,0,1,-300,1138) translate(69.71354166666667 25.833333333333336)"/><path d="M-199.75 1339.95v-.2A19.75 19.75 0 0 1-180 1320a19.75 19.75 0 0 1 19.75 19.75A19.75 19.75 0 0 1-180 1359.5a19.75 19.75 0 0 1-19.75-19.75v-.2" stroke="#000" stroke-width="2" fill="#fff"/><path d="M-220 1326a6 6 0 0 1 6-6h68a6 6 0 0 1 6 6v146a6 6 0 0 1-6 6h-68a6 6 0 0 1-6-6z" fill="none"/><path d="M-180 1359.5v55.3l40 63.2m-40-63.2l-40 63.2m0-98.75h80" stroke="#000" stroke-width="2" fill="none"/><use xlink:href="#e" transform="matrix(1,0,0,1,-300,1478) translate(83.58723958333334 25.833333333333336)"/><path d="M220.38 992.5c0 33.14-35.8 60-80 60-44.18 0-80-26.86-80-60s35.82-60 80-60c44.2 0 80 26.86 80 60z" stroke="#000" stroke-width="2" fill="#fff"/><use xlink:href="#f" transform="matrix(1,0,0,1,60.384762832448814,932.4990668871108) translate(26.38877441406249 56.060625)"/><use xlink:href="#g" transform="matrix(1,0,0,1,60.384762832448814,932.4990668871108) translate(83.7445263671875 56.060625)"/><use xlink:href="#h" transform="matrix(1,0,0,1,60.384762832448814,932.4990668871108) translate(97.85255371093751 56.060625)"/><use xlink:href="#i" transform="matrix(1,0,0,1,60.384762832448814,932.4990668871108) translate(37.615527343749996 76.31537109375)"/><path d="M-178.02 1058.37l240.3-47.02M-178 1058.36l-3.94.78" stroke="#3a414a" stroke-width="2" fill="none"/><path d="M62.87 1010.27l.8 1.8-1.23.24-.37-1.9.8-.16z" stroke="#3a414a" stroke-width=".05" fill="#3a414a"/><path d="M220.38 1192.5c0 33.14-35.8 60-80 60-44.18 0-80-26.86-80-60s35.82-60 80-60c44.2 0 80 26.86 80 60z" stroke="#000" stroke-width="2" fill="#fff"/><use xlink:href="#j" transform="matrix(1,0,0,1,60.384762832448814,1132.4990668871108) translate(31.076464843749996 65.904375)"/><use xlink:href="#k" transform="matrix(1,0,0,1,60.384762832448814,1132.4990668871108) translate(74.54488281249999 65.904375)"/><path d="M-178.08 1059.58l245.32 104.9M-178.06 1059.6l-3.7-1.6" stroke="#3a414a" stroke-width="2" fill="none"/><path d="M68.72 1164.06l-1.1 1.65-.78-.32.76-1.8zM141.36 1121.1h-1.95v-4.15h1.96zm0-12.48h-1.95v-8.32h1.96zm0-33.3h-1.95V1067h1.96zm0-16.66h-1.95v-4.16h1.96z" stroke="#3a414a" stroke-width=".05" fill="#3a414a"/><path d="M140.37 1053.5h.94l.06 1.03h-1.95v-1.06z" fill="#3a414a"/><path stroke="#3a414a" stroke-width=".05" fill="#3a414a"/><path d="M151.23 1112.67l-10.84 18.78-10.86-18.78 1.7-.98 8.17 14.16V1121h1.96v4.86l8.18-14.17z" stroke="#3a414a" stroke-width=".05" fill="#3a414a"/><use xlink:href="#l" transform="matrix(1,0,0,1,84.2389294991155,1075.984483579976) translate(0.005000000000002558 17.22222222222222)"/><path d="M260 1620.5c0 33.14-35.82 60-80 60s-80-26.86-80-60 35.82-60 80-60 80 26.86 80 60z" stroke="#000" stroke-width="2" fill="#fff"/><use xlink:href="#m" transform="matrix(1,0,0,1,100,1560.5011859272672) translate(17.487475585937496 56.060625)"/><use xlink:href="#n" transform="matrix(1,0,0,1,100,1560.5011859272672) translate(79.62491699218751 56.060625)"/><use xlink:href="#o" transform="matrix(1,0,0,1,100,1560.5011859272672) translate(55.050302734374995 76.31537109375)"/><path d="M-178.15 1399.9l293.33 182.66M-178.13 1399.92l-3.42-2.12" stroke="#3a414a" stroke-width="2" fill="none"/><path d="M116.74 1582.4l-.18.16-1.24 1.24-.68-.42 1.03-1.66z" stroke="#3a414a" stroke-width=".05" fill="#3a414a"/><path d="M-199.75 519.95v-.2A19.75 19.75 0 0 1-180 500a19.75 19.75 0 0 1 19.75 19.75A19.75 19.75 0 0 1-180 539.5a19.75 19.75 0 0 1-19.75-19.75v-.2" stroke="#000" stroke-width="2" fill="#fff"/><path d="M-220 506a6 6 0 0 1 6-6h68a6 6 0 0 1 6 6v146a6 6 0 0 1-6 6h-68a6 6 0 0 1-6-6z" fill="none"/><path d="M-180 539.5v55.3l40 63.2m-40-63.2l-40 63.2m0-98.75h80" stroke="#000" stroke-width="2" fill="none"/><use xlink:href="#p" transform="matrix(1,0,0,1,-300,658) translate(25.631510416666657 25.833333333333336)"/><use xlink:href="#q" transform="matrix(1,0,0,1,-300,658) translate(91.16536458333333 25.833333333333336)"/><path d="M-180 1299v-43a6 6 0 0 0-6-6h-118a6 6 0 0 1-6-6V872a6 6 0 0 1 6-6h123M-180 1298.97v1.03M-181.03 866h1.03M-180 939V724.65M-180 938.97V940" stroke="#3a414a" stroke-width="2" fill="none"/><path d="M-180 702l12.5 21.65h-25z" stroke="#3a414a" stroke-width="2" fill="#fff"/><path d="M240.38 464.83c0 24.76-40.3 44.84-90 44.84s-90-20.08-90-44.84c0-24.76 40.3-44.83 90-44.83s90 20.07 90 44.83z" stroke="#000" stroke-width="2" fill="#fff"/><use xlink:href="#j" transform="matrix(1,0,0,1,60.384762832448814,420) translate(23.061347656249986 51.0215625)"/><use xlink:href="#r" transform="matrix(1,0,0,1,60.384762832448814,420) translate(66.52976562499998 51.0215625)"/><use xlink:href="#s" transform="matrix(1,0,0,1,60.384762832448814,420) translate(129.116767578125 51.0215625)"/><path d="M-178.05 578.1l254.72-85.38M-178.03 578.1l-3.8 1.27" stroke="#3a414a" stroke-width="2" fill="none"/><path d="M78.65 493.08l-1.7.57-.6-1.85.24-.08z" stroke="#3a414a" stroke-width=".05" fill="#3a414a"/><path d="M200 240c0 33.14-35.82 60-80 60s-80-26.86-80-60 35.82-60 80-60 80 26.86 80 60z" stroke="#000" stroke-width="2" fill="#fff"/><use xlink:href="#j" transform="matrix(1,0,0,1,40,180) translate(26.821987304687497 56.060625)"/><use xlink:href="#n" transform="matrix(1,0,0,1,40,180) translate(70.2904052734375 56.060625)"/><use xlink:href="#t" transform="matrix(1,0,0,1,40,180) translate(14.038120117187484 76.31537109375)"/><use xlink:href="#u" transform="matrix(1,0,0,1,40,180) translate(79.86195800781249 76.31537109375)"/><path d="M76.14 292.63l-236.58 265.52-1.45-1.3L74.7 291.34z" stroke="#3a414a" stroke-width=".05" fill="#3a414a"/><path d="M-160.42 558.13l-2.68 3-1.46-1.3 2.68-3z" stroke="#3a414a" stroke-width=".05" fill="#3a414a"/><path d="M76.98 291.7l-.85.95-1.46-1.3.5-.57z" fill="#3a414a"/><path stroke="#3a414a" stroke-width=".05" fill="#3a414a"/><path d="M220.38 1332.5c0 33.14-35.8 60-80 60-44.18 0-80-26.86-80-60s35.82-60 80-60c44.2 0 80 26.86 80 60z" stroke="#000" stroke-width="2" fill="#fff"/><use xlink:href="#j" transform="matrix(1,0,0,1,60.384762832448814,1272.4990668871108) translate(22.22012207031249 56.060625)"/><use xlink:href="#v" transform="matrix(1,0,0,1,60.384762832448814,1272.4990668871108) translate(65.6885400390625 56.060625)"/><use xlink:href="#w" transform="matrix(1,0,0,1,60.384762832448814,1272.4990668871108) translate(48.31506835937499 76.31537109375)"/><path d="M85.47 1286.2l-1.27 1.5-263.08-226.7 1.27-1.46z" stroke="#3a414a" stroke-width=".05" fill="#3a414a"/><path d="M86.42 1287.04l-1.66 1.14-.58-.5 1.27-1.48z" fill="#3a414a"/><path stroke="#3a414a" stroke-width=".05" fill="#3a414a"/><path d="M-177.6 1059.55l-1.26 1.48-3.05-2.63 1.26-1.48z" stroke="#3a414a" stroke-width=".05" fill="#3a414a"/><path d="M260 1480c0 33.14-35.82 60-80 60s-80-26.86-80-60 35.82-60 80-60 80 26.86 80 60z" stroke="#000" stroke-width="2" fill="#fff"/><use xlink:href="#f" transform="matrix(1,0,0,1,100,1420) translate(16.363574218749996 56.060625)"/><use xlink:href="#x" transform="matrix(1,0,0,1,100,1420) translate(73.71932617187501 56.060625)"/><use xlink:href="#y" transform="matrix(1,0,0,1,100,1420) translate(53.697534179687494 76.31537109375)"/><path d="M100.6 1464.52l-278.63-65.3" stroke="#3a414a" stroke-width="2" fill="none"/><path d="M101.9 1463.83l-.6 1.68-.05.18-.9-.22.44-1.9z" stroke="#3a414a" stroke-width=".05" fill="#3a414a"/><path d="M-178 1399.23l-3.92-.92" stroke="#3a414a" stroke-width="2" fill="none"/><path d="M620 1510.5c0 33.14-35.82 60-80 60s-80-26.86-80-60 35.82-60 80-60 80 26.86 80 60z" stroke="#000" stroke-width="2" fill="#fff"/><use xlink:href="#z" transform="matrix(1,0,0,1,460,1450.5011859272672) translate(29.16787597656249 56.060625)"/><use xlink:href="#A" transform="matrix(1,0,0,1,460,1450.5011859272672) translate(65.9255810546875 56.060625)"/><use xlink:href="#B" transform="matrix(1,0,0,1,460,1450.5011859272672) translate(50.69773925781249 76.31537109375)"/><path d="M449.25 1501.83l-.16 1.95-3.92-.33.16-1.95zm-11.73-1l-.16 1.95-7.82-.66.16-1.94zm-15.64-1.3l-.16 1.93-5.57-.47v-1.97zm-125.13-10.62l-.16 1.96-7.83-.67.16-1.95zm-15.64-1.3l-.16 1.93-7.8-.66.15-1.94zm-15.63-1.34l-.17 1.95-3.9-.33.16-1.94z" stroke="#3a414a" stroke-width=".05" fill="#3a414a"/><path d="M459.47 1503.68l-19.63 9.22-.83-1.77 14.82-6.95-4.84-.4.16-1.95 4.84.4-13.42-9.34 1.1-1.6z" stroke="#3a414a" stroke-width=".05" fill="#3a414a"/><path d="M261.58 1485.93l-.16 1.95-1.1-.1.3-1.93z" fill="#3a414a"/><path stroke="#3a414a" stroke-width=".05" fill="#3a414a"/><use xlink:href="#l" transform="matrix(1,0,0,1,303.85416666666663,1484.4953846303004) translate(0.005000000000002558 17.22222222222222)"/><path d="M220.38 762.5c0 23.47-44.77 42.5-100 42.5-55.22 0-100-19.03-100-42.5s44.78-42.5 100-42.5c55.23 0 100 19.03 100 42.5z" stroke="#000" stroke-width="2" fill="#fff"/><use xlink:href="#j" transform="matrix(1,0,0,1,20.384762832448814,720) translate(31.463364257812493 48.42390625)"/><use xlink:href="#C" transform="matrix(1,0,0,1,20.384762832448814,720) translate(74.93178222656249 48.42390625)"/><path d="M-178.15 579.9L58.9 727.16M-178.13 579.92l-3.42-2.13" stroke="#3a414a" stroke-width="2" fill="none"/><path d="M61 727.3l-2.47.75h-.02l-.14-.08 1.03-1.66zM211.44 1142.6l-3.15 2.5-1.22-1.52 3.14-2.5zm13.02-9.3l-3.83 2.54-2.75 2-1.15-1.57 2.77-2.02h.02v-.02l3.85-2.57zm13.57-8.57l-6.87 4.2-1-1.68 6.86-4.18zm14.13-7.53l-5.02 2.5-2.1 1.16-.94-1.7 2.12-1.18h.02v-.02l5.04-2.5zm14.52-6.73l-.15.06-7.16 3.2-.8-1.77 7.18-3.22h.04l.16-.08zm14.98-5.75l-4.6 1.6-2.9 1.17-.73-1.82 2.94-1.17h.02l4.62-1.62zm15.26-4.96l-7.7 2.34-.56-1.86 7.7-2.34zm15.5-4.2l-7.8 2.03-.48-1.9 7.8-2.02zm15.66-3.47l-7.87 1.68-.4-1.9 7.87-1.7zm15.8-2.6l-7.95 1.16-.28-1.93 7.96-1.15zm15.94-2.3l-7.97 1.15-.28-1.93 7.97-1.16zm15.92-2.32l-7.96 1.15-.28-1.92 7.96-1.15zm15.92-2.32l-7.96 1.16-.28-1.93 7.96-1.16zm15.93-2.3l-7.97 1.15-.28-1.92 7.96-1.16zm15.9-2.5l-6.75 1.16h-.02l-1.18.17-.28-1.94 1.16-.17 6.75-1.15zm15.9-2.84l-3.68.78h-.04l-4.24.73-.32-1.92 4.2-.7 3.66-.8zm15.7-3.68l-7.2 1.86h-.04l-.6.14-.4-1.9.57-.13 7.17-1.85zm15.4-4.85l-5.5 1.92h-.02v.02h-.02l-2.1.64-.57-1.87 2.08-.62 5.5-1.93zm14.9-6.4l-2.64 1.3-.02.02h-.02l-4.65 2.1-.8-1.8 4.64-2.07 2.63-1.3zm13.96-8.22l-3.28 2.2h-.02l-3.52 2.14-1-1.66 3.48-2.13 3.26-2.17zm12.58-10.4l-.67.78v.02h-.02v.02l-.5.54h-.02v.02h-.02l-.3.3v.02h-.04v.02l-3.3 2.87h-.02v.02H507l-1.15.9-1.22-1.5 1.14-.92 3.26-2.83.27-.27.47-.5.66-.77zm9.04-13.48l-4.18 6.74-1.66-1.03 4.18-6.73zm7.7-14.24l-1.77 3.6v.02l-1.97 3.56-1.7-.95 1.94-3.53 1.75-3.57zm3.92-8v.02h-.02v.02l-.36.74-1.75-.86.35-.72 2.47-5.75h2.1zm13.6-37.1l-.68 2.58v.04l-1.64 5.14-1.86-.6 1.62-5.1.67-2.55zm3.68-15.7l-1.65 7.87-1.9-.4 1.64-7.88zm2.2-16.08l-.12 1.95v.04l-.42 3.86v.02l-.03.2v.02l-.3 2-1.93-.3.3-2 .03-.16.4-3.8.14-1.94zm-.14-15.87v.04l.3 4.82v.04l.05 2.86-1.96.04-.05-2.84-.3-4.77-.03-.35 1.93-.2zm-1.34-10.7v.04l.34 2.28-1.93.28-.32-2.26-1.06-5.62 1.92-.36zm-4.55-19.37v.04l1.6 5.78-1.87.52-1.6-5.76-.6-1.92 1.84-.6zm-5.5-15.87v.02l2.3 6.24-1.83.67-2.3-6.2-.53-1.3 1.8-.75zm-3.8-9.05v.02h.02v.02l.12.3-1.8.74-.12-.26-3.27-7 1.77-.82zm-10.2-20.6v.02l3.3 6.35-1.72.9-3.3-6.33-.42-.76 1.7-.97zm-6.62-11.53v.02h.02l2.14 3.74-1.7.97-2.13-3.7-2-3.15 1.66-1.04zm-7.57-11.98l.02.02 1.25 1.98-1.65 1.04-1.24-1.96-3.23-4.68 1.6-1.1zm-13.14-17.37v.02h.02l1.25 1.2v.04h.02l1.14 1.2h.02v.02l1.04 1.2h.02v.02l.95 1.18v.02l.62.82v.02h.02l.2.3-1.6 1.1-.2-.27-.58-.78-.92-1.15-1-1.15-1.12-1.17-1.22-1.18-.14-.12 1.3-1.46zm-11.2-7.86h.02l.02.02 2.4 1.36h.02v.02l2.1 1.3-1.04 1.65-2.06-1.3-2.36-1.33-2.5-1.3.9-1.73zm-13.8-5.93h.04l3.76 1.38-.67 1.83-3.74-1.36-3.83-1.23.6-1.86zm-18.38-4.9h.04l6.65 1.5-.43 1.9-6.63-1.5-1.2-.22.37-1.92zm-9.16-1.7l-.27 1.93-7.96-1.12.28-1.94zm-16-2.07l-.18 1.94-8-.78.18-1.94zm-16.06-1.4l-.1 1.96-8.04-.45.1-1.95zm-128.75-.63l-.02 1.95-8.05-.1.02-1.95zm16.08 1.9l-8.04.03v-1.95l8.05-.03zm16.1-.06l-8.05.03v-1.94l8.04-.03zm16.1-.05l-8.06.02-.02-1.95 8.05-.02zm-64.37-1.98l-.02 1.96-8.05-.1.04-1.94zm80.45 1.92l-8.05.03v-1.95l8.04-.03zm16.1-.05l-8.06.02v-1.95l8.04-.04zm30.05-2.06h.04l2.13.12-.1 1.95-2.1-.12-5.9.03v-1.95l5.93-.02zm-13.97 2l-8.03.03v-1.96l8.03-.03zm-128.66-2.1l-.1 1.94-8.04-.45.1-1.94zm-19.12-1.42l3.1.3-.18 1.94-3.13-.3h-.02l-4.87-.7.3-1.92zm-15.4-2.95l2.44.66.3.07-.42 1.9-.34-.07h-.04l-2.5-.7h-.02l-1.05-.34.58-1.85z" stroke="#3a414a" stroke-width=".05" fill="#3a414a"/><path d="M218.2 774.77l-.6 1.86-1.27-.4.9-1.28.28-.4z" fill="#3a414a"/><path stroke="#3a414a" stroke-width=".05" fill="#3a414a"/><path d="M209.18 1131.3l-5.78 15.3 3.76-3.08 1.23 1.5-3.77 3.1 16.15-2.66.3 1.92-21.4 3.5 7.67-20.28z" stroke="#3a414a" stroke-width=".05" fill="#3a414a"/><use xlink:href="#D" transform="matrix(1,0,0,1,484.55544983113714,977.6032477346657) translate(0.005000000000002558 17.22222222222222)"/><path d="M280 840.33h196l24 24v96H280z" stroke="#000" stroke-width="2" fill="#fff"/><path d="M476 841.3v23.03h23.05" stroke="#000" stroke-width="2" fill="#fff"/><use xlink:href="#E" transform="matrix(1,0,0,1,285,845.3333333333334) translate(0 22.80815972222222)"/><use xlink:href="#F" transform="matrix(1,0,0,1,285,845.3333333333334) translate(87.10069444444446 22.80815972222222)"/><use xlink:href="#G" transform="matrix(1,0,0,1,285,845.3333333333334) translate(0 48.620659722222214)"/><use xlink:href="#H" transform="matrix(1,0,0,1,285,845.3333333333334) translate(40.546875 48.620659722222214)"/><use xlink:href="#I" transform="matrix(1,0,0,1,285,845.3333333333334) translate(110.65104166666666 48.620659722222214)"/><use xlink:href="#J" transform="matrix(1,0,0,1,285,845.3333333333334) translate(145.52951388888889 48.620659722222214)"/><use xlink:href="#K" transform="matrix(1,0,0,1,285,845.3333333333334) translate(0 74.43315972222221)"/><use xlink:href="#L" transform="matrix(1,0,0,1,285,845.3333333333334) translate(21.302083333333336 74.43315972222221)"/><use xlink:href="#M" transform="matrix(1,0,0,1,285,845.3333333333334) translate(88.03819444444446 74.43315972222221)"/><use xlink:href="#N" transform="matrix(1,0,0,1,285,845.3333333333334) translate(139.56597222222223 74.43315972222221)"/><use xlink:href="#O" transform="matrix(1,0,0,1,285,845.3333333333334) translate(0 100.2456597222222)"/><use xlink:href="#P" transform="matrix(1,0,0,1,285,845.3333333333334) translate(85.38194444444446 100.2456597222222)"/><path d="M245.9 1438.28l-.15.8-.15 1-.1 1-.07 1.04-1.94-.12.05-1.05v-.04l.1-1.03v-.02h.02v-.02l.15-1.05v-.04l.17-.83zm6.8-13.84l-.9 1.2-1.07 1.54-.9 1.44-.8 1.36-.55 1.05-1.73-.9.56-1.07h.02v-.04l.82-1.4v-.02h.02l.94-1.48v-.02h.02v-.02l1.1-1.56v-.04l.94-1.22zm11.1-11.14l-.14.12-2.95 2.54-2.44 2.3-.3.3-1.4-1.36.32-.33h.02v-.02h.02l2.47-2.32v-.02h.02l2.98-2.57h.02v-.02l.18-.13zm12.94-9.3l-5 3.32-1.6 1.15-1.14-1.58 1.6-1.17h.02v-.02h.02l5.02-3.32zm13.75-8.02l-5.88 3.22-1.1.66-1-1.67 1.1-.68h.04v-.02l5.9-3.23zm14.22-7.24l-7.18 3.55-.86-1.76 7.17-3.55zm14.54-6.6l-7.32 3.26-.8-1.78 7.33-3.25zm14.72-6.15l-7.26 2.84-.15.07-.78-1.77.15-.08h.04l7.27-2.88zm14.9-5.87l-7.45 2.93-.7-1.82 7.44-2.93zm14.93-5.68l-5.02 1.78-2.45.97-.72-1.82 2.48-.97h.02l5.06-1.8zm15.1-5.34l-7.55 2.68-.65-1.84 7.55-2.67zm15.1-5.33l-7.56 2.67-.65-1.84 7.54-2.67zm15.08-5.35l-7.55 2.67-.65-1.84 7.55-2.68zm15.1-5.34l-7.56 2.67-.65-1.84 7.55-2.66zm15.08-5.34l-7.55 2.67-.64-1.83 7.55-2.67zm15.1-5.35l-7.56 2.66-.65-1.83 7.55-2.67zm15.08-5.35l-7.55 2.67-.66-1.84 7.55-2.67zm15.1-5.34l-7.56 2.68-.65-1.84 7.55-2.67zm15.08-5.34l-7.55 2.68-.65-1.84 7.55-2.67zm14.97-5.84l-6.06 2.68h-.02v.02h-.04l-1.32.47-.65-1.85 1.3-.45 6-2.66zm14.46-7.02l-2.4 1.3v.02h-.02l-4.74 2.35-.86-1.75 4.7-2.33 2.38-1.3zm13.4-9.02l-1.93 1.64h-.02v.02l-1.05.82h-.02v.02l-1.96 1.42h-.02v.02h-.02l-1.42.95-1.07-1.63 1.4-.93 1.93-1.38 1.03-.8 1.92-1.63zm11.8-10.95l-4.16 4.14h-.02v.02l-1.6 1.44-1.3-1.44 1.56-1.43 4.14-4.12zm11-11.67l-5.43 5.88-1.43-1.32 5.44-5.88zm10.42-12.2l-5.18 6.1-1.5-1.28 5.2-6.1zm9.88-12.65l-4.92 6.3-1.54-1.2 4.92-6.3zm9.43-12.98l-4.67 6.5-1.58-1.13 4.65-6.5zm9.03-13.26l-4.38 6.7-1.64-1.07 4.4-6.7zm8.7-13.48l-1.34 2.23v.02h-.02v.02l-2.97 4.53-1.62-1.07 2.95-4.5 1.32-2.22zm8.2-13.75l-4.1 6.87-1.68-1 4.1-6.87zm7.78-14.03l-3.8 7.04-1.7-.93 3.8-7.03zm7.47-14.2l-2.07 4.24v.02h-.02l-1.56 2.9-1.72-.93 1.56-2.87 2.06-4.22zm7.02-14.4l-3.52 7.2-1.75-.86 3.5-7.2zm6.5-14.66l-3.2 7.33-1.8-.78 3.2-7.34zm6.13-14.83l-2.78 7.17v.02H653l-.13.3-1.78-.78.12-.28 2.77-7.14zm5.72-14.98l-.66 1.96h-.02v.04l-2.16 5.53-1.8-.7 2.13-5.52.66-1.94zm5.17-15.15l-2.6 7.57-1.83-.63 2.57-7.56zm4.64-15.36l-2.26 7.68-1.87-.55 2.26-7.67zm4.17-15.5l-1.94 7.78-1.9-.47 1.94-7.76zm3.66-15.6l-1.16 5.54v.04l-.57 2.27-1.9-.48.57-2.24 1.14-5.53zm3.1-15.75l-.48 2.9v.04l-1.02 4.95-1.9-.4 1-4.93.47-2.9zm2.53-15.85l-.1.85v.04l-1.15 7.04-1.93-.3 1.14-7.05.1-.83zm1.9-15.9l-.95 7.95-1.94-.23.95-7.95zm1.26-16l-.63 8-1.94-.16.62-7.98zm.63-16.03l-.28 8-1.95-.07.28-8zm.04-8.04h-1.95l-.05-8h1.95zm-.34-16.04l-1.95.08-.38-8 1.94-.1zm-1-16.03l-1.95.18-.73-7.97 1.95-.18zm-2.35-21.3l.68 5.35-1.93.24-.7-5.36-.3-2.6 1.95-.22zm-1.24-10.53l-1.93.22-.93-7.95 1.94-.2zm-2.2-18.78l.34 2.88-1.94.22-.34-2.88-.53-5.08 1.93-.2zm-1.37-13.03l-1.94.2-.84-7.96 1.93-.2zm-1.67-15.92l-1.94.22-.84-7.97 1.94-.2zm-1.67-15.9l-1.95.2-.83-7.97 1.94-.2zm-1.68-15.93l-1.94.2-.82-7.96 1.94-.2zm-1.67-15.92l-1.94.2-.83-7.96 1.94-.2zm-2.4-22.93v.06l.73 6.95-1.93.2-.73-6.92-.16-.96 1.93-.32zm-1.46-8.9l-1.92.32-1.3-7.9 1.93-.32zm-3.07-18.85v.02l.5 3.02-1.93.32-.5-3-1-4.82 1.92-.4zm-2.63-12.7l-1.9.4-1.63-7.83 1.9-.4zm-7.58-31.16l-1.87.56-2.28-7.68 1.86-.55zm-4.7-15.34l-1.84.63-2.6-7.58 1.85-.63zm-5.37-15.12l-1.8.7-2.92-7.45 1.82-.72zm-8.37-20.03v.04l2.28 5.16-1.8.78-2.24-5.13-1.04-2.12 1.75-.86zm-5.17-10.54v.02l.02.02.58 1.2-1.75.85-.58-1.18-3.17-5.85 1.7-.93zm-10.7-18.77v.02h.02l3.52 5.88-1.68 1-3.5-5.86-.64-.95 1.63-1.08zm-5.55-8.45v.02h.02v.02l.5.73-1.63 1.07-.48-.73-4.15-5.75 1.58-1.14zm-11.53-15.37v.02h.02v.02l2.5 3.16-1.55 1.2-2.47-3.14-2.57-3 1.48-1.28zm-12.24-13.72h.02v.02h.02l4.3 4.64-1.42 1.33-4.3-4.62-1.17-1.16 1.37-1.4zm-6.92-6.82l-1.3 1.45-5.93-5.4 1.3-1.44zm-13.06-11.36h.02v.02l.95.8-1.26 1.5-.92-.78-5.36-4.12 1.2-1.55zM559 557.68h.02l1.8 1.27-1.13 1.6-1.78-1.25-4.87-3.14 1.06-1.64zm-14.37-8.85h.02v.02l2.58 1.5-1 1.7-2.54-1.5-4.43-2.36.9-1.73zm-15.44-7.8v.02h.02l3.77 1.8-.85 1.77-3.75-1.8-3.5-1.5.77-1.8zm-17-6.85h.02v.02h.02l6 2.27-.7 1.83-5.97-2.27-1.5-.5.62-1.85zm-9.3-3.08h.04l.16.06-.62 1.85-.13-.04-7.52-2.15.53-1.87zm-20.87-5.5h.04l5.5 1.34-.46 1.9-5.47-1.33-2.28-.44.38-1.9zm-12.06-2.38h.02l1.88.37-.38 1.9-1.85-.36-6-.93.3-1.9zM456 521.07l-.23 1.94-7.95-.88.22-1.94zm-15.96-1.77l-.14 1.95-7.98-.56.13-1.95zm-20.16-1.4h.04l4.15.3-.13 1.94-4.13-.28-3.82-.1.05-1.95zm-11.85-.3l-.05 1.96-8-.2.05-1.96zm-20.7-.52h.02l4.68.12-.05 1.95-4.67-.12-3.3-.03v-1.95zm-11.32-.1v1.95l-8-.07v-1.95zm-16-.14l-.02 1.95-8-.1.02-1.94zm-16-.15l-.02 1.94-8-.07v-1.95zm-16-.15l-.03 1.95-8-.07v-1.95zm-17.58-.16h1.56l-.02 1.96-1.58-.02h-.06l-6.4-.44.13-1.95zm-15.36-1.06l1 .06-.13 1.95-1.03-.07h-.04l-6.93-.78.2-1.93zm-20.42-2.67l5.6.87-.3 1.92-5.6-.87h-.04l-2.28-.46.38-1.9zm-14.23-3.1l4.2 1-.45 1.9-4.22-1v-.02h-.02l-3.53-1 .54-1.9zm-15.77-5.2l4.73 1.8-.7 1.8-4.74-1.8h-.04l-2.7-1.16.78-1.78zm-12.1-5.78l2.28 1.2-.9 1.73-2.3-1.23h-.04v-.02l-1.2-.7.98-1.68z" stroke="#3a414a" stroke-width=".05" fill="#3a414a"/><path d="M245.43 1442.06l-.04 1.95-1.92-1.88v-.1z" fill="#3a414a"/><path stroke="#3a414a" stroke-width=".05" fill="#3a414a"/><path d="M243.85 494.25l-.1 1.94-16.34-.86 4.08 2.65-1.06 1.62-4.08-2.64 7.43 14.57-1.73.9-9.85-19.34z" stroke="#3a414a" stroke-width=".05" fill="#3a414a"/><g><use xlink:href="#l" transform="matrix(1,0,0,1,602.3355194148642,704.4383336155377) translate(0.005000000000002558 17.22222222222222)"/></g><path d="M230.38 640c0 33.14-35.8 60-80 60-44.18 0-80-26.86-80-60s35.82-60 80-60c44.2 0 80 26.86 80 60z" stroke="#000" stroke-width="2" fill="#fff"/><g><use xlink:href="#j" transform="matrix(1,0,0,1,70.38476283244881,580) translate(26.821987304687497 56.060625)"/><use xlink:href="#n" transform="matrix(1,0,0,1,70.38476283244881,580) translate(70.2904052734375 56.060625)"/><use xlink:href="#Q" transform="matrix(1,0,0,1,70.38476283244881,580) translate(12.043706054687485 76.31537109375)"/><use xlink:href="#R" transform="matrix(1,0,0,1,70.38476283244881,580) translate(86.67893066406249 76.31537109375)"/></g><path d="M69.98 627.8l-248-48.66" stroke="#3a414a" stroke-width="2" fill="none"/><path d="M71.24 627.04l-.4 1.36-.1.53-.97-.2.38-1.9z" stroke="#3a414a" stroke-width=".05" fill="#3a414a"/><path d="M-178 579.15l-3.94-.78" stroke="#3a414a" stroke-width="2" fill="none"/><path d="M600 284.83c0 24.76-40.3 44.84-90 44.84s-90-20.08-90-44.84c0-24.76 40.3-44.83 90-44.83s90 20.07 90 44.83z" stroke="#000" stroke-width="2" fill="#fff"/><g><use xlink:href="#j" transform="matrix(1,0,0,1,420,240) translate(36.8219873046875 40.82625)"/><use xlink:href="#n" transform="matrix(1,0,0,1,420,240) translate(80.2904052734375 40.82625)"/><use xlink:href="#S" transform="matrix(1,0,0,1,420,240) translate(56.287958984374995 61.08099609375)"/></g><path d="M251.73 463.97l2.32-.44 1.6-.37m7.6-2.4l.04-.02 2.26-.95 2.27-1.1 2.3-1.2.35-.2m6.74-4.3l2.47-1.88 2.56-2.12 1.16-1.05m5.7-5.6l1.58-1.67 3.18-3.7.52-.64m4.86-6.36l1.95-2.7 2.6-3.88m4.25-6.78l3-4.98 1.05-1.9m3.84-7.03l2.82-5.14.97-1.9m3.66-7.1l3.64-7.13m3.66-7.12l3.65-7.1m3.65-7.12l3.66-7.12m3.65-7.1l3.67-7.13m4.08-6.88l1.7-2.8 2.6-3.94m4.6-6.54l1.08-1.5 3.47-4.38.37-.43m5.34-5.95l.46-.48 2.8-2.75 2.54-2.3m6.3-4.9l1.28-.88 2.36-1.5 2.32-1.35.87-.45m7.3-3.27l.95-.35 2.3-.75 2.3-.64 2.12-.5m7.9-1.17l2.3-.14 1.7-.05" stroke="#3a414a" stroke-width="2" stroke-linejoin="round" fill="none"/><path d="M261.47 473.2l-18.1-8.53 16.44-11.4m-16.42 11.4l8.47-.7" stroke="#3a414a" stroke-width="2" fill="none"/><path d="M419 284.82v.4l.03.6h-1.06v-1.96h1.06z" stroke="#3a414a" stroke-width=".05" fill="#3a414a"/><g><use xlink:href="#D" transform="matrix(1,0,0,1,238.46154644354306,317.28034659560967) translate(0.005000000000002558 17.22222222222222)"/></g><path d="M255.6 720c-4.3 0-7.8 3.5-7.8 7.8v14.4c0 4.3-3.5 7.8-7.8 7.8 4.3 0 7.8 3.5 7.8 7.8v14.4c0 4.3 3.5 7.8 7.8 7.8m168.8 0c4.3 0 7.8-3.5 7.8-7.8v-14.4c0-4.3 3.5-7.8 7.8-7.8-4.3 0-7.8-3.5-7.8-7.8v-14.4c0-4.3-3.5-7.8-7.8-7.8" stroke="#000" stroke-width="2" fill="none"/><g><use xlink:href="#T" transform="matrix(1,0,0,1,251.7,720) translate(4.098958333333329 23.560763888888893)"/><use xlink:href="#U" transform="matrix(1,0,0,1,251.7,720) translate(57.64930555555555 23.560763888888893)"/><use xlink:href="#V" transform="matrix(1,0,0,1,251.7,720) translate(93.46527777777777 23.560763888888893)"/><use xlink:href="#W" transform="matrix(1,0,0,1,251.7,720) translate(134.01215277777777 23.560763888888893)"/><use xlink:href="#X" transform="matrix(1,0,0,1,251.7,720) translate(29.854166666666664 49.37326388888889)"/><use xlink:href="#Y" transform="matrix(1,0,0,1,251.7,720) translate(59.05555555555556 49.37326388888889)"/></g><path d="M150.85 406.3v.04l.14 2.22-1.96.12-.14-2.18-.18-1.76 1.94-.2zm-2.1-14.28v.04l.84 4.3v.04l.02.17-1.93.3-.03-.15-.83-4.27-.8-3.33 1.9-.45zm-4.96-16.14v.02l1.55 4.1v.02l.3.9-1.85.6-.28-.86-1.53-4.04-1.06-2.46 1.8-.77zm-4.53-9.75l-1.75.87-3.56-7.16 1.75-.87zm-14.78-34.55l1.1 3.88v.07h-2.02l-.97-3.44v-.04l-.5-2.08 1.9-.45zm-2.47-12.94l.46 3.13-1.94.3-.47-3.16v-.02l-.52-4.8 1.94-.2zm-.95-12.66l-1.95.04-.08-4 1.95-.04z" stroke="#3a414a" stroke-width=".05" fill="#3a414a"/><path d="M120 301h.92l.08 1-1.95.05-.03-1.08z" fill="#3a414a"/><path stroke="#3a414a" stroke-width=".05" fill="#3a414a"/><path d="M160.55 399.8l-10.17 19.15-11.5-18.4 1.65-1.02 8.68 13.87-.16-4.86 1.95-.07.16 4.86 7.67-14.45z" stroke="#3a414a" stroke-width=".05" fill="#3a414a"/><g><use xlink:href="#l" transform="matrix(1,0,0,1,72.4247562914504,335.52738627609875) translate(0.005000000000002558 17.22222222222222)"/></g><path d="M151.36 578h-1.95v-3.56h1.96zm0-10.68h-1.95v-7.12h1.96zm0-28.8h-1.95v-6.8h1.96zm0-13.9h-1.95v-3.57h1.96z" stroke="#3a414a" stroke-width=".05" fill="#3a414a"/><path d="M151.36 579.03l-.96-.03h-.94l-.05-1.03h1.96z" fill="#3a414a"/><path stroke="#3a414a" stroke-width=".05" fill="#3a414a"/><path d="M161.23 529.5l-1.7.98-8.17-14.18v4.87h-1.95v-4.87l-8.17 14.18-1.7-.98 10.85-18.78z" stroke="#3a414a" stroke-width=".05" fill="#3a414a"/><g><use xlink:href="#l" transform="matrix(1,0,0,1,94.23892949911547,538.5250853050854) translate(0.005000000000002558 17.22222222222222)"/></g><defs><path d="M537 14c-226 0-379-139-379-422v-710h180v695c0 172 97 275 253 275 160 0 281-109 281-300v-670h181V0H879v-209C806-46 684 14 537 14" id="Z"/><path d="M577 24c-279 0-473-224-473-580 0-354 195-576 474-576 218 0 287 134 324 193h14v-551h180V0H922v-173h-20C865-111 790 24 577 24zm27-161c203 0 314-172 314-421 0-247-108-413-314-413-212 0-317 181-317 413 0 235 108 421 317 421" id="aa"/><g id="a"><use transform="matrix(0.013020833333333334,0,0,0.013020833333333334,0,0)" xlink:href="#Z"/><use transform="matrix(0.013020833333333334,0,0,0.013020833333333334,15.768229166666668,0)" xlink:href="#aa"/></g><path d="M657 26c-323 0-524-166-541-416h195c15 169 171 246 346 246 202 0 356-106 356-265 5-203-294-238-475-293-239-73-380-191-380-389 0-252 224-419 512-419 294 0 499 171 508 396H992c-17-145-151-228-328-228-193 0-321 102-321 242 0 156 175 211 284 241l149 41c160 44 422 134 422 412 0 244-197 432-541 432" id="ab"/><path d="M613 24c-304 0-509-231-509-576 0-350 205-580 509-580 216 0 392 114 453 309l-173 49c-33-115-133-197-280-197-223 0-326 196-326 419 0 220 103 415 326 415 150 0 252-85 285-206l172 49C1010-95 832 24 613 24" id="ac"/><path d="M613 24c-304 0-509-231-509-576 0-350 205-580 509-580 305 0 511 230 511 580 0 345-206 576-511 576zm0-161c226 0 329-195 329-415 0-222-103-419-329-419-223 0-326 196-326 419 0 220 103 415 326 415" id="ad"/><path d="M598-1118v154H368v674c0 100 37 144 132 144 23 0 62-6 92-12L629-6c-37 13-88 20-134 20-193 0-307-107-307-290v-688H20v-154h168v-266h180v266h230" id="ae"/><path d="M180 0v-1490h901v168H370v510h643v168H370V0H180" id="af"/><path d="M158 0v-1118h174v172h12c41-113 157-188 290-188 26 0 70 2 91 3v181c-11-2-60-10-108-10-161 0-279 109-279 260V0H158" id="ag"/><path d="M628 24c-324 0-524-230-524-574 0-343 198-582 503-582 237 0 487 146 487 559v75H286c9 234 145 362 343 362 132 0 231-58 273-172l174 48C1024-91 857 24 628 24zM287-650h624c-17-190-120-322-304-322-192 0-309 151-320 322" id="ah"/><g id="b"><use transform="matrix(0.013020833333333334,0,0,0.013020833333333334,0,0)" xlink:href="#ab"/><use transform="matrix(0.013020833333333334,0,0,0.013020833333333334,17.109375,0)" xlink:href="#ac"/><use transform="matrix(0.013020833333333334,0,0,0.013020833333333334,32.34375,0)" xlink:href="#ad"/><use transform="matrix(0.013020833333333334,0,0,0.013020833333333334,48.333333333333336,0)" xlink:href="#Z"/><use transform="matrix(0.013020833333333334,0,0,0.013020833333333334,64.1015625,0)" xlink:href="#ae"/><use transform="matrix(0.013020833333333334,0,0,0.013020833333333334,72.82552083333333,0)" xlink:href="#af"/><use transform="matrix(0.013020833333333334,0,0,0.013020833333333334,87.51302083333333,0)" xlink:href="#ad"/><use transform="matrix(0.013020833333333334,0,0,0.013020833333333334,103.50260416666666,0)" xlink:href="#ag"/><use transform="matrix(0.013020833333333334,0,0,0.013020833333333334,113.09895833333334,0)" xlink:href="#ac"/><use transform="matrix(0.013020833333333334,0,0,0.013020833333333334,128.33333333333331,0)" xlink:href="#ah"/></g><path d="M174-520v-126l944-476v196L406-588v12l712 338v194" id="ai"/><path d="M538 24C308 24 148-78 108-271l171-41c32 123 123 178 257 178 156 0 256-77 256-169 0-77-54-128-164-154l-186-44c-203-48-300-148-300-305 0-192 176-326 414-326 230 0 351 112 402 269l-163 42c-31-80-94-158-238-158-133 0-233 69-233 162 0 83 57 129 188 160l169 40c203 48 298 149 298 302 0 196-179 339-441 339" id="aj"/><path d="M140 405l46-156c120 36 205 19 263-150l32-93L54-1118h197c107 313 237 620 324 950 87-331 219-637 326-950h196L606 167c-68 178-176 259-334 259-64 0-113-12-132-21" id="ak"/><path d="M158 0v-1118h175l1 205c55-151 181-225 313-225 147 0 245 90 285 228 53-141 190-228 352-228 194 0 352 125 352 384V0h-181v-749c0-161-105-225-225-225-151 0-243 103-243 244V0H807v-767c0-124-93-207-219-207-131 0-250 92-250 270V0H158" id="al"/><path d="M1181-520L237-44v-194l712-338v-12L237-926v-196l944 476v126" id="am"/><g id="c"><use transform="matrix(0.013020833333333334,0,0,0.013020833333333334,0,0)" xlink:href="#ai"/><use transform="matrix(0.013020833333333334,0,0,0.013020833333333334,17.643229166666668,0)" xlink:href="#ai"/><use transform="matrix(0.013020833333333334,0,0,0.013020833333333334,35.286458333333336,0)" xlink:href="#aj"/><use transform="matrix(0.013020833333333334,0,0,0.013020833333333334,49.36197916666667,0)" xlink:href="#ak"/><use transform="matrix(0.013020833333333334,0,0,0.013020833333333334,64.34895833333334,0)" xlink:href="#aj"/><use transform="matrix(0.013020833333333334,0,0,0.013020833333333334,78.42447916666667,0)" xlink:href="#ae"/><use transform="matrix(0.013020833333333334,0,0,0.013020833333333334,86.88802083333333,0)" xlink:href="#ah"/><use transform="matrix(0.013020833333333334,0,0,0.013020833333333334,102.43489583333333,0)" xlink:href="#al"/><use transform="matrix(0.013020833333333334,0,0,0.013020833333333334,125.79427083333334,0)" xlink:href="#am"/><use transform="matrix(0.013020833333333334,0,0,0.013020833333333334,143.4375,0)" xlink:href="#am"/></g><path d="M645 0H180v-1490h484c435 0 692 280 692 742 0 466-257 748-711 748zM370-168h263c363 0 539-218 539-580 0-358-176-574-521-574H370v1154" id="an"/><path d="M158 0v-1118h180V0H158zm91-1301c-68 0-125-53-125-119s57-119 125-119c69 0 126 53 126 119s-57 119-126 119" id="ao"/><g id="d"><use transform="matrix(0.013020833333333334,0,0,0.013020833333333334,0,0)" xlink:href="#an"/><use transform="matrix(0.013020833333333334,0,0,0.013020833333333334,19.244791666666668,0)" xlink:href="#ao"/><use transform="matrix(0.013020833333333334,0,0,0.013020833333333334,25.703125,0)" xlink:href="#ag"/><use transform="matrix(0.013020833333333334,0,0,0.013020833333333334,35.29947916666667,0)" xlink:href="#ah"/><use transform="matrix(0.013020833333333334,0,0,0.013020833333333334,50.84635416666667,0)" xlink:href="#ac"/><use transform="matrix(0.013020833333333334,0,0,0.013020833333333334,66.08072916666667,0)" xlink:href="#ae"/><use transform="matrix(0.013020833333333334,0,0,0.013020833333333334,74.54427083333333,0)" xlink:href="#ad"/><use transform="matrix(0.013020833333333334,0,0,0.013020833333333334,90.53385416666666,0)" xlink:href="#ag"/></g><g id="e"><use transform="matrix(0.013020833333333334,0,0,0.013020833333333334,0,0)" xlink:href="#ab"/><use transform="matrix(0.013020833333333334,0,0,0.013020833333333334,17.109375,0)" xlink:href="#ac"/><use transform="matrix(0.013020833333333334,0,0,0.013020833333333334,32.34375,0)" xlink:href="#ad"/><use transform="matrix(0.013020833333333334,0,0,0.013020833333333334,48.333333333333336,0)" xlink:href="#Z"/><use transform="matrix(0.013020833333333334,0,0,0.013020833333333334,64.1015625,0)" xlink:href="#ae"/></g><path d="M783 20c-382 0-661-292-661-764 0-473 279-766 661-766 302 0 548 182 601 489h-190c-42-204-217-313-411-313-268 0-476 208-476 590 0 381 209 588 476 588 195 0 369-110 411-313h190c-52 303-296 489-601 489" id="ap"/><path d="M471 26C259 26 90-98 90-318c0-256 228-303 435-329 202-27 287-16 287-108 0-139-79-219-234-219-161 0-248 86-283 164l-173-57c86-203 278-265 451-265 150 0 419 46 419 395V0H815v-152h-12C765-73 660 26 471 26zm31-159c199 0 310-134 310-271v-155c-30 35-226 55-295 64-131 17-246 59-246 186 0 116 97 176 231 176" id="aq"/><g id="f"><use transform="matrix(0.008173828125000001,0,0,0.008173828125000001,0,0)" xlink:href="#ap"/><use transform="matrix(0.008173828125000001,0,0,0.008173828125000001,12.228046875000002,0)" xlink:href="#ag"/><use transform="matrix(0.008173828125000001,0,0,0.008173828125000001,18.252158203125003,0)" xlink:href="#ah"/><use transform="matrix(0.008173828125000001,0,0,0.008173828125000001,28.175185546875007,0)" xlink:href="#aq"/><use transform="matrix(0.008173828125000001,0,0,0.008173828125000001,37.57508789062501,0)" xlink:href="#ae"/><use transform="matrix(0.008173828125000001,0,0,0.008173828125000001,42.88807617187501,0)" xlink:href="#ah"/></g><use transform="matrix(0.008173828125000001,0,0,0.008173828125000001,0,0)" xlink:href="#aq" id="g"/><path d="M180 0v-1490h224l606 953c40 63 108 177 176 312-27-437-7-821-13-1265h190V0h-226C860-448 622-778 356-1262c27 476 11 792 15 1262H180" id="ar"/><path d="M409 0L70-1118h191c89 329 165 560 243 925 75-353 154-601 240-925h192c85 325 161 564 235 922 77-354 157-598 244-922h191L1267 0h-179c-86-307-176-590-250-913C763-588 675-308 588 0H409" id="as"/><g id="h"><use transform="matrix(0.008173828125000001,0,0,0.008173828125000001,0,0)" xlink:href="#ar"/><use transform="matrix(0.008173828125000001,0,0,0.008173828125000001,12.612216796875002,0)" xlink:href="#ah"/><use transform="matrix(0.008173828125000001,0,0,0.008173828125000001,22.0693359375,0)" xlink:href="#as"/></g><path d="M338-1490V0H158v-1490h180" id="at"/><path d="M611 442c-248 0-391-105-460-228l146-94c47 65 117 165 314 165 178 0 307-82 307-266v-224h-17C863-141 792-18 576-18c-268 0-472-195-472-546 0-346 197-568 476-568 216 0 288 133 326 193h17v-179h175V29c0 289-215 413-487 413zm-5-620c203 0 314-146 314-390 0-237-108-403-314-403-213 0-319 180-319 403 0 230 109 390 319 390" id="au"/><path d="M338-670V0H158v-1118h173l1 207c72-158 192-221 342-221 226 0 378 139 378 422V0H872v-695c0-172-96-275-252-275-161 0-282 109-282 300" id="av"/><g id="i"><use transform="matrix(0.008173828125000001,0,0,0.008173828125000001,0,0)" xlink:href="#an"/><use transform="matrix(0.008173828125000001,0,0,0.008173828125000001,12.08091796875,0)" xlink:href="#ah"/><use transform="matrix(0.008173828125000001,0,0,0.008173828125000001,21.84046875,0)" xlink:href="#at"/><use transform="matrix(0.008173828125000001,0,0,0.008173828125000001,25.8946875,0)" xlink:href="#ah"/><use transform="matrix(0.008173828125000001,0,0,0.008173828125000001,35.65423828125,0)" xlink:href="#au"/><use transform="matrix(0.008173828125000001,0,0,0.008173828125000001,45.92056640625,0)" xlink:href="#aq"/><use transform="matrix(0.008173828125000001,0,0,0.008173828125000001,55.32046875,0)" xlink:href="#ae"/><use transform="matrix(0.008173828125000001,0,0,0.008173828125000001,60.796933593750005,0)" xlink:href="#ao"/><use transform="matrix(0.008173828125000001,0,0,0.008173828125000001,64.85115234375,0)" xlink:href="#ad"/><use transform="matrix(0.008173828125000001,0,0,0.008173828125000001,74.88861328125,0)" xlink:href="#av"/></g><path d="M600 0L52-1490h200c166 485 304 806 458 1336 156-533 285-846 449-1336h202L819 0H600" id="aw"/><g id="j"><use transform="matrix(0.008173828125000001,0,0,0.008173828125000001,0,0)" xlink:href="#aw"/><use transform="matrix(0.008173828125000001,0,0,0.008173828125000001,11.549619140625001,0)" xlink:href="#ao"/><use transform="matrix(0.008173828125000001,0,0,0.008173828125000001,15.603837890625002,0)" xlink:href="#ah"/><use transform="matrix(0.008173828125000001,0,0,0.008173828125000001,25.060957031250002,0)" xlink:href="#as"/></g><g id="k"><use transform="matrix(0.008173828125000001,0,0,0.008173828125000001,0,0)" xlink:href="#ab"/><use transform="matrix(0.008173828125000001,0,0,0.008173828125000001,10.740410156250002,0)" xlink:href="#ac"/><use transform="matrix(0.008173828125000001,0,0,0.008173828125000001,20.3037890625,0)" xlink:href="#ad"/><use transform="matrix(0.008173828125000001,0,0,0.008173828125000001,30.341250000000002,0)" xlink:href="#Z"/><use transform="matrix(0.008173828125000001,0,0,0.008173828125000001,40.239755859375,0)" xlink:href="#ae"/><use transform="matrix(0.008173828125000001,0,0,0.008173828125000001,45.552744140625,0)" xlink:href="#aj"/></g><path fill="#333" d="M166-471v-247l1019-454v289L492-601v13l693 282v287" id="ax"/><path fill="#333" d="M128 0v-1118h300V0H128zm150-1264c-91 0-165-68-165-154 0-85 74-154 165-154 90 0 165 69 165 154 0 86-75 154-165 154" id="ay"/><path fill="#333" d="M428-647V0H128v-1118h283l4 231c63-156 176-245 348-245 232 0 384 159 384 421V0H847v-659c0-139-76-222-202-222-128 0-217 86-217 234" id="az"/><path fill="#333" d="M628 22C291 22 81-210 81-554c0-346 210-578 547-578 265 0 455 142 497 372l-279 52c-25-116-99-188-215-188-160 0-244 139-244 341 0 200 84 341 244 341 116 0 193-74 217-195l279 51C1085-123 896 22 628 22" id="aA"/><path fill="#333" d="M428-1490V0H128v-1490h300" id="aB"/><path fill="#333" d="M513 14c-232 0-385-159-385-421v-711h300v659c0 139 76 222 202 222 127 0 217-86 217-234v-647h301V0H864l-4-232C797-74 683 14 513 14" id="aC"/><path fill="#333" d="M537 19C279 19 81-185 81-557c0-382 206-575 454-575 190 0 278 113 318 202h10v-560h300V0H868v-179h-15C812-89 719 19 537 19zm92-241c153 0 240-134 240-336 0-203-86-334-240-334-158 0-240 138-240 334 0 197 84 336 240 336" id="aD"/><path fill="#333" d="M633 22C291 22 81-200 81-553c0-345 210-579 537-579 292 0 525 185 525 567v84H378c7 183 109 277 260 277 105 0 184-46 216-132l272 51C1071-99 893 22 633 22zM380-669h474c-15-146-94-237-233-237-143 0-229 99-241 237" id="aE"/><path fill="#333" d="M1224-471L205-19v-287l694-281v-14L205-883v-289l1019 454v247" id="aF"/><g id="l"><use transform="matrix(0.008680555555555556,0,0,0.008680555555555556,0,0)" xlink:href="#ax"/><use transform="matrix(0.008680555555555556,0,0,0.008680555555555556,12.065972222222223,0)" xlink:href="#ax"/><use transform="matrix(0.008680555555555556,0,0,0.008680555555555556,24.131944444444446,0)" xlink:href="#ay"/><use transform="matrix(0.008680555555555556,0,0,0.008680555555555556,28.94965277777778,0)" xlink:href="#az"/><use transform="matrix(0.008680555555555556,0,0,0.008680555555555556,40.017361111111114,0)" xlink:href="#aA"/><use transform="matrix(0.008680555555555556,0,0,0.008680555555555556,50.47743055555556,0)" xlink:href="#aB"/><use transform="matrix(0.008680555555555556,0,0,0.008680555555555556,55.29513888888889,0)" xlink:href="#aC"/><use transform="matrix(0.008680555555555556,0,0,0.008680555555555556,66.36284722222223,0)" xlink:href="#aD"/><use transform="matrix(0.008680555555555556,0,0,0.008680555555555556,77.56944444444446,0)" xlink:href="#aE"/><use transform="matrix(0.008680555555555556,0,0,0.008680555555555556,88.15972222222223,0)" xlink:href="#aF"/><use transform="matrix(0.008680555555555556,0,0,0.008680555555555556,100.22569444444447,0)" xlink:href="#aF"/></g><path d="M763 24c-353 0-583-224-583-531v-983h190v968c0 214 149 370 393 370 243 0 391-156 391-370v-968h190v983c0 307-230 531-581 531" id="aG"/><path d="M158 418v-1536h174v179h20c37-59 106-193 324-193 279 0 474 222 474 576 0 356-194 580-473 580-213 0-288-135-325-197h-14v591H158zm492-555c209 0 317-186 317-421 0-232-105-413-317-413-206 0-314 166-314 413 0 249 111 421 314 421" id="aH"/><g id="m"><use transform="matrix(0.008173828125000001,0,0,0.008173828125000001,0,0)" xlink:href="#aG"/><use transform="matrix(0.008173828125000001,0,0,0.008173828125000001,12.456914062500001,0)" xlink:href="#aH"/><use transform="matrix(0.008173828125000001,0,0,0.008173828125000001,22.70689453125,0)" xlink:href="#aa"/><use transform="matrix(0.008173828125000001,0,0,0.008173828125000001,32.956875000000004,0)" xlink:href="#aq"/><use transform="matrix(0.008173828125000001,0,0,0.008173828125000001,42.356777343750004,0)" xlink:href="#ae"/><use transform="matrix(0.008173828125000001,0,0,0.008173828125000001,47.669765625000004,0)" xlink:href="#ah"/></g><path d="M180 0v-1490h510c348 0 508 209 508 474 0 266-160 477-507 477H370V0H180zm190-706h312c236 0 327-133 327-310 0-176-91-307-329-307H370v617" id="aI"/><path d="M232-923l-22-567h194l-22 567H232" id="aJ"/><g id="n"><use transform="matrix(0.008173828125000001,0,0,0.008173828125000001,0,0)" xlink:href="#aI"/><use transform="matrix(0.008173828125000001,0,0,0.008173828125000001,10.691367187500001,0)" xlink:href="#at"/><use transform="matrix(0.008173828125000001,0,0,0.008173828125000001,14.745585937500001,0)" xlink:href="#aq"/><use transform="matrix(0.008173828125000001,0,0,0.008173828125000001,23.900273437500005,0)" xlink:href="#ak"/><use transform="matrix(0.008173828125000001,0,0,0.008173828125000001,32.981396484375004,0)" xlink:href="#ah"/><use transform="matrix(0.008173828125000001,0,0,0.008173828125000001,42.740947265625,0)" xlink:href="#ag"/><use transform="matrix(0.008173828125000001,0,0,0.008173828125000001,49.04296875,0)" xlink:href="#aJ"/><use transform="matrix(0.008173828125000001,0,0,0.008173828125000001,54.06169921875,0)" xlink:href="#aj"/></g><g id="o"><use transform="matrix(0.008173828125000001,0,0,0.008173828125000001,0,0)" xlink:href="#ab"/><use transform="matrix(0.008173828125000001,0,0,0.008173828125000001,10.740410156250002,0)" xlink:href="#ae"/><use transform="matrix(0.008173828125000001,0,0,0.008173828125000001,16.298613281250002,0)" xlink:href="#aq"/><use transform="matrix(0.008173828125000001,0,0,0.008173828125000001,25.698515625000006,0)" xlink:href="#ae"/><use transform="matrix(0.008173828125000001,0,0,0.008173828125000001,31.174980468750007,0)" xlink:href="#Z"/><use transform="matrix(0.008173828125000001,0,0,0.008173828125000001,41.07348632812501,0)" xlink:href="#aj"/></g><path d="M677 24c-213 0-288-135-325-197h-20V0H158v-1490h180v551h14c37-59 106-193 324-193 279 0 474 222 474 576 0 356-194 580-473 580zm-27-161c209 0 317-186 317-421 0-232-105-413-317-413-206 0-314 166-314 413 0 249 111 421 314 421" id="aK"/><g id="p"><use transform="matrix(0.013020833333333334,0,0,0.013020833333333334,0,0)" xlink:href="#ap"/><use transform="matrix(0.013020833333333334,0,0,0.013020833333333334,19.479166666666668,0)" xlink:href="#at"/><use transform="matrix(0.013020833333333334,0,0,0.013020833333333334,25.9375,0)" xlink:href="#Z"/><use transform="matrix(0.013020833333333334,0,0,0.013020833333333334,41.70572916666667,0)" xlink:href="#aK"/></g><path d="M180 0v-1490h908v168H370v486h669v168H370v500h727V0H180" id="aL"/><g id="q"><use transform="matrix(0.013020833333333334,0,0,0.013020833333333334,0,0)" xlink:href="#aL"/><use transform="matrix(0.013020833333333334,0,0,0.013020833333333334,16.028645833333336,0)" xlink:href="#al"/><use transform="matrix(0.013020833333333334,0,0,0.013020833333333334,39.388020833333336,0)" xlink:href="#aH"/><use transform="matrix(0.013020833333333334,0,0,0.013020833333333334,55.716145833333336,0)" xlink:href="#at"/><use transform="matrix(0.013020833333333334,0,0,0.013020833333333334,62.17447916666667,0)" xlink:href="#ad"/><use transform="matrix(0.013020833333333334,0,0,0.013020833333333334,77.64322916666667,0)" xlink:href="#ak"/><use transform="matrix(0.013020833333333334,0,0,0.013020833333333334,92.10937500000001,0)" xlink:href="#ah"/><use transform="matrix(0.013020833333333334,0,0,0.013020833333333334,107.65625,0)" xlink:href="#ah"/></g><g id="r"><use transform="matrix(0.008173828125000001,0,0,0.008173828125000001,0,0)" xlink:href="#aI"/><use transform="matrix(0.008173828125000001,0,0,0.008173828125000001,10.691367187500001,0)" xlink:href="#at"/><use transform="matrix(0.008173828125000001,0,0,0.008173828125000001,14.745585937500001,0)" xlink:href="#aq"/><use transform="matrix(0.008173828125000001,0,0,0.008173828125000001,23.900273437500005,0)" xlink:href="#ak"/><use transform="matrix(0.008173828125000001,0,0,0.008173828125000001,32.981396484375004,0)" xlink:href="#ah"/><use transform="matrix(0.008173828125000001,0,0,0.008173828125000001,42.740947265625,0)" xlink:href="#ag"/><use transform="matrix(0.008173828125000001,0,0,0.008173828125000001,49.04296875,0)" xlink:href="#aj"/></g><path d="M180 0v-1490h190v1322h690V0H180" id="aM"/><g id="s"><use transform="matrix(0.008173828125000001,0,0,0.008173828125000001,0,0)" xlink:href="#aM"/><use transform="matrix(0.008173828125000001,0,0,0.008173828125000001,9.465292968750001,0)" xlink:href="#ao"/><use transform="matrix(0.008173828125000001,0,0,0.008173828125000001,13.519511718750001,0)" xlink:href="#aj"/><use transform="matrix(0.008173828125000001,0,0,0.008173828125000001,22.355419921875004,0)" xlink:href="#ae"/></g><g id="t"><use transform="matrix(0.008173828125000001,0,0,0.008173828125000001,0,0)" xlink:href="#ab"/><use transform="matrix(0.008173828125000001,0,0,0.008173828125000001,10.740410156250002,0)" xlink:href="#ac"/><use transform="matrix(0.008173828125000001,0,0,0.008173828125000001,20.3037890625,0)" xlink:href="#ad"/><use transform="matrix(0.008173828125000001,0,0,0.008173828125000001,30.341250000000002,0)" xlink:href="#ag"/><use transform="matrix(0.008173828125000001,0,0,0.008173828125000001,36.904833984375,0)" xlink:href="#ao"/><use transform="matrix(0.008173828125000001,0,0,0.008173828125000001,40.95905273437501,0)" xlink:href="#av"/><use transform="matrix(0.008173828125000001,0,0,0.008173828125000001,50.849384765625004,0)" xlink:href="#au"/></g><path d="M52 0l541-1490h220L1361 0h-200l-149-416H398L254 0H52zm404-582h497c-103-290-145-390-251-756-108 377-145 460-246 756" id="aN"/><g id="u"><use transform="matrix(0.008173828125000001,0,0,0.008173828125000001,0,0)" xlink:href="#aN"/><use transform="matrix(0.008173828125000001,0,0,0.008173828125000001,11.549619140625001,0)" xlink:href="#av"/><use transform="matrix(0.008173828125000001,0,0,0.008173828125000001,21.439951171875002,0)" xlink:href="#aq"/><use transform="matrix(0.008173828125000001,0,0,0.008173828125000001,30.839853515625002,0)" xlink:href="#at"/><use transform="matrix(0.008173828125000001,0,0,0.008173828125000001,34.975810546875,0)" xlink:href="#ak"/><use transform="matrix(0.008173828125000001,0,0,0.008173828125000001,44.383886718750006,0)" xlink:href="#aj"/><use transform="matrix(0.008173828125000001,0,0,0.008173828125000001,53.21979492187501,0)" xlink:href="#ao"/><use transform="matrix(0.008173828125000001,0,0,0.008173828125000001,57.27401367187501,0)" xlink:href="#aj"/></g><path d="M180 0v-1490h528c311 0 458 177 458 395 0 191-114 278-244 313v14c139 9 302 137 302 371 0 225-148 397-499 397H180zm190-168h350c232 0 321-102 321-231 0-149-120-277-311-277H370v508zm0-668h328c160 0 286-101 286-255 0-129-87-231-280-231H370v486" id="aO"/><g id="v"><use transform="matrix(0.008173828125000001,0,0,0.008173828125000001,0,0)" xlink:href="#aO"/><use transform="matrix(0.008173828125000001,0,0,0.008173828125000001,10.952929687500001,0)" xlink:href="#ao"/><use transform="matrix(0.008173828125000001,0,0,0.008173828125000001,15.007148437500001,0)" xlink:href="#au"/><use transform="matrix(0.008173828125000001,0,0,0.008173828125000001,25.2734765625,0)" xlink:href="#aO"/><use transform="matrix(0.008173828125000001,0,0,0.008173828125000001,36.226406250000004,0)" xlink:href="#ad"/><use transform="matrix(0.008173828125000001,0,0,0.008173828125000001,46.427343750000006,0)" xlink:href="#aq"/><use transform="matrix(0.008173828125000001,0,0,0.008173828125000001,55.827246093750006,0)" xlink:href="#ag"/><use transform="matrix(0.008173828125000001,0,0,0.008173828125000001,61.85135742187501,0)" xlink:href="#aa"/></g><path d="M180 0v-1490h510c348 0 508 194 508 460 0 198-88 351-276 417L1256 0h-220L726-579c-117 2-238 0-356 1V0H180zm190-747h312c235 0 327-108 327-283 0-177-92-293-329-293H370v576" id="aP"/><path d="M158 0v-1490h180v865h22l478-493h223L593-638 1096 0H865L456-523 338-412V0H158" id="aQ"/><g id="w"><use transform="matrix(0.008173828125000001,0,0,0.008173828125000001,0,0)" xlink:href="#aP"/><use transform="matrix(0.008173828125000001,0,0,0.008173828125000001,10.691367187500001,0)" xlink:href="#aq"/><use transform="matrix(0.008173828125000001,0,0,0.008173828125000001,20.091269531250003,0)" xlink:href="#av"/><use transform="matrix(0.008173828125000001,0,0,0.008173828125000001,29.981601562500003,0)" xlink:href="#aQ"/><use transform="matrix(0.008173828125000001,0,0,0.008173828125000001,39.16898437500001,0)" xlink:href="#ao"/><use transform="matrix(0.008173828125000001,0,0,0.008173828125000001,43.22320312500001,0)" xlink:href="#av"/><use transform="matrix(0.008173828125000001,0,0,0.008173828125000001,53.11353515625001,0)" xlink:href="#au"/></g><g id="x"><use transform="matrix(0.008173828125000001,0,0,0.008173828125000001,0,0)" xlink:href="#ab"/><use transform="matrix(0.008173828125000001,0,0,0.008173828125000001,10.740410156250002,0)" xlink:href="#ac"/><use transform="matrix(0.008173828125000001,0,0,0.008173828125000001,20.3037890625,0)" xlink:href="#ad"/><use transform="matrix(0.008173828125000001,0,0,0.008173828125000001,30.341250000000002,0)" xlink:href="#Z"/><use transform="matrix(0.008173828125000001,0,0,0.008173828125000001,40.239755859375,0)" xlink:href="#ae"/><use transform="matrix(0.008173828125000001,0,0,0.008173828125000001,45.716220703125,0)" xlink:href="#ao"/><use transform="matrix(0.008173828125000001,0,0,0.008173828125000001,49.77043945312501,0)" xlink:href="#av"/><use transform="matrix(0.008173828125000001,0,0,0.008173828125000001,59.660771484375005,0)" xlink:href="#au"/></g><g id="y"><use transform="matrix(0.008173828125000001,0,0,0.008173828125000001,0,0)" xlink:href="#aP"/><use transform="matrix(0.008173828125000001,0,0,0.008173828125000001,10.527890625000001,0)" xlink:href="#ah"/><use transform="matrix(0.008173828125000001,0,0,0.008173828125000001,20.287441406250004,0)" xlink:href="#aH"/><use transform="matrix(0.008173828125000001,0,0,0.008173828125000001,30.537421875000007,0)" xlink:href="#ad"/><use transform="matrix(0.008173828125000001,0,0,0.008173828125000001,40.57488281250001,0)" xlink:href="#ag"/><use transform="matrix(0.008173828125000001,0,0,0.008173828125000001,47.13846679687501,0)" xlink:href="#ae"/></g><g id="z"><use transform="matrix(0.008173828125000001,0,0,0.008173828125000001,0,0)" xlink:href="#aN"/><use transform="matrix(0.008173828125000001,0,0,0.008173828125000001,11.549619140625001,0)" xlink:href="#aa"/><use transform="matrix(0.008173828125000001,0,0,0.008173828125000001,21.799599609375,0)" xlink:href="#aa"/></g><g id="A"><use transform="matrix(0.008173828125000001,0,0,0.008173828125000001,0,0)" xlink:href="#an"/><use transform="matrix(0.008173828125000001,0,0,0.008173828125000001,12.08091796875,0)" xlink:href="#ah"/><use transform="matrix(0.008173828125000001,0,0,0.008173828125000001,21.84046875,0)" xlink:href="#ae"/><use transform="matrix(0.008173828125000001,0,0,0.008173828125000001,27.398671875,0)" xlink:href="#aq"/><use transform="matrix(0.008173828125000001,0,0,0.008173828125000001,36.798574218750005,0)" xlink:href="#ao"/><use transform="matrix(0.008173828125000001,0,0,0.008173828125000001,40.85279296875001,0)" xlink:href="#at"/><use transform="matrix(0.008173828125000001,0,0,0.008173828125000001,44.90701171875001,0)" xlink:href="#ah"/><use transform="matrix(0.008173828125000001,0,0,0.008173828125000001,54.66656250000001,0)" xlink:href="#aa"/></g><g id="B"><use transform="matrix(0.008173828125000001,0,0,0.008173828125000001,0,0)" xlink:href="#aP"/><use transform="matrix(0.008173828125000001,0,0,0.008173828125000001,10.691367187500001,0)" xlink:href="#aq"/><use transform="matrix(0.008173828125000001,0,0,0.008173828125000001,20.091269531250003,0)" xlink:href="#ae"/><use transform="matrix(0.008173828125000001,0,0,0.008173828125000001,25.567734375000004,0)" xlink:href="#ao"/><use transform="matrix(0.008173828125000001,0,0,0.008173828125000001,29.621953125000005,0)" xlink:href="#av"/><use transform="matrix(0.008173828125000001,0,0,0.008173828125000001,39.51228515625,0)" xlink:href="#au"/><use transform="matrix(0.008173828125000001,0,0,0.008173828125000001,49.77861328125,0)" xlink:href="#aj"/></g><g id="C"><use transform="matrix(0.008173828125000001,0,0,0.008173828125000001,0,0)" xlink:href="#an"/><use transform="matrix(0.008173828125000001,0,0,0.008173828125000001,12.08091796875,0)" xlink:href="#ah"/><use transform="matrix(0.008173828125000001,0,0,0.008173828125000001,21.84046875,0)" xlink:href="#at"/><use transform="matrix(0.008173828125000001,0,0,0.008173828125000001,25.8946875,0)" xlink:href="#ah"/><use transform="matrix(0.008173828125000001,0,0,0.008173828125000001,35.65423828125,0)" xlink:href="#au"/><use transform="matrix(0.008173828125000001,0,0,0.008173828125000001,45.92056640625,0)" xlink:href="#aq"/><use transform="matrix(0.008173828125000001,0,0,0.008173828125000001,55.32046875,0)" xlink:href="#ae"/><use transform="matrix(0.008173828125000001,0,0,0.008173828125000001,60.796933593750005,0)" xlink:href="#ao"/><use transform="matrix(0.008173828125000001,0,0,0.008173828125000001,64.85115234375,0)" xlink:href="#ad"/><use transform="matrix(0.008173828125000001,0,0,0.008173828125000001,74.88861328125,0)" xlink:href="#av"/><use transform="matrix(0.008173828125000001,0,0,0.008173828125000001,84.7789453125,0)" xlink:href="#aj"/></g><path fill="#333" d="M42 0l360-574-338-544h324c72 124 151 261 209 394 58-134 140-271 215-394h318L785-570 1146 0H824c-79-136-169-280-234-425C528-278 439-134 360 0H42" id="aR"/><path fill="#333" d="M683-1118v229H474v562c0 71 29 104 102 104 23 0 73-7 95-13l43 225C647 9 580 16 520 16 296 16 174-96 174-301v-588H20v-229h154v-266h300v266h209" id="aS"/><g id="D"><use transform="matrix(0.008680555555555556,0,0,0.008680555555555556,0,0)" xlink:href="#ax"/><use transform="matrix(0.008680555555555556,0,0,0.008680555555555556,12.065972222222223,0)" xlink:href="#ax"/><use transform="matrix(0.008680555555555556,0,0,0.008680555555555556,24.131944444444446,0)" xlink:href="#aE"/><use transform="matrix(0.008680555555555556,0,0,0.008680555555555556,34.36631944444444,0)" xlink:href="#aR"/><use transform="matrix(0.008680555555555556,0,0,0.008680555555555556,44.93055555555556,0)" xlink:href="#aS"/><use transform="matrix(0.008680555555555556,0,0,0.008680555555555556,51.26736111111111,0)" xlink:href="#aE"/><use transform="matrix(0.008680555555555556,0,0,0.008680555555555556,61.857638888888886,0)" xlink:href="#az"/><use transform="matrix(0.008680555555555556,0,0,0.008680555555555556,72.92534722222221,0)" xlink:href="#aD"/><use transform="matrix(0.008680555555555556,0,0,0.008680555555555556,84.13194444444444,0)" xlink:href="#aF"/><use transform="matrix(0.008680555555555556,0,0,0.008680555555555556,96.19791666666667,0)" xlink:href="#aF"/></g><path d="M65 0l393-574-370-544h210c88 136 192 297 267 435 67-142 176-302 264-435h206L661-564 1053 0H844c-94-144-206-310-287-458C484-308 366-142 273 0H65" id="aT"/><g id="E"><use transform="matrix(0.008680555555555556,0,0,0.008680555555555556,0,0)" xlink:href="#aL"/><use transform="matrix(0.008680555555555556,0,0,0.008680555555555556,10.68576388888889,0)" xlink:href="#aT"/><use transform="matrix(0.008680555555555556,0,0,0.008680555555555556,20.73784722222222,0)" xlink:href="#ae"/><use transform="matrix(0.008680555555555556,0,0,0.008680555555555556,26.380208333333332,0)" xlink:href="#ah"/><use transform="matrix(0.008680555555555556,0,0,0.008680555555555556,36.74479166666666,0)" xlink:href="#av"/><use transform="matrix(0.008680555555555556,0,0,0.008680555555555556,47.248263888888886,0)" xlink:href="#aj"/><use transform="matrix(0.008680555555555556,0,0,0.008680555555555556,56.631944444444436,0)" xlink:href="#ao"/><use transform="matrix(0.008680555555555556,0,0,0.008680555555555556,60.9375,0)" xlink:href="#ad"/><use transform="matrix(0.008680555555555556,0,0,0.008680555555555556,71.59722222222223,0)" xlink:href="#av"/></g><path d="M295 13c-75 0-135-60-135-135s60-135 135-135 135 60 135 135S370 13 295 13zm0-809c-75 0-135-60-135-135s60-135 135-135 135 60 135 135-60 135-135 135" id="aU"/><g id="F"><use transform="matrix(0.008680555555555556,0,0,0.008680555555555556,0,0)" xlink:href="#aH"/><use transform="matrix(0.008680555555555556,0,0,0.008680555555555556,10.885416666666668,0)" xlink:href="#ad"/><use transform="matrix(0.008680555555555556,0,0,0.008680555555555556,21.545138888888893,0)" xlink:href="#ao"/><use transform="matrix(0.008680555555555556,0,0,0.008680555555555556,25.85069444444445,0)" xlink:href="#av"/><use transform="matrix(0.008680555555555556,0,0,0.008680555555555556,36.35416666666667,0)" xlink:href="#ae"/><use transform="matrix(0.008680555555555556,0,0,0.008680555555555556,42.17013888888889,0)" xlink:href="#aU"/></g><g id="G"><use transform="matrix(0.008680555555555556,0,0,0.008680555555555556,0,0)" xlink:href="#ad"/><use transform="matrix(0.008680555555555556,0,0,0.008680555555555556,10.659722222222223,0)" xlink:href="#av"/><use transform="matrix(0.008680555555555556,0,0,0.008680555555555556,21.163194444444446,0)" xlink:href="#at"/><use transform="matrix(0.008680555555555556,0,0,0.008680555555555556,25.555555555555557,0)" xlink:href="#ak"/></g><g id="H"><use transform="matrix(0.008680555555555556,0,0,0.008680555555555556,0,0)" xlink:href="#aa"/><use transform="matrix(0.008680555555555556,0,0,0.008680555555555556,10.885416666666668,0)" xlink:href="#ao"/><use transform="matrix(0.008680555555555556,0,0,0.008680555555555556,15.190972222222223,0)" xlink:href="#ag"/><use transform="matrix(0.008680555555555556,0,0,0.008680555555555556,21.588541666666668,0)" xlink:href="#ah"/><use transform="matrix(0.008680555555555556,0,0,0.008680555555555556,31.953125,0)" xlink:href="#ac"/><use transform="matrix(0.008680555555555556,0,0,0.008680555555555556,42.109375,0)" xlink:href="#ae"/><use transform="matrix(0.008680555555555556,0,0,0.008680555555555556,47.75173611111111,0)" xlink:href="#ad"/><use transform="matrix(0.008680555555555556,0,0,0.008680555555555556,58.41145833333333,0)" xlink:href="#ag"/></g><path d="M338-670V0H158v-1490h180v566c73-149 190-208 336-208 226 0 379 139 379 422V0H872v-695c0-172-96-275-252-275-161 0-282 109-282 300" id="aV"/><g id="I"><use transform="matrix(0.008680555555555556,0,0,0.008680555555555556,0,0)" xlink:href="#aV"/><use transform="matrix(0.008680555555555556,0,0,0.008680555555555556,10.512152777777779,0)" xlink:href="#aq"/><use transform="matrix(0.008680555555555556,0,0,0.008680555555555556,20.494791666666668,0)" xlink:href="#aj"/></g><g id="J"><use transform="matrix(0.008680555555555556,0,0,0.008680555555555556,0,0)" xlink:href="#ad"/><use transform="matrix(0.008680555555555556,0,0,0.008680555555555556,10.659722222222223,0)" xlink:href="#aH"/><use transform="matrix(0.008680555555555556,0,0,0.008680555555555556,21.545138888888893,0)" xlink:href="#ae"/><use transform="matrix(0.008680555555555556,0,0,0.008680555555555556,27.36111111111111,0)" xlink:href="#ao"/><use transform="matrix(0.008680555555555556,0,0,0.008680555555555556,31.66666666666667,0)" xlink:href="#ad"/><use transform="matrix(0.008680555555555556,0,0,0.008680555555555556,42.32638888888889,0)" xlink:href="#av"/></g><g id="K"><use transform="matrix(0.008680555555555556,0,0,0.008680555555555556,0,0)" xlink:href="#ae"/><use transform="matrix(0.008680555555555556,0,0,0.008680555555555556,5.642361111111112,0)" xlink:href="#ad"/></g><g id="L"><use transform="matrix(0.008680555555555556,0,0,0.008680555555555556,0,0)" xlink:href="#ac"/><use transform="matrix(0.008680555555555556,0,0,0.008680555555555556,10.15625,0)" xlink:href="#aV"/><use transform="matrix(0.008680555555555556,0,0,0.008680555555555556,20.66840277777778,0)" xlink:href="#ad"/><use transform="matrix(0.008680555555555556,0,0,0.008680555555555556,31.328125,0)" xlink:href="#ad"/><use transform="matrix(0.008680555555555556,0,0,0.008680555555555556,41.98784722222222,0)" xlink:href="#aj"/><use transform="matrix(0.008680555555555556,0,0,0.008680555555555556,51.37152777777778,0)" xlink:href="#ah"/></g><g id="M"><use transform="matrix(0.008680555555555556,0,0,0.008680555555555556,0,0)" xlink:href="#aj"/><use transform="matrix(0.008680555555555556,0,0,0.008680555555555556,9.383680555555555,0)" xlink:href="#ac"/><use transform="matrix(0.008680555555555556,0,0,0.008680555555555556,19.539930555555557,0)" xlink:href="#ad"/><use transform="matrix(0.008680555555555556,0,0,0.008680555555555556,30.19965277777778,0)" xlink:href="#Z"/><use transform="matrix(0.008680555555555556,0,0,0.008680555555555556,40.71180555555556,0)" xlink:href="#ae"/></g><path d="M678-1118v154H420V0H240v-964H20v-154h220v-149c0-194 155-293 318-293 85 0 141 18 168 30l-50 154c-19-6-47-17-97-17-111 0-159 58-159 166v109h258" id="aW"/><g id="N"><use transform="matrix(0.008680555555555556,0,0,0.008680555555555556,0,0)" xlink:href="#aW"/><use transform="matrix(0.008680555555555556,0,0,0.008680555555555556,6.579861111111112,0)" xlink:href="#ag"/><use transform="matrix(0.008680555555555556,0,0,0.008680555555555556,12.977430555555559,0)" xlink:href="#ad"/><use transform="matrix(0.008680555555555556,0,0,0.008680555555555556,23.63715277777778,0)" xlink:href="#al"/></g><g id="O"><use transform="matrix(0.008680555555555556,0,0,0.008680555555555556,0,0)" xlink:href="#aa"/><use transform="matrix(0.008680555555555556,0,0,0.008680555555555556,10.885416666666668,0)" xlink:href="#ao"/><use transform="matrix(0.008680555555555556,0,0,0.008680555555555556,15.190972222222223,0)" xlink:href="#aj"/><use transform="matrix(0.008680555555555556,0,0,0.008680555555555556,24.57465277777778,0)" xlink:href="#aH"/><use transform="matrix(0.008680555555555556,0,0,0.008680555555555556,35.46006944444444,0)" xlink:href="#at"/><use transform="matrix(0.008680555555555556,0,0,0.008680555555555556,39.765625,0)" xlink:href="#aq"/><use transform="matrix(0.008680555555555556,0,0,0.008680555555555556,49.487847222222236,0)" xlink:href="#ak"/><use transform="matrix(0.008680555555555556,0,0,0.008680555555555556,59.13194444444445,0)" xlink:href="#ah"/><use transform="matrix(0.008680555555555556,0,0,0.008680555555555556,69.49652777777779,0)" xlink:href="#aa"/></g><g id="P"><use transform="matrix(0.008680555555555556,0,0,0.008680555555555556,0,0)" xlink:href="#at"/><use transform="matrix(0.008680555555555556,0,0,0.008680555555555556,4.305555555555555,0)" xlink:href="#ao"/><use transform="matrix(0.008680555555555556,0,0,0.008680555555555556,8.61111111111111,0)" xlink:href="#aj"/><use transform="matrix(0.008680555555555556,0,0,0.008680555555555556,17.994791666666664,0)" xlink:href="#ae"/></g><g id="Q"><use transform="matrix(0.008173828125000001,0,0,0.008173828125000001,0,0)" xlink:href="#ab"/><use transform="matrix(0.008173828125000001,0,0,0.008173828125000001,10.740410156250002,0)" xlink:href="#ac"/><use transform="matrix(0.008173828125000001,0,0,0.008173828125000001,20.3037890625,0)" xlink:href="#ad"/><use transform="matrix(0.008173828125000001,0,0,0.008173828125000001,30.341250000000002,0)" xlink:href="#Z"/><use transform="matrix(0.008173828125000001,0,0,0.008173828125000001,40.239755859375,0)" xlink:href="#ae"/><use transform="matrix(0.008173828125000001,0,0,0.008173828125000001,45.716220703125,0)" xlink:href="#ao"/><use transform="matrix(0.008173828125000001,0,0,0.008173828125000001,49.77043945312501,0)" xlink:href="#av"/><use transform="matrix(0.008173828125000001,0,0,0.008173828125000001,59.660771484375005,0)" xlink:href="#au"/></g><g id="R"><use transform="matrix(0.008173828125000001,0,0,0.008173828125000001,0,0)" xlink:href="#aP"/><use transform="matrix(0.008173828125000001,0,0,0.008173828125000001,10.527890625000001,0)" xlink:href="#ah"/><use transform="matrix(0.008173828125000001,0,0,0.008173828125000001,20.287441406250004,0)" xlink:href="#aH"/><use transform="matrix(0.008173828125000001,0,0,0.008173828125000001,30.537421875000007,0)" xlink:href="#ad"/><use transform="matrix(0.008173828125000001,0,0,0.008173828125000001,40.57488281250001,0)" xlink:href="#ag"/><use transform="matrix(0.008173828125000001,0,0,0.008173828125000001,47.13846679687501,0)" xlink:href="#ae"/><use transform="matrix(0.008173828125000001,0,0,0.008173828125000001,52.45145507812501,0)" xlink:href="#aj"/></g><g id="S"><use transform="matrix(0.008173828125000001,0,0,0.008173828125000001,0,0)" xlink:href="#al"/><use transform="matrix(0.008173828125000001,0,0,0.008173828125000001,14.663847656250002,0)" xlink:href="#aq"/><use transform="matrix(0.008173828125000001,0,0,0.008173828125000001,24.063750000000006,0)" xlink:href="#ae"/><use transform="matrix(0.008173828125000001,0,0,0.008173828125000001,29.376738281250006,0)" xlink:href="#ac"/><use transform="matrix(0.008173828125000001,0,0,0.008173828125000001,38.94011718750001,0)" xlink:href="#aV"/><use transform="matrix(0.008173828125000001,0,0,0.008173828125000001,48.83862304687501,0)" xlink:href="#ah"/><use transform="matrix(0.008173828125000001,0,0,0.008173828125000001,58.598173828125006,0)" xlink:href="#aj"/></g><g id="T"><use transform="matrix(0.008680555555555556,0,0,0.008680555555555556,0,0)" xlink:href="#ab"/><use transform="matrix(0.008680555555555556,0,0,0.008680555555555556,11.40625,0)" xlink:href="#ac"/><use transform="matrix(0.008680555555555556,0,0,0.008680555555555556,21.5625,0)" xlink:href="#ad"/><use transform="matrix(0.008680555555555556,0,0,0.008680555555555556,32.22222222222222,0)" xlink:href="#Z"/><use transform="matrix(0.008680555555555556,0,0,0.008680555555555556,42.734375,0)" xlink:href="#ae"/></g><g id="U"><use transform="matrix(0.008680555555555556,0,0,0.008680555555555556,0,0)" xlink:href="#ac"/><use transform="matrix(0.008680555555555556,0,0,0.008680555555555556,10.32986111111111,0)" xlink:href="#aq"/><use transform="matrix(0.008680555555555556,0,0,0.008680555555555556,20.3125,0)" xlink:href="#av"/></g><g id="V"><use transform="matrix(0.008680555555555556,0,0,0.008680555555555556,0,0)" xlink:href="#ad"/><use transform="matrix(0.008680555555555556,0,0,0.008680555555555556,10.659722222222223,0)" xlink:href="#av"/><use transform="matrix(0.008680555555555556,0,0,0.008680555555555556,21.163194444444446,0)" xlink:href="#at"/><use transform="matrix(0.008680555555555556,0,0,0.008680555555555556,25.555555555555557,0)" xlink:href="#ak"/></g><path d="M481 0L54-1118h197c107 314 236 620 325 951 87-331 217-637 324-951h197L670 0H481" id="aX"/><g id="W"><use transform="matrix(0.008680555555555556,0,0,0.008680555555555556,0,0)" xlink:href="#aX"/><use transform="matrix(0.008680555555555556,0,0,0.008680555555555556,9.991319444444445,0)" xlink:href="#ao"/><use transform="matrix(0.008680555555555556,0,0,0.008680555555555556,14.296875,0)" xlink:href="#ah"/><use transform="matrix(0.008680555555555556,0,0,0.008680555555555556,24.34027777777778,0)" xlink:href="#as"/></g><g id="X"><use transform="matrix(0.008680555555555556,0,0,0.008680555555555556,0,0)" xlink:href="#aV"/><use transform="matrix(0.008680555555555556,0,0,0.008680555555555556,10.512152777777779,0)" xlink:href="#ao"/><use transform="matrix(0.008680555555555556,0,0,0.008680555555555556,14.817708333333334,0)" xlink:href="#aj"/></g><g id="Y"><use transform="matrix(0.008680555555555556,0,0,0.008680555555555556,0,0)" xlink:href="#aa"/><use transform="matrix(0.008680555555555556,0,0,0.008680555555555556,10.885416666666668,0)" xlink:href="#ah"/><use transform="matrix(0.008680555555555556,0,0,0.008680555555555556,21.25,0)" xlink:href="#at"/><use transform="matrix(0.008680555555555556,0,0,0.008680555555555556,25.555555555555557,0)" xlink:href="#ah"/><use transform="matrix(0.008680555555555556,0,0,0.008680555555555556,35.92013888888889,0)" xlink:href="#au"/><use transform="matrix(0.008680555555555556,0,0,0.008680555555555556,46.82291666666667,0)" xlink:href="#aq"/><use transform="matrix(0.008680555555555556,0,0,0.008680555555555556,56.80555555555556,0)" xlink:href="#ae"/><use transform="matrix(0.008680555555555556,0,0,0.008680555555555556,62.62152777777778,0)" xlink:href="#ao"/><use transform="matrix(0.008680555555555556,0,0,0.008680555555555556,66.92708333333333,0)" xlink:href="#ad"/><use transform="matrix(0.008680555555555556,0,0,0.008680555555555556,77.58680555555556,0)" xlink:href="#av"/></g></defs></g></svg>