<svg xmlns="http://www.w3.org/2000/svg" xmlns:xlink="http://www.w3.org/1999/xlink" xmlns:lucid="lucid" width="1282" height="1822"><g transform="translate(421 -19)" lucid:page-tab-id="o60UY1mXwL34"><path d="M-500 0h1500v2000H-500z" fill="#fff"/><path d="M-420 26a6 6 0 0 1 6-6h208a6 6 0 0 1 6 6v8a14.48 14.48 0 0 1-4.24 10.24l-1.52 1.52A14.48 14.48 0 0 1-216 50h-198a6 6 0 0 1-6-6z" fill="#fff"/><path d="M-200 20v20l-10 10h-210" stroke="#000" stroke-width="2" fill="none"/><path d="M-420 26a6 6 0 0 1 6-6H854a6 6 0 0 1 6 6v1808a6 6 0 0 1-6 6H-414a6 6 0 0 1-6-6z" stroke="#000" stroke-width="2" fill="none"/><use xlink:href="#a" transform="matrix(1,0,0,1,-412,20) translate(0 25.833333333333336)"/><use xlink:href="#b" transform="matrix(1,0,0,1,-412,20) translate(39.59635416666667 25.833333333333336)"/><path d="M-20 86a6 6 0 0 1 6-6h788a6 6 0 0 1 6 6v1668a6 6 0 0 1-6 6H-14a6 6 0 0 1-6-6z" stroke="#000" stroke-width="2" fill-opacity="0"/><use xlink:href="#c" transform="matrix(1,0,0,1,-12,88) translate(311.4596354166667 25.833333333333336)"/><path d="M-199.75 999.95v-.2A19.75 19.75 0 0 1-180 980a19.75 19.75 0 0 1 19.75 19.75A19.75 19.75 0 0 1-180 1019.5a19.75 19.75 0 0 1-19.75-19.75v-.2" stroke="#000" stroke-width="2" fill="#fff"/><path d="M-220 986a6 6 0 0 1 6-6h68a6 6 0 0 1 6 6v146a6 6 0 0 1-6 6h-68a6 6 0 0 1-6-6z" fill="none"/><path d="M-180 1019.5v55.3l40 63.2m-40-63.2l-40 63.2m0-98.75h80" stroke="#000" stroke-width="2" fill="none"/><use xlink:href="#d" transform="matrix(1,0,0,1,-300,1138) translate(69.71354166666667 25.833333333333336)"/><path d="M-199.75 1339.95v-.2A19.75 19.75 0 0 1-180 1320a19.75 19.75 0 0 1 19.75 19.75A19.75 19.75 0 0 1-180 1359.5a19.75 19.75 0 0 1-19.75-19.75v-.2" stroke="#000" stroke-width="2" fill="#fff"/><path d="M-220 1326a6 6 0 0 1 6-6h68a6 6 0 0 1 6 6v146a6 6 0 0 1-6 6h-68a6 6 0 0 1-6-6z" fill="none"/><path d="M-180 1359.5v55.3l40 63.2m-40-63.2l-40 63.2m0-98.75h80" stroke="#000" stroke-width="2" fill="none"/><use xlink:href="#e" transform="matrix(1,0,0,1,-300,1478) translate(83.58723958333334 25.833333333333336)"/><path d="M220 860c0 33.14-35.82 60-80 60s-80-26.86-80-60 35.82-60 80-60 80 26.86 80 60z" stroke="#000" stroke-width="2" fill="#fff"/><use xlink:href="#f" transform="matrix(1,0,0,1,60,800) translate(26.38877441406249 56.060625)"/><use xlink:href="#g" transform="matrix(1,0,0,1,60,800) translate(83.7445263671875 56.060625)"/><use xlink:href="#h" transform="matrix(1,0,0,1,60,800) translate(97.85255371093751 56.060625)"/><use xlink:href="#i" transform="matrix(1,0,0,1,60,800) translate(37.615527343749996 76.31537109375)"/><path d="M-146.12 1037.73L78.1 900.6M-146.1 1037.7l-3.43 2.12" stroke="#3a414a" stroke-width="2" fill="none"/><path d="M79.72 900.74l-1.14.7-1-1.67.6-.38z" stroke="#3a414a" stroke-width=".05" fill="#3a414a"/><path d="M220 1060c0 33.14-35.82 60-80 60s-80-26.86-80-60 35.82-60 80-60 80 26.86 80 60z" stroke="#000" stroke-width="2" fill="#fff"/><use xlink:href="#j" transform="matrix(1,0,0,1,60,1000) translate(18.893374023437495 65.904375)"/><use xlink:href="#k" transform="matrix(1,0,0,1,60,1000) translate(62.3617919921875 65.904375)"/><use xlink:href="#l" transform="matrix(1,0,0,1,60,1000) translate(86.72797363281249 65.904375)"/><path d="M-178 1058.8l236.1 3.7M-177.97 1058.8l-4.03-.08" stroke="#3a414a" stroke-width="2" fill="none"/><path d="M59.05 1061.55l.07 1.76.02.2h-1.1l.04-1.96zM140.97 988.6h-1.94v-4.15h1.94zm0-12.48h-1.94v-8.32h1.94zm0-33.3h-1.94v-8.33h1.94zm0-16.66h-1.94V922h1.94z" stroke="#3a414a" stroke-width=".05" fill="#3a414a"/><path d="M140 921h.92l.06 1.03h-1.95v-1.06z" fill="#3a414a"/><path stroke="#3a414a" stroke-width=".05" fill="#3a414a"/><path d="M150.84 980.17L140 998.95l-10.84-18.78 1.68-.98 8.2 14.16v-4.86h1.94v4.86l8.18-14.17z" stroke="#3a414a" stroke-width=".05" fill="#3a414a"/><use xlink:href="#m" transform="matrix(1,0,0,1,83.85416666666669,943.4854166928651) translate(0.005000000000002558 17.22222222222222)"/><path d="M320 1520c0 33.14-35.82 60-80 60s-80-26.86-80-60 35.82-60 80-60 80 26.86 80 60z" stroke="#000" stroke-width="2" fill="#fff"/><use xlink:href="#n" transform="matrix(1,0,0,1,160,1460) translate(17.487475585937496 56.060625)"/><use xlink:href="#o" transform="matrix(1,0,0,1,160,1460) translate(79.62491699218751 56.060625)"/><use xlink:href="#p" transform="matrix(1,0,0,1,160,1460) translate(55.050302734374995 76.31537109375)"/><path d="M-178.04 1399.34l340.56 100.34M-178.02 1399.35l-3.86-1.14" stroke="#3a414a" stroke-width="2" fill="none"/><path d="M163.9 1499.07l-.32.64-.5 1.16-.86-.26.55-1.87z" stroke="#3a414a" stroke-width=".05" fill="#3a414a"/><path d="M-199.75 519.95v-.2A19.75 19.75 0 0 1-180 500a19.75 19.75 0 0 1 19.75 19.75A19.75 19.75 0 0 1-180 539.5a19.75 19.75 0 0 1-19.75-19.75v-.2" stroke="#000" stroke-width="2" fill="#fff"/><path d="M-220 506a6 6 0 0 1 6-6h68a6 6 0 0 1 6 6v146a6 6 0 0 1-6 6h-68a6 6 0 0 1-6-6z" fill="none"/><path d="M-180 539.5v55.3l40 63.2m-40-63.2l-40 63.2m0-98.75h80" stroke="#000" stroke-width="2" fill="none"/><use xlink:href="#q" transform="matrix(1,0,0,1,-300,658) translate(25.631510416666657 25.833333333333336)"/><use xlink:href="#r" transform="matrix(1,0,0,1,-300,658) translate(91.16536458333333 25.833333333333336)"/><path d="M-180 1299v-43a6 6 0 0 0-6-6h-118a6 6 0 0 1-6-6V872a6 6 0 0 1 6-6h123M-180 1298.97v1.03M-181.03 866h1.03M-180 939V724.65M-180 938.97V940" stroke="#3a414a" stroke-width="2" fill="none"/><path d="M-180 702l12.5 21.65h-25z" stroke="#3a414a" stroke-width="2" fill="#fff"/><path d="M210 164.67c0 24.85-42.53 45-95 45s-95-20.15-95-45c0-24.86 42.53-45 95-45s95 20.14 95 45z" stroke="#000" stroke-width="2" fill="#fff"/><use xlink:href="#s" transform="matrix(1,0,0,1,20,119.66666666666663) translate(13.908364257812488 51.0215625)"/><use xlink:href="#t" transform="matrix(1,0,0,1,20,119.66666666666663) translate(48.38557128906249 51.0215625)"/><use xlink:href="#u" transform="matrix(1,0,0,1,20,119.66666666666663) translate(67.47963378906249 51.0215625)"/><use xlink:href="#v" transform="matrix(1,0,0,1,20,119.66666666666663) translate(87.5382080078125 51.0215625)"/><use xlink:href="#w" transform="matrix(1,0,0,1,20,119.66666666666663) translate(117.3808544921875 51.0215625)"/><path d="M-164.8 557.44l248.93-348.3M-164.8 557.42l-2.33 3.27" stroke="#3a414a" stroke-width="2" fill="none"/><path d="M84.55 208.32l1.26.16-.9 1.26-1.58-1.13.33-.45z" stroke="#3a414a" stroke-width=".05" fill="#3a414a"/><path d="M240 284.83c0 24.76-40.3 44.84-90 44.84s-90-20.08-90-44.84c0-24.76 40.3-44.83 90-44.83s90 20.07 90 44.83z" stroke="#000" stroke-width="2" fill="#fff"/><use xlink:href="#j" transform="matrix(1,0,0,1,60,240) translate(23.061347656249986 51.0215625)"/><use xlink:href="#x" transform="matrix(1,0,0,1,60,240) translate(66.52976562499998 51.0215625)"/><use xlink:href="#y" transform="matrix(1,0,0,1,60,240) translate(129.116767578125 51.0215625)"/><path d="M-156.22 557.6l261.94-231.85M-156.2 557.57l-3 2.67" stroke="#3a414a" stroke-width="2" fill="none"/><path d="M107.6 325.38l-1.25 1.12-1.3-1.46.28-.24z" stroke="#3a414a" stroke-width=".05" fill="#3a414a"/><path d="M240 420c0 33.14-35.82 60-80 60s-80-26.86-80-60 35.82-60 80-60 80 26.86 80 60z" stroke="#000" stroke-width="2" fill="#fff"/><use xlink:href="#j" transform="matrix(1,0,0,1,80,360) translate(26.821987304687497 56.060625)"/><use xlink:href="#o" transform="matrix(1,0,0,1,80,360) translate(70.2904052734375 56.060625)"/><use xlink:href="#z" transform="matrix(1,0,0,1,80,360) translate(14.038120117187484 76.31537109375)"/><use xlink:href="#A" transform="matrix(1,0,0,1,80,360) translate(79.86195800781249 76.31537109375)"/><path d="M-139.1 559.67L91.63 454.15" stroke="#3a414a" stroke-width="2" fill="none"/><path d="M-138.66 560.55l-3.66 1.67-.8-1.77.42-.2h2.7v-1.23l.53-.25zM93.2 454.5l-1.2.55-.8-1.78.65-.3z" stroke="#3a414a" stroke-width=".05" fill="#3a414a"/><path d="M220 1200c0 33.14-35.82 60-80 60s-80-26.86-80-60 35.82-60 80-60 80 26.86 80 60z" stroke="#000" stroke-width="2" fill="#fff"/><use xlink:href="#j" transform="matrix(1,0,0,1,60,1140) translate(22.22012207031249 56.060625)"/><use xlink:href="#B" transform="matrix(1,0,0,1,60,1140) translate(65.6885400390625 56.060625)"/><use xlink:href="#C" transform="matrix(1,0,0,1,60,1140) translate(48.31506835937499 76.31537109375)"/><path d="M67.78 1170.62l-245.87-111" stroke="#3a414a" stroke-width="2" fill="none"/><path d="M69.3 1170.23l-.52.67-.64.95-.78-.35.8-1.78z" stroke="#3a414a" stroke-width=".05" fill="#3a414a"/><path d="M-178.06 1059.63l-3.67-1.66" stroke="#3a414a" stroke-width="2" fill="none"/><path d="M320 1379.5c0 33.14-35.82 60-80 60s-80-26.86-80-60 35.82-60 80-60 80 26.86 80 60z" stroke="#000" stroke-width="2" fill="#fff"/><use xlink:href="#f" transform="matrix(1,0,0,1,160,1319.4988140727328) translate(16.363574218749996 56.060625)"/><use xlink:href="#D" transform="matrix(1,0,0,1,160,1319.4988140727328) translate(73.71932617187501 56.060625)"/><use xlink:href="#E" transform="matrix(1,0,0,1,160,1319.4988140727328) translate(53.697534179687494 76.31537109375)"/><path d="M158.38 1385.4L-178 1398.67" stroke="#3a414a" stroke-width="2" fill="none"/><path d="M159.4 1385.7l.12.62-1.13.05-.1-1.95.98-.04z" stroke="#3a414a" stroke-width=".05" fill="#3a414a"/><path d="M-177.97 1398.68l-4.03.16" stroke="#3a414a" stroke-width="2" fill="none"/><path d="M680 1410c0 33.14-35.82 60-80 60s-80-26.86-80-60 35.82-60 80-60 80 26.86 80 60z" stroke="#000" stroke-width="2" fill="#fff"/><use xlink:href="#F" transform="matrix(1,0,0,1,520,1350) translate(15.243759765624995 56.060625)"/><use xlink:href="#G" transform="matrix(1,0,0,1,520,1350) translate(79.84969726562501 56.060625)"/><use xlink:href="#H" transform="matrix(1,0,0,1,520,1350) translate(50.69773925781249 76.31537109375)"/><path d="M509.25 1401.33l-.16 1.95-3.92-.34.16-1.94zm-11.73-1l-.16 1.95-7.82-.66.16-1.94zm-15.64-1.32l-.16 1.96-5.57-.48v-1.95zm-125.13-10.6l-.16 1.95-7.83-.66.16-1.95zm-15.64-1.3l-.16 1.93-7.8-.66.15-1.95zm-15.63-1.34l-.17 1.94-3.9-.33.16-1.94z" stroke="#3a414a" stroke-width=".05" fill="#3a414a"/><path d="M519.47 1403.18l-19.63 9.22-.83-1.77 14.82-6.95-4.85-.4.17-1.96 4.84.4-13.42-9.33 1.1-1.6z" stroke="#3a414a" stroke-width=".05" fill="#3a414a"/><path d="M321.58 1385.43l-.16 1.95-1.1-.1.3-1.93z" fill="#3a414a"/><path stroke="#3a414a" stroke-width=".05" fill="#3a414a"/><use xlink:href="#m" transform="matrix(1,0,0,1,363.85416666666663,1383.9941987030331) translate(0.005000000000002558 17.22222222222222)"/><path d="M260 542.5c0 23.47-44.77 42.5-100 42.5S60 565.97 60 542.5 104.77 500 160 500s100 19.03 100 42.5z" stroke="#000" stroke-width="2" fill="#fff"/><use xlink:href="#j" transform="matrix(1,0,0,1,60,500) translate(31.463364257812493 48.42390625)"/><use xlink:href="#I" transform="matrix(1,0,0,1,60,500) translate(74.93178222656249 48.42390625)"/><path d="M-178 578.57l240.85-22.54M-177.98 578.56l-4 .38" stroke="#3a414a" stroke-width="2" fill="none"/><path d="M63.5 555.46l.94 1.25.1.15-1.62.15-.18-1.94.45-.04z" stroke="#3a414a" stroke-width=".05" fill="#3a414a"/><path d="M300 1660c0 33.14-35.82 60-80 60s-80-26.86-80-60 35.82-60 80-60 80 26.86 80 60z" stroke="#000" stroke-width="2" fill="#fff"/><g><use xlink:href="#J" transform="matrix(1,0,0,1,140,1600) translate(32.466015625 56.060625)"/><use xlink:href="#K" transform="matrix(1,0,0,1,140,1600) translate(78.50101562500001 56.060625)"/><use xlink:href="#L" transform="matrix(1,0,0,1,140,1600) translate(17.00521972656248 76.31537109375)"/><use xlink:href="#M" transform="matrix(1,0,0,1,140,1600) translate(71.0097021484375 76.31537109375)"/></g><path d="M156.85 1620.5l-335-220.53" stroke="#3a414a" stroke-width="2" fill="none"/><path d="M158.44 1620.38l-1.5 1.34-.65-.42 1.06-1.63z" stroke="#3a414a" stroke-width=".05" fill="#3a414a"/><path d="M-178.14 1399.98l-3.37-2.2" stroke="#3a414a" stroke-width="2" fill="none"/><path d="M211 1010l-3.1 2.57-1.24-1.5 3.12-2.57zm12.8-9.77l-6.45 4.85-1.17-1.55 6.44-4.86zm13.1-9.35l-6.65 4.58-1.1-1.6 6.63-4.58zm13.3-9.04l-2.24 1.4-4.43 3.06-1.1-1.6 4.44-3.07h.02v-.02l2.26-1.42zm13.65-8.6l-6.83 4.3-1.03-1.65 6.8-4.3zm13.76-8.28l-4.18 2.26-2.74 1.72-1.04-1.65 2.76-1.75h.02v-.02h.04l4.23-2.3zm14.22-7.65l-7.1 3.84-.93-1.72 7.1-3.82zm14.2-7.64l-7.1 3.83-.92-1.73 7.1-3.82zm14.2-7.65l-7.1 3.84-.9-1.72 7.1-3.82zm14.22-7.63l-7.1 3.82-.93-1.73 7.12-3.82zm14.2-7.65l-7.1 3.82-.92-1.7 7.1-3.84zm14.2-7.65l-7.1 3.82-.9-1.72 7.1-3.83zm14.22-7.65l-7.1 3.83-.93-1.72 7.1-3.83zm14.2-7.65l-7.1 3.83-.92-1.72 7.1-3.83zm14.2-7.65l-7.1 3.83-.9-1.72 7.1-3.82zm14.2-7.74l-3.22 1.84h-.02l-3.84 2.08-.93-1.72 3.83-2.06 3.2-1.83zm14-8l-7 4-.96-1.7 7-3.98zm13.9-8.27l-6.05 3.8v.02h-.02v.02l-.8.45-.97-1.7.8-.45 6.03-3.8zm13.54-8.84l-5.63 3.88h-.02v.02l-1.06.66-1.04-1.66 1.02-.64 5.6-3.87zm12.98-9.7l-2.36 1.94h-.02v.02l-4 3-1.2-1.54 4-3 2.35-1.93zm11.95-11.02l-1.68 1.77v.02h-.02v.02l-3.28 3.2h-.02v.02l-.8.7-1.3-1.45.77-.68 3.25-3.16 1.66-1.76zm14.52-28.82l-.02.5v.04l-.1 1.26v.04h-.02l-.15 1.28v.04l-.23 1.3v.02l-.03.13h-2l.1-.5.22-1.26.16-1.24.1-1.22.03-.47zm-.35-8.17l-1.94.14-.57-8.06 1.93-.13zm-1.23-16.1l-1.94.2-.82-8.04 1.94-.2zm-1.65-16.06l-1.94.2-.82-8.04 1.94-.2zm-1.68-16.1l-1.93.28-1.14-8 1.93-.26zm-2.3-15.97l-1.93.28-1.14-7.98 1.92-.27zm-2.43-16l-1.9.37-1.5-7.93 1.93-.36zm-3.98-21.3v.04l1.02 5.4-1.92.37-1-5.4-.58-2.47 1.9-.44zm-2.4-10.36l-1.9.44-1.8-7.85 1.9-.44zM480.58 678l-1.88.5-2.15-7.77 1.88-.52zm-6-19.75l.02.02 1.35 4.22-1.85.6-1.35-4.2-1.25-3.4 1.83-.67zm-6.87-17.62h.02v.04l2.75 6.57-1.8.75-2.73-6.56-.4-.84 1.77-.83zm-5.92-12.08v.02h.02l2 3.9-1.72.9-2-3.87-1.83-3.2 1.7-.96zm-10.3-15.52h.02v.02h.02l1.37 1.67v.02h.02l1.24 1.65h.02v.02l1.4 2.03-1.6 1.1-1.38-2-1.22-1.6-1.35-1.63-.92-1.02 1.46-1.3zm-12.44-11l.02.02 2.7 1.96v.02h.02l2.4 1.9v.02h.02l.45.4-1.27 1.47-.44-.37-2.34-1.86-2.66-1.92-.9-.6 1.07-1.63zm-10.77-6.46h.02v.02l2.86 1.56-.94 1.7-2.83-1.55-4.3-2.12.86-1.75zm-17.53-7.7l.02.02h.02l5.72 2.25-.7 1.82-5.72-2.25-1.8-.63.65-1.85zm-9.48-3.24l-.56 1.87-7.73-2.33.57-1.87zm-15.55-4.45l-.47 1.9-7.82-2 .5-1.9zm-15.74-3.72l-.38 1.9-7.9-1.56.37-1.9zm-15.82-3.14l-.38 1.9-7.9-1.56.36-1.9zm-15.83-3.14l-.37 1.9-7.9-1.56.37-1.9zm-20.14-4l4.32.86-.38 1.9-4.32-.85-3.6-.75.4-1.9zm-11.47-2.38l-.4 1.9-7.9-1.63.4-1.9zm-19.26-4.42l3.55.9-.5 1.9-3.56-.92h-.04l-4.2-1.27.56-1.88zm-17.62-6.74l1.4.76 1.72.86 2.2.97.6.24-.72 1.8-.62-.23h-.02l-2.25-1h-.02V556l-1.77-.88h-.02v-.02l-1.44-.78h-.02v-.02l-1.18-.7 1-1.68zm-7.78-9.12l.05.33.05.32.08.33.08.32.12.32.12.33.14.33.16.33.18.35.18.3-1.7 1-.18-.35v-.02h-.02l-.2-.38V547h-.02v-.02l-.17-.37v-.02l-.16-.37v-.02h-.02l-.13-.38h-.02v-.02l-.13-.38v-.02l-.1-.38v-.02h-.02v-.02l-.08-.36v-.04l-.08-.36v-.04l-.06-.37v-.2l1.93-.2z" stroke="#3a414a" stroke-width=".05" fill="#3a414a"/><path d="M262 543.5l-1.03.03.03-1.02v-.4l-.05-.98-.1-.97-.1-.64 1.16-.02z" fill="#3a414a"/><path stroke="#3a414a" stroke-width=".05" fill="#3a414a"/><path d="M208.72 998.76L203 1014.1l3.75-3.1 1.24 1.5-3.76 3.1 16.13-2.7.32 1.9-21.4 3.6 7.6-20.32z" stroke="#3a414a" stroke-width=".05" fill="#3a414a"/><g><use xlink:href="#N" transform="matrix(1,0,0,1,440.7658506400384,818.3251490437917) translate(0.005000000000002558 17.22222222222222)"/></g><path d="M500 860h196l24 24v96H500z" stroke="#000" stroke-width="2" fill="#fff"/><path d="M696 860.95V884h23.05" stroke="#000" stroke-width="2" fill="#fff"/><g><use xlink:href="#O" transform="matrix(1,0,0,1,505,865) translate(0 22.80815972222222)"/><use xlink:href="#P" transform="matrix(1,0,0,1,505,865) translate(87.10069444444446 22.80815972222222)"/><use xlink:href="#Q" transform="matrix(1,0,0,1,505,865) translate(0 48.620659722222214)"/><use xlink:href="#R" transform="matrix(1,0,0,1,505,865) translate(40.546875 48.620659722222214)"/><use xlink:href="#S" transform="matrix(1,0,0,1,505,865) translate(110.65104166666666 48.620659722222214)"/><use xlink:href="#T" transform="matrix(1,0,0,1,505,865) translate(145.52951388888889 48.620659722222214)"/><use xlink:href="#U" transform="matrix(1,0,0,1,505,865) translate(0 74.43315972222221)"/><use xlink:href="#V" transform="matrix(1,0,0,1,505,865) translate(21.302083333333336 74.43315972222221)"/><use xlink:href="#W" transform="matrix(1,0,0,1,505,865) translate(88.03819444444446 74.43315972222221)"/><use xlink:href="#X" transform="matrix(1,0,0,1,505,865) translate(139.56597222222223 74.43315972222221)"/><use xlink:href="#Y" transform="matrix(1,0,0,1,505,865) translate(0 100.2456597222222)"/><use xlink:href="#Z" transform="matrix(1,0,0,1,505,865) translate(85.38194444444446 100.2456597222222)"/></g><path d="M235.6 675c-4.3 0-7.8 3.5-7.8 7.8v14.4c0 4.3-3.5 7.8-7.8 7.8 4.3 0 7.8 3.5 7.8 7.8v14.4c0 4.3 3.5 7.8 7.8 7.8m168.8 0c4.3 0 7.8-3.5 7.8-7.8v-14.4c0-4.3 3.5-7.8 7.8-7.8-4.3 0-7.8-3.5-7.8-7.8v-14.4c0-4.3-3.5-7.8-7.8-7.8" stroke="#000" stroke-width="2" fill="none"/><g><use xlink:href="#aa" transform="matrix(1,0,0,1,231.7,675) translate(4.098958333333329 23.560763888888893)"/><use xlink:href="#ab" transform="matrix(1,0,0,1,231.7,675) translate(57.64930555555555 23.560763888888893)"/><use xlink:href="#ac" transform="matrix(1,0,0,1,231.7,675) translate(93.46527777777777 23.560763888888893)"/><use xlink:href="#ad" transform="matrix(1,0,0,1,231.7,675) translate(134.01215277777777 23.560763888888893)"/><use xlink:href="#ae" transform="matrix(1,0,0,1,231.7,675) translate(29.854166666666664 49.37326388888889)"/><use xlink:href="#af" transform="matrix(1,0,0,1,231.7,675) translate(59.05555555555556 49.37326388888889)"/></g><path d="M220 680c0 33.14-35.82 60-80 60s-80-26.86-80-60 35.82-60 80-60 80 26.86 80 60z" stroke="#000" stroke-width="2" fill="#fff"/><g><use xlink:href="#j" transform="matrix(1,0,0,1,60,620) translate(26.821987304687497 56.060625)"/><use xlink:href="#o" transform="matrix(1,0,0,1,60,620) translate(70.2904052734375 56.060625)"/><use xlink:href="#ag" transform="matrix(1,0,0,1,60,620) translate(12.043706054687485 76.31537109375)"/><use xlink:href="#ah" transform="matrix(1,0,0,1,60,620) translate(86.67893066406249 76.31537109375)"/></g><path d="M63.17 658.35l-241.22-78.96" stroke="#3a414a" stroke-width="2" fill="none"/><path d="M64.56 657.78l-.9 1.76-.82-.27.6-1.86z" stroke="#3a414a" stroke-width=".05" fill="#3a414a"/><path d="M-178.03 579.4l-3.82-1.25" stroke="#3a414a" stroke-width="2" fill="none"/><defs><path d="M537 14c-226 0-379-139-379-422v-710h180v695c0 172 97 275 253 275 160 0 281-109 281-300v-670h181V0H879v-209C806-46 684 14 537 14" id="ai"/><path d="M577 24c-279 0-473-224-473-580 0-354 195-576 474-576 218 0 287 134 324 193h14v-551h180V0H922v-173h-20C865-111 790 24 577 24zm27-161c203 0 314-172 314-421 0-247-108-413-314-413-212 0-317 181-317 413 0 235 108 421 317 421" id="aj"/><g id="a"><use transform="matrix(0.013020833333333334,0,0,0.013020833333333334,0,0)" xlink:href="#ai"/><use transform="matrix(0.013020833333333334,0,0,0.013020833333333334,15.768229166666668,0)" xlink:href="#aj"/></g><path d="M657 26c-323 0-524-166-541-416h195c15 169 171 246 346 246 202 0 356-106 356-265 5-203-294-238-475-293-239-73-380-191-380-389 0-252 224-419 512-419 294 0 499 171 508 396H992c-17-145-151-228-328-228-193 0-321 102-321 242 0 156 175 211 284 241l149 41c160 44 422 134 422 412 0 244-197 432-541 432" id="ak"/><path d="M613 24c-304 0-509-231-509-576 0-350 205-580 509-580 216 0 392 114 453 309l-173 49c-33-115-133-197-280-197-223 0-326 196-326 419 0 220 103 415 326 415 150 0 252-85 285-206l172 49C1010-95 832 24 613 24" id="al"/><path d="M613 24c-304 0-509-231-509-576 0-350 205-580 509-580 305 0 511 230 511 580 0 345-206 576-511 576zm0-161c226 0 329-195 329-415 0-222-103-419-329-419-223 0-326 196-326 419 0 220 103 415 326 415" id="am"/><path d="M598-1118v154H368v674c0 100 37 144 132 144 23 0 62-6 92-12L629-6c-37 13-88 20-134 20-193 0-307-107-307-290v-688H20v-154h168v-266h180v266h230" id="an"/><path d="M180 0v-1490h901v168H370v510h643v168H370V0H180" id="ao"/><path d="M158 0v-1118h174v172h12c41-113 157-188 290-188 26 0 70 2 91 3v181c-11-2-60-10-108-10-161 0-279 109-279 260V0H158" id="ap"/><path d="M628 24c-324 0-524-230-524-574 0-343 198-582 503-582 237 0 487 146 487 559v75H286c9 234 145 362 343 362 132 0 231-58 273-172l174 48C1024-91 857 24 628 24zM287-650h624c-17-190-120-322-304-322-192 0-309 151-320 322" id="aq"/><g id="b"><use transform="matrix(0.013020833333333334,0,0,0.013020833333333334,0,0)" xlink:href="#ak"/><use transform="matrix(0.013020833333333334,0,0,0.013020833333333334,17.109375,0)" xlink:href="#al"/><use transform="matrix(0.013020833333333334,0,0,0.013020833333333334,32.34375,0)" xlink:href="#am"/><use transform="matrix(0.013020833333333334,0,0,0.013020833333333334,48.333333333333336,0)" xlink:href="#ai"/><use transform="matrix(0.013020833333333334,0,0,0.013020833333333334,64.1015625,0)" xlink:href="#an"/><use transform="matrix(0.013020833333333334,0,0,0.013020833333333334,72.82552083333333,0)" xlink:href="#ao"/><use transform="matrix(0.013020833333333334,0,0,0.013020833333333334,87.51302083333333,0)" xlink:href="#am"/><use transform="matrix(0.013020833333333334,0,0,0.013020833333333334,103.50260416666666,0)" xlink:href="#ap"/><use transform="matrix(0.013020833333333334,0,0,0.013020833333333334,113.09895833333334,0)" xlink:href="#al"/><use transform="matrix(0.013020833333333334,0,0,0.013020833333333334,128.33333333333331,0)" xlink:href="#aq"/></g><path d="M174-520v-126l944-476v196L406-588v12l712 338v194" id="ar"/><path d="M538 24C308 24 148-78 108-271l171-41c32 123 123 178 257 178 156 0 256-77 256-169 0-77-54-128-164-154l-186-44c-203-48-300-148-300-305 0-192 176-326 414-326 230 0 351 112 402 269l-163 42c-31-80-94-158-238-158-133 0-233 69-233 162 0 83 57 129 188 160l169 40c203 48 298 149 298 302 0 196-179 339-441 339" id="as"/><path d="M140 405l46-156c120 36 205 19 263-150l32-93L54-1118h197c107 313 237 620 324 950 87-331 219-637 326-950h196L606 167c-68 178-176 259-334 259-64 0-113-12-132-21" id="at"/><path d="M158 0v-1118h175l1 205c55-151 181-225 313-225 147 0 245 90 285 228 53-141 190-228 352-228 194 0 352 125 352 384V0h-181v-749c0-161-105-225-225-225-151 0-243 103-243 244V0H807v-767c0-124-93-207-219-207-131 0-250 92-250 270V0H158" id="au"/><path d="M1181-520L237-44v-194l712-338v-12L237-926v-196l944 476v126" id="av"/><g id="c"><use transform="matrix(0.013020833333333334,0,0,0.013020833333333334,0,0)" xlink:href="#ar"/><use transform="matrix(0.013020833333333334,0,0,0.013020833333333334,17.643229166666668,0)" xlink:href="#ar"/><use transform="matrix(0.013020833333333334,0,0,0.013020833333333334,35.286458333333336,0)" xlink:href="#as"/><use transform="matrix(0.013020833333333334,0,0,0.013020833333333334,49.36197916666667,0)" xlink:href="#at"/><use transform="matrix(0.013020833333333334,0,0,0.013020833333333334,64.34895833333334,0)" xlink:href="#as"/><use transform="matrix(0.013020833333333334,0,0,0.013020833333333334,78.42447916666667,0)" xlink:href="#an"/><use transform="matrix(0.013020833333333334,0,0,0.013020833333333334,86.88802083333333,0)" xlink:href="#aq"/><use transform="matrix(0.013020833333333334,0,0,0.013020833333333334,102.43489583333333,0)" xlink:href="#au"/><use transform="matrix(0.013020833333333334,0,0,0.013020833333333334,125.79427083333334,0)" xlink:href="#av"/><use transform="matrix(0.013020833333333334,0,0,0.013020833333333334,143.4375,0)" xlink:href="#av"/></g><path d="M645 0H180v-1490h484c435 0 692 280 692 742 0 466-257 748-711 748zM370-168h263c363 0 539-218 539-580 0-358-176-574-521-574H370v1154" id="aw"/><path d="M158 0v-1118h180V0H158zm91-1301c-68 0-125-53-125-119s57-119 125-119c69 0 126 53 126 119s-57 119-126 119" id="ax"/><g id="d"><use transform="matrix(0.013020833333333334,0,0,0.013020833333333334,0,0)" xlink:href="#aw"/><use transform="matrix(0.013020833333333334,0,0,0.013020833333333334,19.244791666666668,0)" xlink:href="#ax"/><use transform="matrix(0.013020833333333334,0,0,0.013020833333333334,25.703125,0)" xlink:href="#ap"/><use transform="matrix(0.013020833333333334,0,0,0.013020833333333334,35.29947916666667,0)" xlink:href="#aq"/><use transform="matrix(0.013020833333333334,0,0,0.013020833333333334,50.84635416666667,0)" xlink:href="#al"/><use transform="matrix(0.013020833333333334,0,0,0.013020833333333334,66.08072916666667,0)" xlink:href="#an"/><use transform="matrix(0.013020833333333334,0,0,0.013020833333333334,74.54427083333333,0)" xlink:href="#am"/><use transform="matrix(0.013020833333333334,0,0,0.013020833333333334,90.53385416666666,0)" xlink:href="#ap"/></g><g id="e"><use transform="matrix(0.013020833333333334,0,0,0.013020833333333334,0,0)" xlink:href="#ak"/><use transform="matrix(0.013020833333333334,0,0,0.013020833333333334,17.109375,0)" xlink:href="#al"/><use transform="matrix(0.013020833333333334,0,0,0.013020833333333334,32.34375,0)" xlink:href="#am"/><use transform="matrix(0.013020833333333334,0,0,0.013020833333333334,48.333333333333336,0)" xlink:href="#ai"/><use transform="matrix(0.013020833333333334,0,0,0.013020833333333334,64.1015625,0)" xlink:href="#an"/></g><path d="M783 20c-382 0-661-292-661-764 0-473 279-766 661-766 302 0 548 182 601 489h-190c-42-204-217-313-411-313-268 0-476 208-476 590 0 381 209 588 476 588 195 0 369-110 411-313h190c-52 303-296 489-601 489" id="ay"/><path d="M471 26C259 26 90-98 90-318c0-256 228-303 435-329 202-27 287-16 287-108 0-139-79-219-234-219-161 0-248 86-283 164l-173-57c86-203 278-265 451-265 150 0 419 46 419 395V0H815v-152h-12C765-73 660 26 471 26zm31-159c199 0 310-134 310-271v-155c-30 35-226 55-295 64-131 17-246 59-246 186 0 116 97 176 231 176" id="az"/><g id="f"><use transform="matrix(0.008173828125000001,0,0,0.008173828125000001,0,0)" xlink:href="#ay"/><use transform="matrix(0.008173828125000001,0,0,0.008173828125000001,12.228046875000002,0)" xlink:href="#ap"/><use transform="matrix(0.008173828125000001,0,0,0.008173828125000001,18.252158203125003,0)" xlink:href="#aq"/><use transform="matrix(0.008173828125000001,0,0,0.008173828125000001,28.175185546875007,0)" xlink:href="#az"/><use transform="matrix(0.008173828125000001,0,0,0.008173828125000001,37.57508789062501,0)" xlink:href="#an"/><use transform="matrix(0.008173828125000001,0,0,0.008173828125000001,42.88807617187501,0)" xlink:href="#aq"/></g><use transform="matrix(0.008173828125000001,0,0,0.008173828125000001,0,0)" xlink:href="#az" id="g"/><path d="M180 0v-1490h224l606 953c40 63 108 177 176 312-27-437-7-821-13-1265h190V0h-226C860-448 622-778 356-1262c27 476 11 792 15 1262H180" id="aA"/><path d="M409 0L70-1118h191c89 329 165 560 243 925 75-353 154-601 240-925h192c85 325 161 564 235 922 77-354 157-598 244-922h191L1267 0h-179c-86-307-176-590-250-913C763-588 675-308 588 0H409" id="aB"/><g id="h"><use transform="matrix(0.008173828125000001,0,0,0.008173828125000001,0,0)" xlink:href="#aA"/><use transform="matrix(0.008173828125000001,0,0,0.008173828125000001,12.612216796875002,0)" xlink:href="#aq"/><use transform="matrix(0.008173828125000001,0,0,0.008173828125000001,22.0693359375,0)" xlink:href="#aB"/></g><path d="M338-1490V0H158v-1490h180" id="aC"/><path d="M611 442c-248 0-391-105-460-228l146-94c47 65 117 165 314 165 178 0 307-82 307-266v-224h-17C863-141 792-18 576-18c-268 0-472-195-472-546 0-346 197-568 476-568 216 0 288 133 326 193h17v-179h175V29c0 289-215 413-487 413zm-5-620c203 0 314-146 314-390 0-237-108-403-314-403-213 0-319 180-319 403 0 230 109 390 319 390" id="aD"/><path d="M338-670V0H158v-1118h173l1 207c72-158 192-221 342-221 226 0 378 139 378 422V0H872v-695c0-172-96-275-252-275-161 0-282 109-282 300" id="aE"/><g id="i"><use transform="matrix(0.008173828125000001,0,0,0.008173828125000001,0,0)" xlink:href="#aw"/><use transform="matrix(0.008173828125000001,0,0,0.008173828125000001,12.08091796875,0)" xlink:href="#aq"/><use transform="matrix(0.008173828125000001,0,0,0.008173828125000001,21.84046875,0)" xlink:href="#aC"/><use transform="matrix(0.008173828125000001,0,0,0.008173828125000001,25.8946875,0)" xlink:href="#aq"/><use transform="matrix(0.008173828125000001,0,0,0.008173828125000001,35.65423828125,0)" xlink:href="#aD"/><use transform="matrix(0.008173828125000001,0,0,0.008173828125000001,45.92056640625,0)" xlink:href="#az"/><use transform="matrix(0.008173828125000001,0,0,0.008173828125000001,55.32046875,0)" xlink:href="#an"/><use transform="matrix(0.008173828125000001,0,0,0.008173828125000001,60.796933593750005,0)" xlink:href="#ax"/><use transform="matrix(0.008173828125000001,0,0,0.008173828125000001,64.85115234375,0)" xlink:href="#am"/><use transform="matrix(0.008173828125000001,0,0,0.008173828125000001,74.88861328125,0)" xlink:href="#aE"/></g><path d="M600 0L52-1490h200c166 485 304 806 458 1336 156-533 285-846 449-1336h202L819 0H600" id="aF"/><g id="j"><use transform="matrix(0.008173828125000001,0,0,0.008173828125000001,0,0)" xlink:href="#aF"/><use transform="matrix(0.008173828125000001,0,0,0.008173828125000001,11.549619140625001,0)" xlink:href="#ax"/><use transform="matrix(0.008173828125000001,0,0,0.008173828125000001,15.603837890625002,0)" xlink:href="#aq"/><use transform="matrix(0.008173828125000001,0,0,0.008173828125000001,25.060957031250002,0)" xlink:href="#aB"/></g><path d="M52 0l541-1490h220L1361 0h-200l-149-416H398L254 0H52zm404-582h497c-103-290-145-390-251-756-108 377-145 460-246 756" id="aG"/><g id="k"><use transform="matrix(0.008173828125000001,0,0,0.008173828125000001,0,0)" xlink:href="#aG"/><use transform="matrix(0.008173828125000001,0,0,0.008173828125000001,11.549619140625001,0)" xlink:href="#aC"/><use transform="matrix(0.008173828125000001,0,0,0.008173828125000001,15.603837890625002,0)" xlink:href="#aC"/></g><g id="l"><use transform="matrix(0.008173828125000001,0,0,0.008173828125000001,0,0)" xlink:href="#ak"/><use transform="matrix(0.008173828125000001,0,0,0.008173828125000001,10.740410156250002,0)" xlink:href="#al"/><use transform="matrix(0.008173828125000001,0,0,0.008173828125000001,20.3037890625,0)" xlink:href="#am"/><use transform="matrix(0.008173828125000001,0,0,0.008173828125000001,30.341250000000002,0)" xlink:href="#ai"/><use transform="matrix(0.008173828125000001,0,0,0.008173828125000001,40.239755859375,0)" xlink:href="#an"/><use transform="matrix(0.008173828125000001,0,0,0.008173828125000001,45.552744140625,0)" xlink:href="#as"/></g><path fill="#333" d="M166-471v-247l1019-454v289L492-601v13l693 282v287" id="aH"/><path fill="#333" d="M128 0v-1118h300V0H128zm150-1264c-91 0-165-68-165-154 0-85 74-154 165-154 90 0 165 69 165 154 0 86-75 154-165 154" id="aI"/><path fill="#333" d="M428-647V0H128v-1118h283l4 231c63-156 176-245 348-245 232 0 384 159 384 421V0H847v-659c0-139-76-222-202-222-128 0-217 86-217 234" id="aJ"/><path fill="#333" d="M628 22C291 22 81-210 81-554c0-346 210-578 547-578 265 0 455 142 497 372l-279 52c-25-116-99-188-215-188-160 0-244 139-244 341 0 200 84 341 244 341 116 0 193-74 217-195l279 51C1085-123 896 22 628 22" id="aK"/><path fill="#333" d="M428-1490V0H128v-1490h300" id="aL"/><path fill="#333" d="M513 14c-232 0-385-159-385-421v-711h300v659c0 139 76 222 202 222 127 0 217-86 217-234v-647h301V0H864l-4-232C797-74 683 14 513 14" id="aM"/><path fill="#333" d="M537 19C279 19 81-185 81-557c0-382 206-575 454-575 190 0 278 113 318 202h10v-560h300V0H868v-179h-15C812-89 719 19 537 19zm92-241c153 0 240-134 240-336 0-203-86-334-240-334-158 0-240 138-240 334 0 197 84 336 240 336" id="aN"/><path fill="#333" d="M633 22C291 22 81-200 81-553c0-345 210-579 537-579 292 0 525 185 525 567v84H378c7 183 109 277 260 277 105 0 184-46 216-132l272 51C1071-99 893 22 633 22zM380-669h474c-15-146-94-237-233-237-143 0-229 99-241 237" id="aO"/><path fill="#333" d="M1224-471L205-19v-287l694-281v-14L205-883v-289l1019 454v247" id="aP"/><g id="m"><use transform="matrix(0.008680555555555556,0,0,0.008680555555555556,0,0)" xlink:href="#aH"/><use transform="matrix(0.008680555555555556,0,0,0.008680555555555556,12.065972222222223,0)" xlink:href="#aH"/><use transform="matrix(0.008680555555555556,0,0,0.008680555555555556,24.131944444444446,0)" xlink:href="#aI"/><use transform="matrix(0.008680555555555556,0,0,0.008680555555555556,28.94965277777778,0)" xlink:href="#aJ"/><use transform="matrix(0.008680555555555556,0,0,0.008680555555555556,40.017361111111114,0)" xlink:href="#aK"/><use transform="matrix(0.008680555555555556,0,0,0.008680555555555556,50.47743055555556,0)" xlink:href="#aL"/><use transform="matrix(0.008680555555555556,0,0,0.008680555555555556,55.29513888888889,0)" xlink:href="#aM"/><use transform="matrix(0.008680555555555556,0,0,0.008680555555555556,66.36284722222223,0)" xlink:href="#aN"/><use transform="matrix(0.008680555555555556,0,0,0.008680555555555556,77.56944444444446,0)" xlink:href="#aO"/><use transform="matrix(0.008680555555555556,0,0,0.008680555555555556,88.15972222222223,0)" xlink:href="#aP"/><use transform="matrix(0.008680555555555556,0,0,0.008680555555555556,100.22569444444447,0)" xlink:href="#aP"/></g><path d="M763 24c-353 0-583-224-583-531v-983h190v968c0 214 149 370 393 370 243 0 391-156 391-370v-968h190v983c0 307-230 531-581 531" id="aQ"/><path d="M158 418v-1536h174v179h20c37-59 106-193 324-193 279 0 474 222 474 576 0 356-194 580-473 580-213 0-288-135-325-197h-14v591H158zm492-555c209 0 317-186 317-421 0-232-105-413-317-413-206 0-314 166-314 413 0 249 111 421 314 421" id="aR"/><g id="n"><use transform="matrix(0.008173828125000001,0,0,0.008173828125000001,0,0)" xlink:href="#aQ"/><use transform="matrix(0.008173828125000001,0,0,0.008173828125000001,12.456914062500001,0)" xlink:href="#aR"/><use transform="matrix(0.008173828125000001,0,0,0.008173828125000001,22.70689453125,0)" xlink:href="#aj"/><use transform="matrix(0.008173828125000001,0,0,0.008173828125000001,32.956875000000004,0)" xlink:href="#az"/><use transform="matrix(0.008173828125000001,0,0,0.008173828125000001,42.356777343750004,0)" xlink:href="#an"/><use transform="matrix(0.008173828125000001,0,0,0.008173828125000001,47.669765625000004,0)" xlink:href="#aq"/></g><path d="M180 0v-1490h510c348 0 508 209 508 474 0 266-160 477-507 477H370V0H180zm190-706h312c236 0 327-133 327-310 0-176-91-307-329-307H370v617" id="aS"/><path d="M232-923l-22-567h194l-22 567H232" id="aT"/><g id="o"><use transform="matrix(0.008173828125000001,0,0,0.008173828125000001,0,0)" xlink:href="#aS"/><use transform="matrix(0.008173828125000001,0,0,0.008173828125000001,10.691367187500001,0)" xlink:href="#aC"/><use transform="matrix(0.008173828125000001,0,0,0.008173828125000001,14.745585937500001,0)" xlink:href="#az"/><use transform="matrix(0.008173828125000001,0,0,0.008173828125000001,23.900273437500005,0)" xlink:href="#at"/><use transform="matrix(0.008173828125000001,0,0,0.008173828125000001,32.981396484375004,0)" xlink:href="#aq"/><use transform="matrix(0.008173828125000001,0,0,0.008173828125000001,42.740947265625,0)" xlink:href="#ap"/><use transform="matrix(0.008173828125000001,0,0,0.008173828125000001,49.04296875,0)" xlink:href="#aT"/><use transform="matrix(0.008173828125000001,0,0,0.008173828125000001,54.06169921875,0)" xlink:href="#as"/></g><g id="p"><use transform="matrix(0.008173828125000001,0,0,0.008173828125000001,0,0)" xlink:href="#ak"/><use transform="matrix(0.008173828125000001,0,0,0.008173828125000001,10.740410156250002,0)" xlink:href="#an"/><use transform="matrix(0.008173828125000001,0,0,0.008173828125000001,16.298613281250002,0)" xlink:href="#az"/><use transform="matrix(0.008173828125000001,0,0,0.008173828125000001,25.698515625000006,0)" xlink:href="#an"/><use transform="matrix(0.008173828125000001,0,0,0.008173828125000001,31.174980468750007,0)" xlink:href="#ai"/><use transform="matrix(0.008173828125000001,0,0,0.008173828125000001,41.07348632812501,0)" xlink:href="#as"/></g><path d="M677 24c-213 0-288-135-325-197h-20V0H158v-1490h180v551h14c37-59 106-193 324-193 279 0 474 222 474 576 0 356-194 580-473 580zm-27-161c209 0 317-186 317-421 0-232-105-413-317-413-206 0-314 166-314 413 0 249 111 421 314 421" id="aU"/><g id="q"><use transform="matrix(0.013020833333333334,0,0,0.013020833333333334,0,0)" xlink:href="#ay"/><use transform="matrix(0.013020833333333334,0,0,0.013020833333333334,19.479166666666668,0)" xlink:href="#aC"/><use transform="matrix(0.013020833333333334,0,0,0.013020833333333334,25.9375,0)" xlink:href="#ai"/><use transform="matrix(0.013020833333333334,0,0,0.013020833333333334,41.70572916666667,0)" xlink:href="#aU"/></g><path d="M180 0v-1490h908v168H370v486h669v168H370v500h727V0H180" id="aV"/><g id="r"><use transform="matrix(0.013020833333333334,0,0,0.013020833333333334,0,0)" xlink:href="#aV"/><use transform="matrix(0.013020833333333334,0,0,0.013020833333333334,16.028645833333336,0)" xlink:href="#au"/><use transform="matrix(0.013020833333333334,0,0,0.013020833333333334,39.388020833333336,0)" xlink:href="#aR"/><use transform="matrix(0.013020833333333334,0,0,0.013020833333333334,55.716145833333336,0)" xlink:href="#aC"/><use transform="matrix(0.013020833333333334,0,0,0.013020833333333334,62.17447916666667,0)" xlink:href="#am"/><use transform="matrix(0.013020833333333334,0,0,0.013020833333333334,77.64322916666667,0)" xlink:href="#at"/><use transform="matrix(0.013020833333333334,0,0,0.013020833333333334,92.10937500000001,0)" xlink:href="#aq"/><use transform="matrix(0.013020833333333334,0,0,0.013020833333333334,107.65625,0)" xlink:href="#aq"/></g><path d="M180 0v-1490h190v1322h690V0H180" id="aW"/><g id="s"><use transform="matrix(0.008173828125000001,0,0,0.008173828125000001,0,0)" xlink:href="#aW"/><use transform="matrix(0.008173828125000001,0,0,0.008173828125000001,9.465292968750001,0)" xlink:href="#am"/><use transform="matrix(0.008173828125000001,0,0,0.008173828125000001,19.50275390625,0)" xlink:href="#aD"/></g><path d="M370-1490V0H180v-1490h190" id="aX"/><g id="t"><use transform="matrix(0.008173828125000001,0,0,0.008173828125000001,0,0)" xlink:href="#aX"/><use transform="matrix(0.008173828125000001,0,0,0.008173828125000001,4.495605468750001,0)" xlink:href="#aE"/></g><g id="u"><use transform="matrix(0.008173828125000001,0,0,0.008173828125000001,0,0)" xlink:href="#an"/><use transform="matrix(0.008173828125000001,0,0,0.008173828125000001,5.312988281250001,0)" xlink:href="#am"/></g><path d="M338-670V0H158v-1490h180v566c73-149 190-208 336-208 226 0 379 139 379 422V0H872v-695c0-172-96-275-252-275-161 0-282 109-282 300" id="aY"/><g id="v"><use transform="matrix(0.008173828125000001,0,0,0.008173828125000001,0,0)" xlink:href="#an"/><use transform="matrix(0.008173828125000001,0,0,0.008173828125000001,5.4764648437500005,0)" xlink:href="#aY"/><use transform="matrix(0.008173828125000001,0,0,0.008173828125000001,15.374970703125001,0)" xlink:href="#aq"/></g><g id="w"><use transform="matrix(0.008173828125000001,0,0,0.008173828125000001,0,0)" xlink:href="#ak"/><use transform="matrix(0.008173828125000001,0,0,0.008173828125000001,10.740410156250002,0)" xlink:href="#at"/><use transform="matrix(0.008173828125000001,0,0,0.008173828125000001,20.148486328125003,0)" xlink:href="#as"/><use transform="matrix(0.008173828125000001,0,0,0.008173828125000001,28.984394531250004,0)" xlink:href="#an"/><use transform="matrix(0.008173828125000001,0,0,0.008173828125000001,34.297382812500004,0)" xlink:href="#aq"/><use transform="matrix(0.008173828125000001,0,0,0.008173828125000001,44.05693359375,0)" xlink:href="#au"/></g><g id="x"><use transform="matrix(0.008173828125000001,0,0,0.008173828125000001,0,0)" xlink:href="#aS"/><use transform="matrix(0.008173828125000001,0,0,0.008173828125000001,10.691367187500001,0)" xlink:href="#aC"/><use transform="matrix(0.008173828125000001,0,0,0.008173828125000001,14.745585937500001,0)" xlink:href="#az"/><use transform="matrix(0.008173828125000001,0,0,0.008173828125000001,23.900273437500005,0)" xlink:href="#at"/><use transform="matrix(0.008173828125000001,0,0,0.008173828125000001,32.981396484375004,0)" xlink:href="#aq"/><use transform="matrix(0.008173828125000001,0,0,0.008173828125000001,42.740947265625,0)" xlink:href="#ap"/><use transform="matrix(0.008173828125000001,0,0,0.008173828125000001,49.04296875,0)" xlink:href="#as"/></g><g id="y"><use transform="matrix(0.008173828125000001,0,0,0.008173828125000001,0,0)" xlink:href="#aW"/><use transform="matrix(0.008173828125000001,0,0,0.008173828125000001,9.465292968750001,0)" xlink:href="#ax"/><use transform="matrix(0.008173828125000001,0,0,0.008173828125000001,13.519511718750001,0)" xlink:href="#as"/><use transform="matrix(0.008173828125000001,0,0,0.008173828125000001,22.355419921875004,0)" xlink:href="#an"/></g><g id="z"><use transform="matrix(0.008173828125000001,0,0,0.008173828125000001,0,0)" xlink:href="#ak"/><use transform="matrix(0.008173828125000001,0,0,0.008173828125000001,10.740410156250002,0)" xlink:href="#al"/><use transform="matrix(0.008173828125000001,0,0,0.008173828125000001,20.3037890625,0)" xlink:href="#am"/><use transform="matrix(0.008173828125000001,0,0,0.008173828125000001,30.341250000000002,0)" xlink:href="#ap"/><use transform="matrix(0.008173828125000001,0,0,0.008173828125000001,36.904833984375,0)" xlink:href="#ax"/><use transform="matrix(0.008173828125000001,0,0,0.008173828125000001,40.95905273437501,0)" xlink:href="#aE"/><use transform="matrix(0.008173828125000001,0,0,0.008173828125000001,50.849384765625004,0)" xlink:href="#aD"/></g><g id="A"><use transform="matrix(0.008173828125000001,0,0,0.008173828125000001,0,0)" xlink:href="#aG"/><use transform="matrix(0.008173828125000001,0,0,0.008173828125000001,11.549619140625001,0)" xlink:href="#aE"/><use transform="matrix(0.008173828125000001,0,0,0.008173828125000001,21.439951171875002,0)" xlink:href="#az"/><use transform="matrix(0.008173828125000001,0,0,0.008173828125000001,30.839853515625002,0)" xlink:href="#aC"/><use transform="matrix(0.008173828125000001,0,0,0.008173828125000001,34.975810546875,0)" xlink:href="#at"/><use transform="matrix(0.008173828125000001,0,0,0.008173828125000001,44.383886718750006,0)" xlink:href="#as"/><use transform="matrix(0.008173828125000001,0,0,0.008173828125000001,53.21979492187501,0)" xlink:href="#ax"/><use transform="matrix(0.008173828125000001,0,0,0.008173828125000001,57.27401367187501,0)" xlink:href="#as"/></g><path d="M180 0v-1490h528c311 0 458 177 458 395 0 191-114 278-244 313v14c139 9 302 137 302 371 0 225-148 397-499 397H180zm190-168h350c232 0 321-102 321-231 0-149-120-277-311-277H370v508zm0-668h328c160 0 286-101 286-255 0-129-87-231-280-231H370v486" id="aZ"/><g id="B"><use transform="matrix(0.008173828125000001,0,0,0.008173828125000001,0,0)" xlink:href="#aZ"/><use transform="matrix(0.008173828125000001,0,0,0.008173828125000001,10.952929687500001,0)" xlink:href="#ax"/><use transform="matrix(0.008173828125000001,0,0,0.008173828125000001,15.007148437500001,0)" xlink:href="#aD"/><use transform="matrix(0.008173828125000001,0,0,0.008173828125000001,25.2734765625,0)" xlink:href="#aZ"/><use transform="matrix(0.008173828125000001,0,0,0.008173828125000001,36.226406250000004,0)" xlink:href="#am"/><use transform="matrix(0.008173828125000001,0,0,0.008173828125000001,46.427343750000006,0)" xlink:href="#az"/><use transform="matrix(0.008173828125000001,0,0,0.008173828125000001,55.827246093750006,0)" xlink:href="#ap"/><use transform="matrix(0.008173828125000001,0,0,0.008173828125000001,61.85135742187501,0)" xlink:href="#aj"/></g><path d="M180 0v-1490h510c348 0 508 194 508 460 0 198-88 351-276 417L1256 0h-220L726-579c-117 2-238 0-356 1V0H180zm190-747h312c235 0 327-108 327-283 0-177-92-293-329-293H370v576" id="ba"/><path d="M158 0v-1490h180v865h22l478-493h223L593-638 1096 0H865L456-523 338-412V0H158" id="bb"/><g id="C"><use transform="matrix(0.008173828125000001,0,0,0.008173828125000001,0,0)" xlink:href="#ba"/><use transform="matrix(0.008173828125000001,0,0,0.008173828125000001,10.691367187500001,0)" xlink:href="#az"/><use transform="matrix(0.008173828125000001,0,0,0.008173828125000001,20.091269531250003,0)" xlink:href="#aE"/><use transform="matrix(0.008173828125000001,0,0,0.008173828125000001,29.981601562500003,0)" xlink:href="#bb"/><use transform="matrix(0.008173828125000001,0,0,0.008173828125000001,39.16898437500001,0)" xlink:href="#ax"/><use transform="matrix(0.008173828125000001,0,0,0.008173828125000001,43.22320312500001,0)" xlink:href="#aE"/><use transform="matrix(0.008173828125000001,0,0,0.008173828125000001,53.11353515625001,0)" xlink:href="#aD"/></g><g id="D"><use transform="matrix(0.008173828125000001,0,0,0.008173828125000001,0,0)" xlink:href="#ak"/><use transform="matrix(0.008173828125000001,0,0,0.008173828125000001,10.740410156250002,0)" xlink:href="#al"/><use transform="matrix(0.008173828125000001,0,0,0.008173828125000001,20.3037890625,0)" xlink:href="#am"/><use transform="matrix(0.008173828125000001,0,0,0.008173828125000001,30.341250000000002,0)" xlink:href="#ai"/><use transform="matrix(0.008173828125000001,0,0,0.008173828125000001,40.239755859375,0)" xlink:href="#an"/><use transform="matrix(0.008173828125000001,0,0,0.008173828125000001,45.716220703125,0)" xlink:href="#ax"/><use transform="matrix(0.008173828125000001,0,0,0.008173828125000001,49.77043945312501,0)" xlink:href="#aE"/><use transform="matrix(0.008173828125000001,0,0,0.008173828125000001,59.660771484375005,0)" xlink:href="#aD"/></g><g id="E"><use transform="matrix(0.008173828125000001,0,0,0.008173828125000001,0,0)" xlink:href="#ba"/><use transform="matrix(0.008173828125000001,0,0,0.008173828125000001,10.527890625000001,0)" xlink:href="#aq"/><use transform="matrix(0.008173828125000001,0,0,0.008173828125000001,20.287441406250004,0)" xlink:href="#aR"/><use transform="matrix(0.008173828125000001,0,0,0.008173828125000001,30.537421875000007,0)" xlink:href="#am"/><use transform="matrix(0.008173828125000001,0,0,0.008173828125000001,40.57488281250001,0)" xlink:href="#ap"/><use transform="matrix(0.008173828125000001,0,0,0.008173828125000001,47.13846679687501,0)" xlink:href="#an"/></g><path d="M481 0L54-1118h197c107 314 236 620 325 951 87-331 217-637 324-951h197L670 0H481" id="bc"/><g id="F"><use transform="matrix(0.008173828125000001,0,0,0.008173828125000001,0,0)" xlink:href="#aS"/><use transform="matrix(0.008173828125000001,0,0,0.008173828125000001,10.691367187500001,0)" xlink:href="#ap"/><use transform="matrix(0.008173828125000001,0,0,0.008173828125000001,16.715478515625,0)" xlink:href="#am"/><use transform="matrix(0.008173828125000001,0,0,0.008173828125000001,26.425986328125003,0)" xlink:href="#bc"/><use transform="matrix(0.008173828125000001,0,0,0.008173828125000001,35.8340625,0)" xlink:href="#ax"/><use transform="matrix(0.008173828125000001,0,0,0.008173828125000001,39.888281250000006,0)" xlink:href="#aj"/><use transform="matrix(0.008173828125000001,0,0,0.008173828125000001,50.13826171875001,0)" xlink:href="#aq"/></g><g id="G"><use transform="matrix(0.008173828125000001,0,0,0.008173828125000001,0,0)" xlink:href="#aw"/><use transform="matrix(0.008173828125000001,0,0,0.008173828125000001,12.08091796875,0)" xlink:href="#aq"/><use transform="matrix(0.008173828125000001,0,0,0.008173828125000001,21.84046875,0)" xlink:href="#an"/><use transform="matrix(0.008173828125000001,0,0,0.008173828125000001,27.398671875,0)" xlink:href="#az"/><use transform="matrix(0.008173828125000001,0,0,0.008173828125000001,36.798574218750005,0)" xlink:href="#ax"/><use transform="matrix(0.008173828125000001,0,0,0.008173828125000001,40.85279296875001,0)" xlink:href="#aC"/><use transform="matrix(0.008173828125000001,0,0,0.008173828125000001,44.90701171875001,0)" xlink:href="#aq"/><use transform="matrix(0.008173828125000001,0,0,0.008173828125000001,54.66656250000001,0)" xlink:href="#aj"/></g><g id="H"><use transform="matrix(0.008173828125000001,0,0,0.008173828125000001,0,0)" xlink:href="#ba"/><use transform="matrix(0.008173828125000001,0,0,0.008173828125000001,10.691367187500001,0)" xlink:href="#az"/><use transform="matrix(0.008173828125000001,0,0,0.008173828125000001,20.091269531250003,0)" xlink:href="#an"/><use transform="matrix(0.008173828125000001,0,0,0.008173828125000001,25.567734375000004,0)" xlink:href="#ax"/><use transform="matrix(0.008173828125000001,0,0,0.008173828125000001,29.621953125000005,0)" xlink:href="#aE"/><use transform="matrix(0.008173828125000001,0,0,0.008173828125000001,39.51228515625,0)" xlink:href="#aD"/><use transform="matrix(0.008173828125000001,0,0,0.008173828125000001,49.77861328125,0)" xlink:href="#as"/></g><g id="I"><use transform="matrix(0.008173828125000001,0,0,0.008173828125000001,0,0)" xlink:href="#aw"/><use transform="matrix(0.008173828125000001,0,0,0.008173828125000001,12.08091796875,0)" xlink:href="#aq"/><use transform="matrix(0.008173828125000001,0,0,0.008173828125000001,21.84046875,0)" xlink:href="#aC"/><use transform="matrix(0.008173828125000001,0,0,0.008173828125000001,25.8946875,0)" xlink:href="#aq"/><use transform="matrix(0.008173828125000001,0,0,0.008173828125000001,35.65423828125,0)" xlink:href="#aD"/><use transform="matrix(0.008173828125000001,0,0,0.008173828125000001,45.92056640625,0)" xlink:href="#az"/><use transform="matrix(0.008173828125000001,0,0,0.008173828125000001,55.32046875,0)" xlink:href="#an"/><use transform="matrix(0.008173828125000001,0,0,0.008173828125000001,60.796933593750005,0)" xlink:href="#ax"/><use transform="matrix(0.008173828125000001,0,0,0.008173828125000001,64.85115234375,0)" xlink:href="#am"/><use transform="matrix(0.008173828125000001,0,0,0.008173828125000001,74.88861328125,0)" xlink:href="#aE"/><use transform="matrix(0.008173828125000001,0,0,0.008173828125000001,84.7789453125,0)" xlink:href="#as"/></g><g id="J"><use transform="matrix(0.008173828125000001,0,0,0.008173828125000001,0,0)" xlink:href="#aV"/><use transform="matrix(0.008173828125000001,0,0,0.008173828125000001,10.061982421875001,0)" xlink:href="#aE"/><use transform="matrix(0.008173828125000001,0,0,0.008173828125000001,19.952314453125002,0)" xlink:href="#an"/><use transform="matrix(0.008173828125000001,0,0,0.008173828125000001,25.265302734375002,0)" xlink:href="#aq"/><use transform="matrix(0.008173828125000001,0,0,0.008173828125000001,35.024853515625004,0)" xlink:href="#ap"/></g><g id="K"><use transform="matrix(0.008173828125000001,0,0,0.008173828125000001,0,0)" xlink:href="#aS"/><use transform="matrix(0.008173828125000001,0,0,0.008173828125000001,10.691367187500001,0)" xlink:href="#aC"/><use transform="matrix(0.008173828125000001,0,0,0.008173828125000001,14.745585937500001,0)" xlink:href="#az"/><use transform="matrix(0.008173828125000001,0,0,0.008173828125000001,23.900273437500005,0)" xlink:href="#at"/><use transform="matrix(0.008173828125000001,0,0,0.008173828125000001,32.981396484375004,0)" xlink:href="#aq"/><use transform="matrix(0.008173828125000001,0,0,0.008173828125000001,42.740947265625,0)" xlink:href="#ap"/></g><path d="M180 0v-1490h270l367 940c28 72 75 218 110 339 35-117 81-264 110-339l362-940h271V0h-187c2-448-5-837 7-1287-157 497-311 829-483 1287H842C666-458 514-784 354-1284c12 438 5 843 7 1284H180" id="bd"/><g id="L"><use transform="matrix(0.008173828125000001,0,0,0.008173828125000001,0,0)" xlink:href="#bd"/><use transform="matrix(0.008173828125000001,0,0,0.008173828125000001,15.121582031250002,0)" xlink:href="#az"/><use transform="matrix(0.008173828125000001,0,0,0.008173828125000001,24.521484375000004,0)" xlink:href="#an"/><use transform="matrix(0.008173828125000001,0,0,0.008173828125000001,29.834472656250004,0)" xlink:href="#al"/><use transform="matrix(0.008173828125000001,0,0,0.008173828125000001,39.397851562500016,0)" xlink:href="#aY"/></g><g id="M"><use transform="matrix(0.008173828125000001,0,0,0.008173828125000001,0,0)" xlink:href="#ak"/><use transform="matrix(0.008173828125000001,0,0,0.008173828125000001,10.740410156250002,0)" xlink:href="#an"/><use transform="matrix(0.008173828125000001,0,0,0.008173828125000001,16.298613281250002,0)" xlink:href="#az"/><use transform="matrix(0.008173828125000001,0,0,0.008173828125000001,25.698515625000006,0)" xlink:href="#an"/><use transform="matrix(0.008173828125000001,0,0,0.008173828125000001,31.174980468750007,0)" xlink:href="#ax"/><use transform="matrix(0.008173828125000001,0,0,0.008173828125000001,35.22919921875001,0)" xlink:href="#as"/><use transform="matrix(0.008173828125000001,0,0,0.008173828125000001,44.06510742187501,0)" xlink:href="#an"/><use transform="matrix(0.008173828125000001,0,0,0.008173828125000001,49.541572265625014,0)" xlink:href="#ax"/><use transform="matrix(0.008173828125000001,0,0,0.008173828125000001,53.59579101562501,0)" xlink:href="#al"/><use transform="matrix(0.008173828125000001,0,0,0.008173828125000001,63.15916992187501,0)" xlink:href="#as"/></g><path fill="#333" d="M42 0l360-574-338-544h324c72 124 151 261 209 394 58-134 140-271 215-394h318L785-570 1146 0H824c-79-136-169-280-234-425C528-278 439-134 360 0H42" id="be"/><path fill="#333" d="M683-1118v229H474v562c0 71 29 104 102 104 23 0 73-7 95-13l43 225C647 9 580 16 520 16 296 16 174-96 174-301v-588H20v-229h154v-266h300v266h209" id="bf"/><g id="N"><use transform="matrix(0.008680555555555556,0,0,0.008680555555555556,0,0)" xlink:href="#aH"/><use transform="matrix(0.008680555555555556,0,0,0.008680555555555556,12.065972222222223,0)" xlink:href="#aH"/><use transform="matrix(0.008680555555555556,0,0,0.008680555555555556,24.131944444444446,0)" xlink:href="#aO"/><use transform="matrix(0.008680555555555556,0,0,0.008680555555555556,34.36631944444444,0)" xlink:href="#be"/><use transform="matrix(0.008680555555555556,0,0,0.008680555555555556,44.93055555555556,0)" xlink:href="#bf"/><use transform="matrix(0.008680555555555556,0,0,0.008680555555555556,51.26736111111111,0)" xlink:href="#aO"/><use transform="matrix(0.008680555555555556,0,0,0.008680555555555556,61.857638888888886,0)" xlink:href="#aJ"/><use transform="matrix(0.008680555555555556,0,0,0.008680555555555556,72.92534722222221,0)" xlink:href="#aN"/><use transform="matrix(0.008680555555555556,0,0,0.008680555555555556,84.13194444444444,0)" xlink:href="#aP"/><use transform="matrix(0.008680555555555556,0,0,0.008680555555555556,96.19791666666667,0)" xlink:href="#aP"/></g><path d="M65 0l393-574-370-544h210c88 136 192 297 267 435 67-142 176-302 264-435h206L661-564 1053 0H844c-94-144-206-310-287-458C484-308 366-142 273 0H65" id="bg"/><g id="O"><use transform="matrix(0.008680555555555556,0,0,0.008680555555555556,0,0)" xlink:href="#aV"/><use transform="matrix(0.008680555555555556,0,0,0.008680555555555556,10.68576388888889,0)" xlink:href="#bg"/><use transform="matrix(0.008680555555555556,0,0,0.008680555555555556,20.73784722222222,0)" xlink:href="#an"/><use transform="matrix(0.008680555555555556,0,0,0.008680555555555556,26.380208333333332,0)" xlink:href="#aq"/><use transform="matrix(0.008680555555555556,0,0,0.008680555555555556,36.74479166666666,0)" xlink:href="#aE"/><use transform="matrix(0.008680555555555556,0,0,0.008680555555555556,47.248263888888886,0)" xlink:href="#as"/><use transform="matrix(0.008680555555555556,0,0,0.008680555555555556,56.631944444444436,0)" xlink:href="#ax"/><use transform="matrix(0.008680555555555556,0,0,0.008680555555555556,60.9375,0)" xlink:href="#am"/><use transform="matrix(0.008680555555555556,0,0,0.008680555555555556,71.59722222222223,0)" xlink:href="#aE"/></g><path d="M295 13c-75 0-135-60-135-135s60-135 135-135 135 60 135 135S370 13 295 13zm0-809c-75 0-135-60-135-135s60-135 135-135 135 60 135 135-60 135-135 135" id="bh"/><g id="P"><use transform="matrix(0.008680555555555556,0,0,0.008680555555555556,0,0)" xlink:href="#aR"/><use transform="matrix(0.008680555555555556,0,0,0.008680555555555556,10.885416666666668,0)" xlink:href="#am"/><use transform="matrix(0.008680555555555556,0,0,0.008680555555555556,21.545138888888893,0)" xlink:href="#ax"/><use transform="matrix(0.008680555555555556,0,0,0.008680555555555556,25.85069444444445,0)" xlink:href="#aE"/><use transform="matrix(0.008680555555555556,0,0,0.008680555555555556,36.35416666666667,0)" xlink:href="#an"/><use transform="matrix(0.008680555555555556,0,0,0.008680555555555556,42.17013888888889,0)" xlink:href="#bh"/></g><g id="Q"><use transform="matrix(0.008680555555555556,0,0,0.008680555555555556,0,0)" xlink:href="#am"/><use transform="matrix(0.008680555555555556,0,0,0.008680555555555556,10.659722222222223,0)" xlink:href="#aE"/><use transform="matrix(0.008680555555555556,0,0,0.008680555555555556,21.163194444444446,0)" xlink:href="#aC"/><use transform="matrix(0.008680555555555556,0,0,0.008680555555555556,25.555555555555557,0)" xlink:href="#at"/></g><g id="R"><use transform="matrix(0.008680555555555556,0,0,0.008680555555555556,0,0)" xlink:href="#aj"/><use transform="matrix(0.008680555555555556,0,0,0.008680555555555556,10.885416666666668,0)" xlink:href="#ax"/><use transform="matrix(0.008680555555555556,0,0,0.008680555555555556,15.190972222222223,0)" xlink:href="#ap"/><use transform="matrix(0.008680555555555556,0,0,0.008680555555555556,21.588541666666668,0)" xlink:href="#aq"/><use transform="matrix(0.008680555555555556,0,0,0.008680555555555556,31.953125,0)" xlink:href="#al"/><use transform="matrix(0.008680555555555556,0,0,0.008680555555555556,42.109375,0)" xlink:href="#an"/><use transform="matrix(0.008680555555555556,0,0,0.008680555555555556,47.75173611111111,0)" xlink:href="#am"/><use transform="matrix(0.008680555555555556,0,0,0.008680555555555556,58.41145833333333,0)" xlink:href="#ap"/></g><g id="S"><use transform="matrix(0.008680555555555556,0,0,0.008680555555555556,0,0)" xlink:href="#aY"/><use transform="matrix(0.008680555555555556,0,0,0.008680555555555556,10.512152777777779,0)" xlink:href="#az"/><use transform="matrix(0.008680555555555556,0,0,0.008680555555555556,20.494791666666668,0)" xlink:href="#as"/></g><g id="T"><use transform="matrix(0.008680555555555556,0,0,0.008680555555555556,0,0)" xlink:href="#am"/><use transform="matrix(0.008680555555555556,0,0,0.008680555555555556,10.659722222222223,0)" xlink:href="#aR"/><use transform="matrix(0.008680555555555556,0,0,0.008680555555555556,21.545138888888893,0)" xlink:href="#an"/><use transform="matrix(0.008680555555555556,0,0,0.008680555555555556,27.36111111111111,0)" xlink:href="#ax"/><use transform="matrix(0.008680555555555556,0,0,0.008680555555555556,31.66666666666667,0)" xlink:href="#am"/><use transform="matrix(0.008680555555555556,0,0,0.008680555555555556,42.32638888888889,0)" xlink:href="#aE"/></g><g id="U"><use transform="matrix(0.008680555555555556,0,0,0.008680555555555556,0,0)" xlink:href="#an"/><use transform="matrix(0.008680555555555556,0,0,0.008680555555555556,5.642361111111112,0)" xlink:href="#am"/></g><g id="V"><use transform="matrix(0.008680555555555556,0,0,0.008680555555555556,0,0)" xlink:href="#al"/><use transform="matrix(0.008680555555555556,0,0,0.008680555555555556,10.15625,0)" xlink:href="#aY"/><use transform="matrix(0.008680555555555556,0,0,0.008680555555555556,20.66840277777778,0)" xlink:href="#am"/><use transform="matrix(0.008680555555555556,0,0,0.008680555555555556,31.328125,0)" xlink:href="#am"/><use transform="matrix(0.008680555555555556,0,0,0.008680555555555556,41.98784722222222,0)" xlink:href="#as"/><use transform="matrix(0.008680555555555556,0,0,0.008680555555555556,51.37152777777778,0)" xlink:href="#aq"/></g><g id="W"><use transform="matrix(0.008680555555555556,0,0,0.008680555555555556,0,0)" xlink:href="#as"/><use transform="matrix(0.008680555555555556,0,0,0.008680555555555556,9.383680555555555,0)" xlink:href="#al"/><use transform="matrix(0.008680555555555556,0,0,0.008680555555555556,19.539930555555557,0)" xlink:href="#am"/><use transform="matrix(0.008680555555555556,0,0,0.008680555555555556,30.19965277777778,0)" xlink:href="#ai"/><use transform="matrix(0.008680555555555556,0,0,0.008680555555555556,40.71180555555556,0)" xlink:href="#an"/></g><path d="M678-1118v154H420V0H240v-964H20v-154h220v-149c0-194 155-293 318-293 85 0 141 18 168 30l-50 154c-19-6-47-17-97-17-111 0-159 58-159 166v109h258" id="bi"/><g id="X"><use transform="matrix(0.008680555555555556,0,0,0.008680555555555556,0,0)" xlink:href="#bi"/><use transform="matrix(0.008680555555555556,0,0,0.008680555555555556,6.579861111111112,0)" xlink:href="#ap"/><use transform="matrix(0.008680555555555556,0,0,0.008680555555555556,12.977430555555559,0)" xlink:href="#am"/><use transform="matrix(0.008680555555555556,0,0,0.008680555555555556,23.63715277777778,0)" xlink:href="#au"/></g><g id="Y"><use transform="matrix(0.008680555555555556,0,0,0.008680555555555556,0,0)" xlink:href="#aj"/><use transform="matrix(0.008680555555555556,0,0,0.008680555555555556,10.885416666666668,0)" xlink:href="#ax"/><use transform="matrix(0.008680555555555556,0,0,0.008680555555555556,15.190972222222223,0)" xlink:href="#as"/><use transform="matrix(0.008680555555555556,0,0,0.008680555555555556,24.57465277777778,0)" xlink:href="#aR"/><use transform="matrix(0.008680555555555556,0,0,0.008680555555555556,35.46006944444444,0)" xlink:href="#aC"/><use transform="matrix(0.008680555555555556,0,0,0.008680555555555556,39.765625,0)" xlink:href="#az"/><use transform="matrix(0.008680555555555556,0,0,0.008680555555555556,49.487847222222236,0)" xlink:href="#at"/><use transform="matrix(0.008680555555555556,0,0,0.008680555555555556,59.13194444444445,0)" xlink:href="#aq"/><use transform="matrix(0.008680555555555556,0,0,0.008680555555555556,69.49652777777779,0)" xlink:href="#aj"/></g><g id="Z"><use transform="matrix(0.008680555555555556,0,0,0.008680555555555556,0,0)" xlink:href="#aC"/><use transform="matrix(0.008680555555555556,0,0,0.008680555555555556,4.305555555555555,0)" xlink:href="#ax"/><use transform="matrix(0.008680555555555556,0,0,0.008680555555555556,8.61111111111111,0)" xlink:href="#as"/><use transform="matrix(0.008680555555555556,0,0,0.008680555555555556,17.994791666666664,0)" xlink:href="#an"/></g><g id="aa"><use transform="matrix(0.008680555555555556,0,0,0.008680555555555556,0,0)" xlink:href="#ak"/><use transform="matrix(0.008680555555555556,0,0,0.008680555555555556,11.40625,0)" xlink:href="#al"/><use transform="matrix(0.008680555555555556,0,0,0.008680555555555556,21.5625,0)" xlink:href="#am"/><use transform="matrix(0.008680555555555556,0,0,0.008680555555555556,32.22222222222222,0)" xlink:href="#ai"/><use transform="matrix(0.008680555555555556,0,0,0.008680555555555556,42.734375,0)" xlink:href="#an"/></g><g id="ab"><use transform="matrix(0.008680555555555556,0,0,0.008680555555555556,0,0)" xlink:href="#al"/><use transform="matrix(0.008680555555555556,0,0,0.008680555555555556,10.32986111111111,0)" xlink:href="#az"/><use transform="matrix(0.008680555555555556,0,0,0.008680555555555556,20.3125,0)" xlink:href="#aE"/></g><g id="ac"><use transform="matrix(0.008680555555555556,0,0,0.008680555555555556,0,0)" xlink:href="#am"/><use transform="matrix(0.008680555555555556,0,0,0.008680555555555556,10.659722222222223,0)" xlink:href="#aE"/><use transform="matrix(0.008680555555555556,0,0,0.008680555555555556,21.163194444444446,0)" xlink:href="#aC"/><use transform="matrix(0.008680555555555556,0,0,0.008680555555555556,25.555555555555557,0)" xlink:href="#at"/></g><g id="ad"><use transform="matrix(0.008680555555555556,0,0,0.008680555555555556,0,0)" xlink:href="#bc"/><use transform="matrix(0.008680555555555556,0,0,0.008680555555555556,9.991319444444445,0)" xlink:href="#ax"/><use transform="matrix(0.008680555555555556,0,0,0.008680555555555556,14.296875,0)" xlink:href="#aq"/><use transform="matrix(0.008680555555555556,0,0,0.008680555555555556,24.34027777777778,0)" xlink:href="#aB"/></g><g id="ae"><use transform="matrix(0.008680555555555556,0,0,0.008680555555555556,0,0)" xlink:href="#aY"/><use transform="matrix(0.008680555555555556,0,0,0.008680555555555556,10.512152777777779,0)" xlink:href="#ax"/><use transform="matrix(0.008680555555555556,0,0,0.008680555555555556,14.817708333333334,0)" xlink:href="#as"/></g><g id="af"><use transform="matrix(0.008680555555555556,0,0,0.008680555555555556,0,0)" xlink:href="#aj"/><use transform="matrix(0.008680555555555556,0,0,0.008680555555555556,10.885416666666668,0)" xlink:href="#aq"/><use transform="matrix(0.008680555555555556,0,0,0.008680555555555556,21.25,0)" xlink:href="#aC"/><use transform="matrix(0.008680555555555556,0,0,0.008680555555555556,25.555555555555557,0)" xlink:href="#aq"/><use transform="matrix(0.008680555555555556,0,0,0.008680555555555556,35.92013888888889,0)" xlink:href="#aD"/><use transform="matrix(0.008680555555555556,0,0,0.008680555555555556,46.82291666666667,0)" xlink:href="#az"/><use transform="matrix(0.008680555555555556,0,0,0.008680555555555556,56.80555555555556,0)" xlink:href="#an"/><use transform="matrix(0.008680555555555556,0,0,0.008680555555555556,62.62152777777778,0)" xlink:href="#ax"/><use transform="matrix(0.008680555555555556,0,0,0.008680555555555556,66.92708333333333,0)" xlink:href="#am"/><use transform="matrix(0.008680555555555556,0,0,0.008680555555555556,77.58680555555556,0)" xlink:href="#aE"/></g><g id="ag"><use transform="matrix(0.008173828125000001,0,0,0.008173828125000001,0,0)" xlink:href="#ak"/><use transform="matrix(0.008173828125000001,0,0,0.008173828125000001,10.740410156250002,0)" xlink:href="#al"/><use transform="matrix(0.008173828125000001,0,0,0.008173828125000001,20.3037890625,0)" xlink:href="#am"/><use transform="matrix(0.008173828125000001,0,0,0.008173828125000001,30.341250000000002,0)" xlink:href="#ai"/><use transform="matrix(0.008173828125000001,0,0,0.008173828125000001,40.239755859375,0)" xlink:href="#an"/><use transform="matrix(0.008173828125000001,0,0,0.008173828125000001,45.716220703125,0)" xlink:href="#ax"/><use transform="matrix(0.008173828125000001,0,0,0.008173828125000001,49.77043945312501,0)" xlink:href="#aE"/><use transform="matrix(0.008173828125000001,0,0,0.008173828125000001,59.660771484375005,0)" xlink:href="#aD"/></g><g id="ah"><use transform="matrix(0.008173828125000001,0,0,0.008173828125000001,0,0)" xlink:href="#ba"/><use transform="matrix(0.008173828125000001,0,0,0.008173828125000001,10.527890625000001,0)" xlink:href="#aq"/><use transform="matrix(0.008173828125000001,0,0,0.008173828125000001,20.287441406250004,0)" xlink:href="#aR"/><use transform="matrix(0.008173828125000001,0,0,0.008173828125000001,30.537421875000007,0)" xlink:href="#am"/><use transform="matrix(0.008173828125000001,0,0,0.008173828125000001,40.57488281250001,0)" xlink:href="#ap"/><use transform="matrix(0.008173828125000001,0,0,0.008173828125000001,47.13846679687501,0)" xlink:href="#an"/><use transform="matrix(0.008173828125000001,0,0,0.008173828125000001,52.45145507812501,0)" xlink:href="#as"/></g></defs></g></svg>